<svg xmlns="http://www.w3.org/2000/svg" width="800" height="500" viewBox="0 0 800 500">
  <rect width="800" height="500" fill="#f0f4f8"/>
  <rect x="20" y="20" width="760" height="460" fill="#ffffff" stroke="#0A1F44" stroke-width="2"/>
  <rect x="28" y="28" width="744" height="452" fill="none" stroke="#0A1F44" stroke-width="0.5"/>
  <rect x="28" y="432" width="744" height="48" fill="#0A1F44"/>
  <line x1="368" y1="432" x2="368" y2="480" stroke="#4a7fc1" stroke-width="0.5"/>
  <line x1="560" y1="432" x2="560" y2="480" stroke="#4a7fc1" stroke-width="0.5"/>
  <text x="44" y="451" font-family="Arial, sans-serif" font-size="7" fill="#9ab3d4" letter-spacing="1.5">PROJECT</text>
  <text x="44" y="463" font-family="Arial, sans-serif" font-size="9" font-weight="bold" fill="#ffffff">ELECTRICAL DRAFTING SERVICES</text>
  <text x="44" y="474" font-family="Arial, sans-serif" font-size="7.5" fill="#c8d8ea">Geo-Nectar Technologies Pvt. Ltd.</text>
  <text x="374" y="451" font-family="Arial, sans-serif" font-size="7" fill="#9ab3d4" letter-spacing="1.5">DRAWING</text>
  <text x="374" y="464" font-family="Arial, sans-serif" font-size="9" font-weight="bold" fill="#ffffff">SINGLE LINE DIAGRAM</text>
  <text x="566" y="451" font-family="Arial, sans-serif" font-size="7" fill="#9ab3d4" letter-spacing="1.5">VOLTAGE</text>
  <text x="566" y="464" font-family="Arial, sans-serif" font-size="9" font-weight="bold" fill="#ffffff">415V / 230V 50Hz</text>
  <text x="700" y="451" font-family="Arial, sans-serif" font-size="7" fill="#9ab3d4" letter-spacing="1.5">DATE</text>
  <text x="700" y="464" font-family="Arial, sans-serif" font-size="9" font-weight="bold" fill="#ffffff">2024</text>
  <!-- Grid -->
  <g stroke="#c8d8ea" stroke-width="0.3" stroke-dasharray="4,4" opacity="0.3">
    <line x1="40" y1="160" x2="760" y2="160"/>
    <line x1="40" y1="280" x2="760" y2="280"/>
    <line x1="200" y1="40" x2="200" y2="424"/>
    <line x1="400" y1="40" x2="400" y2="424"/>
    <line x1="600" y1="40" x2="600" y2="424"/>
  </g>
  <!-- UTILITY CONNECTION (top) -->
  <rect x="330" y="42" width="140" height="30" fill="#e8eef5" stroke="#0A1F44" stroke-width="1.5"/>
  <text x="400" y="60" font-family="Arial, sans-serif" font-size="7.5" font-weight="bold" fill="#0A1F44" text-anchor="middle">DNSP SUPPLY — 11kV</text>
  <line x1="400" y1="72" x2="400" y2="90" stroke="#0A1F44" stroke-width="2"/>
  <!-- 3 phase lines from supply -->
  <text x="415" y="82" font-family="Arial, sans-serif" font-size="6.5" fill="#6b7280">3Ø 3W</text>
  <!-- HV SWITCHGEAR / TRANSFORMER -->
  <rect x="330" y="90" width="140" height="40" fill="#dde8f5" stroke="#0A1F44" stroke-width="2"/>
  <text x="400" y="107" font-family="Arial, sans-serif" font-size="7" font-weight="bold" fill="#0A1F44" text-anchor="middle">HV SWITCHGEAR</text>
  <text x="400" y="120" font-family="Arial, sans-serif" font-size="6.5" fill="#4a7fc1" text-anchor="middle">ABB UniGear 11kV</text>
  <line x1="400" y1="130" x2="400" y2="148" stroke="#0A1F44" stroke-width="2"/>
  <!-- TRANSFORMER -->
  <rect x="320" y="148" width="160" height="44" fill="#c8d8ea" stroke="#0A1F44" stroke-width="2"/>
  <!-- Transformer symbol (two circles) -->
  <circle cx="375" cy="170" r="14" fill="none" stroke="#0A1F44" stroke-width="1.5"/>
  <circle cx="400" cy="170" r="14" fill="none" stroke="#0A1F44" stroke-width="1.5"/>
  <text x="440" y="166" font-family="Arial, sans-serif" font-size="7" fill="#0A1F44">TX-01</text>
  <text x="440" y="179" font-family="Arial, sans-serif" font-size="6.5" fill="#4a7fc1">1000 kVA</text>
  <text x="440" y="191" font-family="Arial, sans-serif" font-size="6.5" fill="#4a7fc1">11kV/415V</text>
  <line x1="400" y1="192" x2="400" y2="210" stroke="#0A1F44" stroke-width="2"/>
  <!-- MAIN SWITCHBOARD (MSB) -->
  <rect x="270" y="210" width="260" height="50" fill="#0A1F44" stroke="#0A1F44" stroke-width="2"/>
  <rect x="275" y="215" width="250" height="40" fill="#1e3a5f"/>
  <text x="400" y="235" font-family="Arial, sans-serif" font-size="8.5" font-weight="bold" fill="#ffffff" text-anchor="middle">MAIN SWITCHBOARD (MSB)</text>
  <text x="400" y="250" font-family="Arial, sans-serif" font-size="7" fill="#9ab3d4" text-anchor="middle">800A TPN MCCB — Schneider ComPact NSX</text>
  <!-- Distribution cables from MSB -->
  <line x1="310" y1="260" x2="310" y2="285" stroke="#ef4444" stroke-width="2"/>
  <line x1="340" y1="260" x2="340" y2="285" stroke="#ef4444" stroke-width="2"/>
  <line x1="400" y1="260" x2="400" y2="285" stroke="#ef4444" stroke-width="2"/>
  <line x1="460" y1="260" x2="460" y2="285" stroke="#ef4444" stroke-width="2"/>
  <line x1="490" y1="260" x2="490" y2="285" stroke="#ef4444" stroke-width="2"/>
  <!-- Distribution boards (DBs) -->
  <!-- DB-L1 -->
  <rect x="55" y="285" width="120" height="50" fill="#e8eef5" stroke="#ef4444" stroke-width="1.5"/>
  <text x="115" y="306" font-family="Arial, sans-serif" font-size="7.5" font-weight="bold" fill="#0A1F44" text-anchor="middle">DB-L1</text>
  <text x="115" y="319" font-family="Arial, sans-serif" font-size="6.5" fill="#ef4444" text-anchor="middle">Level 1 Power</text>
  <text x="115" y="329" font-family="Arial, sans-serif" font-size="6" fill="#6b7280" text-anchor="middle">200A TPN</text>
  <line x1="115" y1="260" x2="310" y2="260" stroke="#ef4444" stroke-width="1.5"/>
  <line x1="115" y1="260" x2="115" y2="285" stroke="#ef4444" stroke-width="1.5"/>
  <!-- DB-L2 -->
  <rect x="205" y="285" width="120" height="50" fill="#e8eef5" stroke="#ef4444" stroke-width="1.5"/>
  <text x="265" y="306" font-family="Arial, sans-serif" font-size="7.5" font-weight="bold" fill="#0A1F44" text-anchor="middle">DB-L2</text>
  <text x="265" y="319" font-family="Arial, sans-serif" font-size="6.5" fill="#ef4444" text-anchor="middle">Level 2 Power</text>
  <text x="265" y="329" font-family="Arial, sans-serif" font-size="6" fill="#6b7280" text-anchor="middle">200A TPN</text>
  <line x1="265" y1="260" x2="340" y2="260" stroke="#ef4444" stroke-width="1.5"/>
  <line x1="265" y1="260" x2="265" y2="285" stroke="#ef4444" stroke-width="1.5"/>
  <!-- DB-LIGHTS -->
  <rect x="345" y="285" width="120" height="50" fill="#fff3e0" stroke="#d97706" stroke-width="1.5"/>
  <text x="405" y="306" font-family="Arial, sans-serif" font-size="7.5" font-weight="bold" fill="#0A1F44" text-anchor="middle">DB-LTG</text>
  <text x="405" y="319" font-family="Arial, sans-serif" font-size="6.5" fill="#d97706" text-anchor="middle">Lighting Board</text>
  <text x="405" y="329" font-family="Arial, sans-serif" font-size="6" fill="#6b7280" text-anchor="middle">100A TPN</text>
  <!-- DB-MECH -->
  <rect x="488" y="285" width="120" height="50" fill="#e0f0e8" stroke="#22a366" stroke-width="1.5"/>
  <text x="548" y="306" font-family="Arial, sans-serif" font-size="7.5" font-weight="bold" fill="#0A1F44" text-anchor="middle">DB-MECH</text>
  <text x="548" y="319" font-family="Arial, sans-serif" font-size="6.5" fill="#22a366" text-anchor="middle">HVAC / Mech</text>
  <text x="548" y="329" font-family="Arial, sans-serif" font-size="6" fill="#6b7280" text-anchor="middle">250A TPN</text>
  <line x1="548" y1="260" x2="460" y2="260" stroke="#22a366" stroke-width="1.5"/>
  <line x1="548" y1="260" x2="548" y2="285" stroke="#22a366" stroke-width="1.5"/>
  <!-- DB-EMERG -->
  <rect x="628" y="285" width="120" height="50" fill="#fff8f8" stroke="#ef4444" stroke-width="2" stroke-dasharray="4,2"/>
  <text x="688" y="306" font-family="Arial, sans-serif" font-size="7.5" font-weight="bold" fill="#ef4444" text-anchor="middle">DB-EMERG</text>
  <text x="688" y="319" font-family="Arial, sans-serif" font-size="6.5" fill="#ef4444" text-anchor="middle">Emergency</text>
  <text x="688" y="329" font-family="Arial, sans-serif" font-size="6" fill="#6b7280" text-anchor="middle">100A TPN — UPS</text>
  <line x1="688" y1="260" x2="490" y2="260" stroke="#ef4444" stroke-width="1.5" stroke-dasharray="5,3"/>
  <line x1="688" y1="260" x2="688" y2="285" stroke="#ef4444" stroke-width="1.5" stroke-dasharray="5,3"/>
  <!-- Circuit breaker symbols on DBs (small rectangles) -->
  <!-- Sub-circuit groups from DB-L1 -->
  <line x1="75" y1="335" x2="75" y2="355" stroke="#ef4444" stroke-width="1.2"/>
  <line x1="100" y1="335" x2="100" y2="355" stroke="#ef4444" stroke-width="1.2"/>
  <line x1="125" y1="335" x2="125" y2="355" stroke="#ef4444" stroke-width="1.2"/>
  <line x1="155" y1="335" x2="155" y2="355" stroke="#ef4444" stroke-width="1.2"/>
  <g fill="#e8eef5" stroke="#ef4444" stroke-width="0.8">
    <rect x="70" y="355" width="11" height="22"/>
    <rect x="95" y="355" width="11" height="22"/>
    <rect x="120" y="355" width="11" height="22"/>
    <rect x="150" y="355" width="11" height="22"/>
  </g>
  <text x="75" y="390" font-family="Arial, sans-serif" font-size="5.5" fill="#6b7280" text-anchor="middle">GPO</text>
  <text x="100" y="390" font-family="Arial, sans-serif" font-size="5.5" fill="#6b7280" text-anchor="middle">GPO</text>
  <text x="125" y="390" font-family="Arial, sans-serif" font-size="5.5" fill="#6b7280" text-anchor="middle">Ltg</text>
  <text x="155" y="390" font-family="Arial, sans-serif" font-size="5.5" fill="#6b7280" text-anchor="middle">Sml Pwr</text>
  <!-- Sub-circuit from DB-MECH -->
  <line x1="515" y1="335" x2="515" y2="355" stroke="#22a366" stroke-width="1.2"/>
  <line x1="545" y1="335" x2="545" y2="355" stroke="#22a366" stroke-width="1.2"/>
  <line x1="575" y1="335" x2="575" y2="355" stroke="#22a366" stroke-width="1.2"/>
  <g fill="#e0f0e8" stroke="#22a366" stroke-width="0.8">
    <rect x="510" y="355" width="11" height="22"/>
    <rect x="540" y="355" width="11" height="22"/>
    <rect x="570" y="355" width="11" height="22"/>
  </g>
  <text x="515" y="390" font-family="Arial, sans-serif" font-size="5.5" fill="#6b7280" text-anchor="middle">AHU-01</text>
  <text x="545" y="390" font-family="Arial, sans-serif" font-size="5.5" fill="#6b7280" text-anchor="middle">FCU Grp</text>
  <text x="575" y="390" font-family="Arial, sans-serif" font-size="5.5" fill="#6b7280" text-anchor="middle">Exhaust</text>
  <!-- Generator (emergency) -->
  <rect x="628" y="385" width="120" height="35" fill="#f0f4f8" stroke="#ef4444" stroke-width="1.5"/>
  <circle cx="653" cy="403" r="10" fill="none" stroke="#ef4444" stroke-width="1.5"/>
  <text x="654" y="407" font-family="Arial, sans-serif" font-size="7" fill="#ef4444" text-anchor="middle">G</text>
  <text x="705" y="398" font-family="Arial, sans-serif" font-size="6.5" fill="#0A1F44">GENERATOR</text>
  <text x="705" y="410" font-family="Arial, sans-serif" font-size="6" fill="#ef4444">200 kVA Standby</text>
  <line x1="688" y1="335" x2="688" y2="385" stroke="#ef4444" stroke-width="1.5" stroke-dasharray="4,2"/>
</svg>
