<svg xmlns="http://www.w3.org/2000/svg" width="800" height="500" viewBox="0 0 800 500">
  <rect width="800" height="500" fill="#f0f4f8"/>
  <rect x="20" y="20" width="760" height="460" fill="#ffffff" stroke="#0A1F44" stroke-width="2"/>
  <rect x="28" y="28" width="744" height="452" fill="none" stroke="#0A1F44" stroke-width="0.5"/>
  <rect x="28" y="432" width="744" height="48" fill="#0A1F44"/>
  <line x1="368" y1="432" x2="368" y2="480" stroke="#4a7fc1" stroke-width="0.5"/>
  <line x1="560" y1="432" x2="560" y2="480" stroke="#4a7fc1" stroke-width="0.5"/>
  <text x="44" y="451" font-family="Arial, sans-serif" font-size="7" fill="#9ab3d4" letter-spacing="1.5">PROJECT</text>
  <text x="44" y="463" font-family="Arial, sans-serif" font-size="9" font-weight="bold" fill="#ffffff">FACILITY MANAGEMENT DRAWINGS</text>
  <text x="44" y="474" font-family="Arial, sans-serif" font-size="7.5" fill="#c8d8ea">Geo-Nectar Technologies Pvt. Ltd.</text>
  <text x="374" y="451" font-family="Arial, sans-serif" font-size="7" fill="#9ab3d4" letter-spacing="1.5">DRAWING</text>
  <text x="374" y="464" font-family="Arial, sans-serif" font-size="9" font-weight="bold" fill="#ffffff">AS-BUILT FLOOR PLAN L1</text>
  <text x="566" y="451" font-family="Arial, sans-serif" font-size="7" fill="#9ab3d4" letter-spacing="1.5">SCALE</text>
  <text x="566" y="464" font-family="Arial, sans-serif" font-size="9" font-weight="bold" fill="#ffffff">1:200</text>
  <text x="650" y="451" font-family="Arial, sans-serif" font-size="7" fill="#9ab3d4" letter-spacing="1.5">DATE</text>
  <text x="650" y="464" font-family="Arial, sans-serif" font-size="9" font-weight="bold" fill="#ffffff">2024</text>
  <!-- Light grid -->
  <g stroke="#c8d8ea" stroke-width="0.3" stroke-dasharray="4,4" opacity="0.4">
    <line x1="170" y1="40" x2="170" y2="424"/>
    <line x1="340" y1="40" x2="340" y2="424"/>
    <line x1="510" y1="40" x2="510" y2="424"/>
    <line x1="680" y1="40" x2="680" y2="424"/>
    <line x1="40" y1="160" x2="760" y2="160"/>
    <line x1="40" y1="280" x2="760" y2="280"/>
  </g>
  <!-- Floor plan boundary (as-built) -->
  <rect x="42" y="42" width="550" height="380" fill="#eef3f8" stroke="#0A1F44" stroke-width="3"/>
  <!-- Interior walls -->
  <line x1="200" y1="42" x2="200" y2="280" stroke="#0A1F44" stroke-width="2.5"/>
  <line x1="42" y1="200" x2="592" y2="200" stroke="#0A1F44" stroke-width="2.5"/>
  <line x1="400" y1="200" x2="400" y2="422" stroke="#0A1F44" stroke-width="2.5"/>
  <line x1="400" y1="42" x2="400" y2="200" stroke="#0A1F44" stroke-width="2"/>
  <line x1="200" y1="280" x2="400" y2="280" stroke="#0A1F44" stroke-width="2"/>
  <!-- Room labels -->
  <text x="121" y="110" font-family="Arial, sans-serif" font-size="7.5" font-weight="bold" fill="#0A1F44" text-anchor="middle">OFFICE 101</text>
  <text x="121" y="122" font-family="Arial, sans-serif" font-size="6.5" fill="#4a7fc1" text-anchor="middle">AREA: 4.8 × 8.0m</text>
  <text x="300" y="110" font-family="Arial, sans-serif" font-size="7.5" font-weight="bold" fill="#0A1F44" text-anchor="middle">OFFICE 102</text>
  <text x="300" y="122" font-family="Arial, sans-serif" font-size="6.5" fill="#4a7fc1" text-anchor="middle">AREA: 10.0 × 8.0m</text>
  <text x="496" y="110" font-family="Arial, sans-serif" font-size="7.5" font-weight="bold" fill="#0A1F44" text-anchor="middle">BOARD RM</text>
  <text x="496" y="122" font-family="Arial, sans-serif" font-size="6.5" fill="#4a7fc1" text-anchor="middle">AREA: 9.6 × 8.0m</text>
  <text x="220" y="252" font-family="Arial, sans-serif" font-size="7.5" font-weight="bold" fill="#0A1F44" text-anchor="middle">CORRIDOR</text>
  <text x="220" y="340" font-family="Arial, sans-serif" font-size="7.5" font-weight="bold" fill="#0A1F44" text-anchor="middle">WC / AMENITIES</text>
  <text x="496" y="330" font-family="Arial, sans-serif" font-size="7.5" font-weight="bold" fill="#0A1F44" text-anchor="middle">OPEN PLAN</text>
  <text x="496" y="342" font-family="Arial, sans-serif" font-size="6.5" fill="#4a7fc1" text-anchor="middle">AREA: 9.6 × 11.2m</text>
  <!-- Equipment tags — HVAC -->
  <g fill="#4a7fc1" stroke="#4a7fc1">
    <!-- AHU tag -->
    <rect x="80" y="165" width="28" height="18" fill="none" stroke="#4a7fc1" stroke-width="1.2"/>
    <text x="94" y="178" font-family="Arial, sans-serif" font-size="6.5" fill="#4a7fc1" text-anchor="middle">AHU-01</text>
    <!-- FCU tags -->
    <rect x="155" y="55" width="25" height="16" fill="none" stroke="#4a7fc1" stroke-width="1"/>
    <text x="167" y="67" font-family="Arial, sans-serif" font-size="5.5" fill="#4a7fc1" text-anchor="middle">FCU-01</text>
    <rect x="320" y="55" width="25" height="16" fill="none" stroke="#4a7fc1" stroke-width="1"/>
    <text x="332" y="67" font-family="Arial, sans-serif" font-size="5.5" fill="#4a7fc1" text-anchor="middle">FCU-02</text>
    <rect x="490" y="55" width="25" height="16" fill="none" stroke="#4a7fc1" stroke-width="1"/>
    <text x="502" y="67" font-family="Arial, sans-serif" font-size="5.5" fill="#4a7fc1" text-anchor="middle">FCU-03</text>
  </g>
  <!-- Equipment tags — Electrical -->
  <g>
    <rect x="55" y="55" width="25" height="16" fill="none" stroke="#ef4444" stroke-width="1"/>
    <text x="67" y="67" font-family="Arial, sans-serif" font-size="5.5" fill="#ef4444" text-anchor="middle">DB-01</text>
    <rect x="380" y="55" width="25" height="16" fill="none" stroke="#ef4444" stroke-width="1"/>
    <text x="392" y="67" font-family="Arial, sans-serif" font-size="5.5" fill="#ef4444" text-anchor="middle">DB-02</text>
    <!-- Emergency lighting -->
    <circle cx="130" cy="80" r="5" fill="#f59e0b" stroke="#d97706" stroke-width="0.8"/>
    <text x="140" y="84" font-family="Arial, sans-serif" font-size="5.5" fill="#d97706">EL-01</text>
    <circle cx="280" cy="80" r="5" fill="#f59e0b" stroke="#d97706" stroke-width="0.8"/>
    <text x="290" y="84" font-family="Arial, sans-serif" font-size="5.5" fill="#d97706">EL-02</text>
    <circle cx="480" cy="80" r="5" fill="#f59e0b" stroke="#d97706" stroke-width="0.8"/>
    <text x="490" y="84" font-family="Arial, sans-serif" font-size="5.5" fill="#d97706">EL-03</text>
  </g>
  <!-- Equipment tags — Fire -->
  <g>
    <!-- Sprinkler heads -->
    <circle cx="110" cy="140" r="4" fill="none" stroke="#ef4444" stroke-width="1.2"/>
    <line x1="110" y1="140" x2="110" y2="135" stroke="#ef4444" stroke-width="1.2"/>
    <text x="118" y="143" font-family="Arial, sans-serif" font-size="5" fill="#ef4444">SP-01</text>
    <circle cx="260" cy="140" r="4" fill="none" stroke="#ef4444" stroke-width="1.2"/>
    <line x1="260" y1="140" x2="260" y2="135" stroke="#ef4444" stroke-width="1.2"/>
    <text x="268" y="143" font-family="Arial, sans-serif" font-size="5" fill="#ef4444">SP-02</text>
    <circle cx="470" cy="140" r="4" fill="none" stroke="#ef4444" stroke-width="1.2"/>
    <line x1="470" y1="140" x2="470" y2="135" stroke="#ef4444" stroke-width="1.2"/>
    <text x="478" y="143" font-family="Arial, sans-serif" font-size="5" fill="#ef4444">SP-03</text>
  </g>
  <!-- Asset register (right panel) -->
  <rect x="600" y="42" width="158" height="380" fill="#f8fafc" stroke="#0A1F44" stroke-width="1"/>
  <rect x="600" y="42" width="158" height="18" fill="#0A1F44"/>
  <text x="679" y="55" font-family="Arial, sans-serif" font-size="7.5" font-weight="bold" fill="#ffffff" text-anchor="middle" letter-spacing="1">ASSET REGISTER</text>
  <!-- Header row -->
  <rect x="600" y="60" width="158" height="14" fill="#e8eef5"/>
  <text x="614" y="70" font-family="Arial, sans-serif" font-size="6" fill="#0A1F44">TAG</text>
  <text x="646" y="70" font-family="Arial, sans-serif" font-size="6" fill="#0A1F44">DESCRIPTION</text>
  <text x="738" y="70" font-family="Arial, sans-serif" font-size="6" fill="#0A1F44">STATUS</text>
  <!-- Asset rows -->
  <text x="610" y="83" font-family="Arial, sans-serif" font-size="6" fill="#4a7fc1">AHU-01</text>
  <text x="640" y="83" font-family="Arial, sans-serif" font-size="6" fill="#0A1F44">Air Handling Unit</text>
  <text x="738" y="83" font-family="Arial, sans-serif" font-size="6" fill="#22a366">OK</text>
  <text x="610" y="96" font-family="Arial, sans-serif" font-size="6" fill="#4a7fc1">FCU-01</text>
  <text x="640" y="96" font-family="Arial, sans-serif" font-size="6" fill="#0A1F44">Fan Coil Unit</text>
  <text x="738" y="96" font-family="Arial, sans-serif" font-size="6" fill="#22a366">OK</text>
  <text x="610" y="109" font-family="Arial, sans-serif" font-size="6" fill="#4a7fc1">FCU-02</text>
  <text x="640" y="109" font-family="Arial, sans-serif" font-size="6" fill="#0A1F44">Fan Coil Unit</text>
  <text x="738" y="109" font-family="Arial, sans-serif" font-size="6" fill="#22a366">OK</text>
  <text x="610" y="122" font-family="Arial, sans-serif" font-size="6" fill="#4a7fc1">FCU-03</text>
  <text x="640" y="122" font-family="Arial, sans-serif" font-size="6" fill="#0A1F44">Fan Coil Unit</text>
  <text x="738" y="122" font-family="Arial, sans-serif" font-size="6" fill="#d97706">MAINT</text>
  <text x="610" y="135" font-family="Arial, sans-serif" font-size="6" fill="#ef4444">DB-01</text>
  <text x="640" y="135" font-family="Arial, sans-serif" font-size="6" fill="#0A1F44">Distribution Board</text>
  <text x="738" y="135" font-family="Arial, sans-serif" font-size="6" fill="#22a366">OK</text>
  <text x="610" y="148" font-family="Arial, sans-serif" font-size="6" fill="#ef4444">DB-02</text>
  <text x="640" y="148" font-family="Arial, sans-serif" font-size="6" fill="#0A1F44">Distribution Board</text>
  <text x="738" y="148" font-family="Arial, sans-serif" font-size="6" fill="#22a366">OK</text>
  <text x="610" y="161" font-family="Arial, sans-serif" font-size="6" fill="#d97706">EL-01</text>
  <text x="640" y="161" font-family="Arial, sans-serif" font-size="6" fill="#0A1F44">Emergency Light</text>
  <text x="738" y="161" font-family="Arial, sans-serif" font-size="6" fill="#22a366">OK</text>
  <text x="610" y="174" font-family="Arial, sans-serif" font-size="6" fill="#d97706">EL-02</text>
  <text x="640" y="174" font-family="Arial, sans-serif" font-size="6" fill="#0A1F44">Emergency Light</text>
  <text x="738" y="174" font-family="Arial, sans-serif" font-size="6" fill="#d97706">LOW</text>
  <text x="610" y="187" font-family="Arial, sans-serif" font-size="6" fill="#ef4444">SP-01</text>
  <text x="640" y="187" font-family="Arial, sans-serif" font-size="6" fill="#0A1F44">Sprinkler Head</text>
  <text x="738" y="187" font-family="Arial, sans-serif" font-size="6" fill="#22a366">OK</text>
  <text x="610" y="200" font-family="Arial, sans-serif" font-size="6" fill="#ef4444">SP-02</text>
  <text x="640" y="200" font-family="Arial, sans-serif" font-size="6" fill="#0A1F44">Sprinkler Head</text>
  <text x="738" y="200" font-family="Arial, sans-serif" font-size="6" fill="#22a366">OK</text>
  <text x="610" y="213" font-family="Arial, sans-serif" font-size="6" fill="#ef4444">SP-03</text>
  <text x="640" y="213" font-family="Arial, sans-serif" font-size="6" fill="#0A1F44">Sprinkler Head</text>
  <text x="738" y="213" font-family="Arial, sans-serif" font-size="6" fill="#22a366">OK</text>
  <!-- Horizontal rule lines in register -->
  <g stroke="#e5e7eb" stroke-width="0.5">
    <line x1="600" y1="74" x2="758" y2="74"/><line x1="600" y1="87" x2="758" y2="87"/>
    <line x1="600" y1="100" x2="758" y2="100"/><line x1="600" y1="113" x2="758" y2="113"/>
    <line x1="600" y1="126" x2="758" y2="126"/><line x1="600" y1="139" x2="758" y2="139"/>
    <line x1="600" y1="152" x2="758" y2="152"/><line x1="600" y1="165" x2="758" y2="165"/>
    <line x1="600" y1="178" x2="758" y2="178"/><line x1="600" y1="191" x2="758" y2="191"/>
    <line x1="600" y1="204" x2="758" y2="204"/>
  </g>
  <!-- Legend panel in register -->
  <rect x="600" y="225" width="158" height="195" fill="#f8fafc" stroke="#9ab3d4" stroke-width="0.5"/>
  <text x="612" y="238" font-family="Arial, sans-serif" font-size="6.5" font-weight="bold" fill="#0A1F44">SYMBOL KEY</text>
  <rect x="608" y="244" width="12" height="10" fill="none" stroke="#4a7fc1" stroke-width="1.2"/>
  <text x="624" y="253" font-family="Arial, sans-serif" font-size="6" fill="#4a7fc1">HVAC Equipment</text>
  <rect x="608" y="258" width="12" height="10" fill="none" stroke="#ef4444" stroke-width="1.2"/>
  <text x="624" y="267" font-family="Arial, sans-serif" font-size="6" fill="#ef4444">Electrical Equipment</text>
  <circle cx="614" cy="277" r="5" fill="#f59e0b" stroke="#d97706" stroke-width="0.8"/>
  <text x="624" y="281" font-family="Arial, sans-serif" font-size="6" fill="#d97706">Emergency Light</text>
  <circle cx="614" cy="292" r="4" fill="none" stroke="#ef4444" stroke-width="1.2"/>
  <text x="624" y="296" font-family="Arial, sans-serif" font-size="6" fill="#ef4444">Sprinkler Head</text>
  <!-- Status indicator -->
  <text x="612" y="315" font-family="Arial, sans-serif" font-size="6.5" font-weight="bold" fill="#0A1F44">STATUS</text>
  <rect x="608" y="320" width="8" height="8" fill="#22a366"/>
  <text x="622" y="328" font-family="Arial, sans-serif" font-size="6" fill="#22a366">Operational (OK)</text>
  <rect x="608" y="333" width="8" height="8" fill="#d97706"/>
  <text x="622" y="341" font-family="Arial, sans-serif" font-size="6" fill="#d97706">Maintenance Due</text>
  <rect x="608" y="346" width="8" height="8" fill="#ef4444"/>
  <text x="622" y="354" font-family="Arial, sans-serif" font-size="6" fill="#ef4444">Fault / Replace</text>
</svg>
