<svg xmlns="http://www.w3.org/2000/svg" width="1200" height="500" viewBox="0 0 1200 500">
  <rect width="1200" height="500" fill="#f0f4f8"/>
  <rect x="20" y="20" width="1160" height="460" fill="#ffffff" stroke="#0A1F44" stroke-width="2"/>
  <rect x="28" y="28" width="1144" height="452" fill="none" stroke="#0A1F44" stroke-width="0.5"/>
  <!-- Title block -->
  <rect x="28" y="432" width="1144" height="48" fill="#0A1F44"/>
  <line x1="400" y1="432" x2="400" y2="480" stroke="#4a7fc1" stroke-width="0.5"/>
  <line x1="700" y1="432" x2="700" y2="480" stroke="#4a7fc1" stroke-width="0.5"/>
  <line x1="960" y1="432" x2="960" y2="480" stroke="#4a7fc1" stroke-width="0.5"/>
  <text x="44" y="451" font-family="Arial, sans-serif" font-size="7" fill="#9ab3d4" letter-spacing="1.5">CATEGORY</text>
  <text x="44" y="463" font-family="Arial, sans-serif" font-size="11" font-weight="bold" fill="#ffffff">BUILDING SERVICES DRAFTING</text>
  <text x="44" y="476" font-family="Arial, sans-serif" font-size="7.5" fill="#c8d8ea">Geo-Nectar Technologies Pvt. Ltd.</text>
  <text x="416" y="451" font-family="Arial, sans-serif" font-size="7" fill="#9ab3d4" letter-spacing="1.5">SERVICES</text>
  <text x="416" y="463" font-family="Arial, sans-serif" font-size="7.5" fill="#ffffff">MEP DRAFTING · HVAC · ELECTRICAL · PLUMBING</text>
  <text x="416" y="475" font-family="Arial, sans-serif" font-size="7.5" fill="#c8d8ea">FIRE PROTECTION · FACILITY MANAGEMENT</text>
  <text x="716" y="451" font-family="Arial, sans-serif" font-size="7" fill="#9ab3d4" letter-spacing="1.5">STANDARDS</text>
  <text x="716" y="463" font-family="Arial, sans-serif" font-size="8" font-weight="bold" fill="#ffffff">NFPA · AS/NZS 3500 · IEC 60364</text>
  <text x="976" y="451" font-family="Arial, sans-serif" font-size="7" fill="#9ab3d4" letter-spacing="1.5">SOFTWARE</text>
  <text x="976" y="463" font-family="Arial, sans-serif" font-size="8" font-weight="bold" fill="#ffffff">Revit MEP · AutoCAD M&amp;E</text>
  <!-- Grid -->
  <g stroke="#c8d8ea" stroke-width="0.3" stroke-dasharray="4,4" opacity="0.4">
    <line x1="400" y1="40" x2="400" y2="424"/>
    <line x1="800" y1="40" x2="800" y2="424"/>
    <line x1="40" y1="240" x2="1160" y2="240"/>
  </g>
  <text x="60" y="58" font-family="Arial, sans-serif" font-size="7" fill="#6b7280">BUILDING SERVICES DRAFTING — FULLY COORDINATED MEP DOCUMENTATION  |  ALL DISCIPLINES  |  ALL REGIONS</text>
  <!-- PANEL 1: HVAC + Mechanical (left) -->
  <rect x="40" y="65" width="360" height="360" fill="#f0f8ff" stroke="#9ab3d4" stroke-width="0.5"/>
  <text x="220" y="82" font-family="Arial, sans-serif" font-size="8" font-weight="bold" fill="#0A1F44" text-anchor="middle">HVAC &amp; MECHANICAL</text>
  <!-- AHU unit -->
  <rect x="55" y="95" width="80" height="55" fill="#c8e0f8" stroke="#4a7fc1" stroke-width="1.5" rx="3"/>
  <text x="95" y="118" font-family="Arial, sans-serif" font-size="7" fill="#4a7fc1" text-anchor="middle">AHU-01</text>
  <text x="95" y="130" font-family="Arial, sans-serif" font-size="5.5" fill="#6b7280" text-anchor="middle">30kW / 2500 L/s</text>
  <!-- Main SA duct -->
  <rect x="135" y="100" width="255" height="32" fill="#c8e0f8" stroke="#4a7fc1" stroke-width="1.8" rx="1"/>
  <text x="262" y="120" font-family="Arial, sans-serif" font-size="7" fill="#4a7fc1" text-anchor="middle" font-weight="bold">800×400 SA DUCT</text>
  <!-- Branch ducts (vertical) -->
  <rect x="165" y="132" width="22" height="100" fill="#c8e0f8" stroke="#4a7fc1" stroke-width="1.5"/>
  <rect x="250" y="132" width="22" height="100" fill="#c8e0f8" stroke="#4a7fc1" stroke-width="1.5"/>
  <rect x="335" y="132" width="22" height="100" fill="#c8e0f8" stroke="#4a7fc1" stroke-width="1.5"/>
  <!-- Diffusers -->
  <g fill="#c8e0f8" stroke="#4a7fc1" stroke-width="1">
    <rect x="148" y="234" width="56" height="18" rx="2"/>
    <rect x="233" y="234" width="56" height="18" rx="2"/>
    <rect x="318" y="234" width="56" height="18" rx="2"/>
  </g>
  <text x="176" y="246" font-family="Arial, sans-serif" font-size="5.5" fill="#4a7fc1" text-anchor="middle">SAG</text>
  <text x="261" y="246" font-family="Arial, sans-serif" font-size="5.5" fill="#4a7fc1" text-anchor="middle">SAG</text>
  <text x="346" y="246" font-family="Arial, sans-serif" font-size="5.5" fill="#4a7fc1" text-anchor="middle">SAG</text>
  <!-- RA duct -->
  <rect x="55" y="280" width="335" height="24" fill="#e0f0e8" stroke="#22a366" stroke-width="1.5" rx="1"/>
  <text x="222" y="296" font-family="Arial, sans-serif" font-size="7" fill="#22a366" text-anchor="middle">600×250 RA DUCT</text>
  <!-- RA grille -->
  <g fill="#e0f0e8" stroke="#22a366" stroke-width="1">
    <rect x="148" y="306" width="56" height="16" rx="2"/>
    <rect x="253" y="306" width="56" height="16" rx="2"/>
    <rect x="320" y="306" width="56" height="16" rx="2"/>
  </g>
  <!-- FCU unit -->
  <rect x="55" y="330" width="60" height="35" fill="#c8e0f8" stroke="#4a7fc1" stroke-width="1" rx="2"/>
  <text x="85" y="350" font-family="Arial, sans-serif" font-size="6" fill="#4a7fc1" text-anchor="middle">FCU-B1</text>
  <rect x="155" y="330" width="60" height="35" fill="#c8e0f8" stroke="#4a7fc1" stroke-width="1" rx="2"/>
  <text x="185" y="350" font-family="Arial, sans-serif" font-size="6" fill="#4a7fc1" text-anchor="middle">FCU-B2</text>
  <!-- Schematic info -->
  <text x="55" y="400" font-family="Arial, sans-serif" font-size="6" fill="#6b7280">Zone: Office Level 2</text>
  <text x="55" y="411" font-family="Arial, sans-serif" font-size="6" fill="#6b7280">Flow: 2500 L/s SA / 2300 L/s RA</text>
  <text x="55" y="422" font-family="Arial, sans-serif" font-size="6" fill="#6b7280">Code: BCA Sec J / ASHRAE 90.1</text>
  <!-- PANEL 2: Electrical + Fire Protection (middle) -->
  <rect x="413" y="65" width="375" height="360" fill="#fff8f8" stroke="#9ab3d4" stroke-width="0.5"/>
  <text x="600" y="82" font-family="Arial, sans-serif" font-size="8" font-weight="bold" fill="#0A1F44" text-anchor="middle">ELECTRICAL &amp; FIRE PROTECTION</text>
  <!-- Electrical single-line diagram (top half) -->
  <text x="425" y="98" font-family="Arial, sans-serif" font-size="7" fill="#d97706" font-weight="bold">ELECTRICAL SINGLE-LINE DIAGRAM</text>
  <!-- Utility supply -->
  <rect x="560" y="105" width="80" height="18" fill="#f5e8e0" stroke="#d97706" stroke-width="1.5"/>
  <text x="600" y="118" font-family="Arial, sans-serif" font-size="6" fill="#d97706" text-anchor="middle">UTILITY 11kV</text>
  <line x1="600" y1="123" x2="600" y2="140" stroke="#d97706" stroke-width="2"/>
  <!-- Transformer -->
  <rect x="568" y="140" width="64" height="20" fill="#f5e8e0" stroke="#d97706" stroke-width="1.5"/>
  <text x="600" y="154" font-family="Arial, sans-serif" font-size="6" fill="#d97706" text-anchor="middle">TX 11kV/415V</text>
  <line x1="600" y1="160" x2="600" y2="178" stroke="#d97706" stroke-width="2"/>
  <!-- MSB -->
  <rect x="545" y="178" width="110" height="18" fill="#f5e8e0" stroke="#d97706" stroke-width="2"/>
  <text x="600" y="191" font-family="Arial, sans-serif" font-size="6.5" fill="#d97706" text-anchor="middle">MSB — MAIN SWITCHBOARD</text>
  <!-- Distribution lines -->
  <line x1="555" y1="196" x2="430" y2="196" stroke="#d97706" stroke-width="1.5"/>
  <line x1="600" y1="196" x2="600" y2="213" stroke="#d97706" stroke-width="1.5"/>
  <line x1="645" y1="196" x2="765" y2="196" stroke="#d97706" stroke-width="1.5"/>
  <line x1="430" y1="196" x2="430" y2="213" stroke="#d97706" stroke-width="1.5"/>
  <line x1="765" y1="196" x2="765" y2="213" stroke="#d97706" stroke-width="1.5"/>
  <!-- DBs -->
  <rect x="395" y="213" width="70" height="15" fill="#f5e8e0" stroke="#d97706" stroke-width="1.2"/>
  <text x="430" y="224" font-family="Arial, sans-serif" font-size="5.5" fill="#d97706" text-anchor="middle">DB-GF GENERAL</text>
  <rect x="564" y="213" width="72" height="15" fill="#f5e8e0" stroke="#d97706" stroke-width="1.2"/>
  <text x="600" y="224" font-family="Arial, sans-serif" font-size="5.5" fill="#d97706" text-anchor="middle">DB-L1 GENERAL</text>
  <rect x="730" y="213" width="70" height="15" fill="#f5e8e0" stroke="#d97706" stroke-width="1.2"/>
  <text x="765" y="224" font-family="Arial, sans-serif" font-size="5.5" fill="#d97706" text-anchor="middle">DB-LIGHTING</text>
  <!-- Generator -->
  <rect x="425" y="240" width="80" height="18" fill="#fef3c7" stroke="#f59e0b" stroke-width="1.5"/>
  <text x="465" y="253" font-family="Arial, sans-serif" font-size="6" fill="#f59e0b" text-anchor="middle">GENSET 250kVA</text>
  <line x1="465" y1="240" x2="465" y2="228" stroke="#f59e0b" stroke-width="1.5"/>
  <!-- Fire Protection (bottom half of middle panel) -->
  <text x="425" y="280" font-family="Arial, sans-serif" font-size="7" fill="#ef4444" font-weight="bold">FIRE SPRINKLER LAYOUT — DN100 MAIN</text>
  <!-- SP main -->
  <line x1="425" y1="295" x2="780" y2="295" stroke="#ef4444" stroke-width="4"/>
  <text x="600" y="291" font-family="Arial, sans-serif" font-size="6" fill="#ef4444" text-anchor="middle">SP MAIN DN100</text>
  <!-- Branch mains -->
  <line x1="490" y1="295" x2="490" y2="350" stroke="#ef4444" stroke-width="2.5"/>
  <line x1="600" y1="295" x2="600" y2="350" stroke="#ef4444" stroke-width="2.5"/>
  <line x1="710" y1="295" x2="710" y2="350" stroke="#ef4444" stroke-width="2.5"/>
  <line x1="460" y1="350" x2="745" y2="350" stroke="#ef4444" stroke-width="2.5"/>
  <!-- Sprinkler heads -->
  <g stroke="#ef4444" fill="none" stroke-width="1.2">
    <circle cx="462" cy="366" r="7"/>
    <line x1="455" y1="359" x2="469" y2="373"/><line x1="469" y1="359" x2="455" y2="373"/>
    <circle cx="525" cy="366" r="7"/>
    <line x1="518" y1="359" x2="532" y2="373"/><line x1="532" y1="359" x2="518" y2="373"/>
    <circle cx="600" cy="366" r="7"/>
    <line x1="593" y1="359" x2="607" y2="373"/><line x1="607" y1="359" x2="593" y2="373"/>
    <circle cx="675" cy="366" r="7"/>
    <line x1="668" y1="359" x2="682" y2="373"/><line x1="682" y1="359" x2="668" y2="373"/>
    <circle cx="742" cy="366" r="7"/>
    <line x1="735" y1="359" x2="749" y2="373"/><line x1="749" y1="359" x2="735" y2="373"/>
  </g>
  <!-- Zone valve -->
  <rect x="425" y="285" width="32" height="22" fill="#f8fafc" stroke="#ef4444" stroke-width="1.5"/>
  <text x="441" y="299" font-family="Arial, sans-serif" font-size="5.5" fill="#ef4444" text-anchor="middle">ZV-01</text>
  <text x="441" y="308" font-family="Arial, sans-serif" font-size="5" fill="#6b7280" text-anchor="middle">ZONE VLV</text>
  <!-- PANEL 3: Plumbing + Facility Mgt (right) -->
  <rect x="802" y="65" width="358" height="360" fill="#f5f8f5" stroke="#9ab3d4" stroke-width="0.5"/>
  <text x="981" y="82" font-family="Arial, sans-serif" font-size="8" font-weight="bold" fill="#0A1F44" text-anchor="middle">PLUMBING &amp; FACILITY MANAGEMENT</text>
  <!-- Plumbing isometric (top 60%) -->
  <text x="818" y="98" font-family="Arial, sans-serif" font-size="7" fill="#2563eb" font-weight="bold">COLD WATER ISOMETRIC</text>
  <!-- CWS Stack -->
  <line x1="870" y1="385" x2="870" y2="108" stroke="#2563eb" stroke-width="4"/>
  <!-- Meter -->
  <rect x="850" y="368" width="38" height="18" fill="#dde8f5" stroke="#2563eb" stroke-width="1.2"/>
  <text x="869" y="381" font-family="Arial, sans-serif" font-size="5.5" fill="#2563eb" text-anchor="middle">METER</text>
  <!-- Floor branches -->
  <line x1="870" y1="358" x2="990" y2="358" stroke="#2563eb" stroke-width="3"/>
  <text x="878" y="355" font-family="Arial, sans-serif" font-size="5.5" fill="#2563eb">DN32 GF</text>
  <line x1="870" y1="290" x2="990" y2="290" stroke="#2563eb" stroke-width="2.5"/>
  <text x="878" y="287" font-family="Arial, sans-serif" font-size="5.5" fill="#2563eb">DN25 L1</text>
  <line x1="870" y1="210" x2="990" y2="210" stroke="#2563eb" stroke-width="2"/>
  <text x="878" y="207" font-family="Arial, sans-serif" font-size="5.5" fill="#2563eb">DN20 L2</text>
  <line x1="870" y1="130" x2="990" y2="130" stroke="#2563eb" stroke-width="2"/>
  <text x="878" y="127" font-family="Arial, sans-serif" font-size="5.5" fill="#2563eb">DN20 L3</text>
  <!-- Fixtures GF -->
  <ellipse cx="1010" cy="362" rx="18" ry="11" fill="#dde8f5" stroke="#2563eb" stroke-width="1.2"/>
  <text x="1010" y="366" font-family="Arial, sans-serif" font-size="5.5" fill="#2563eb" text-anchor="middle">WC</text>
  <ellipse cx="1055" cy="358" rx="14" ry="9" fill="#dde8f5" stroke="#2563eb" stroke-width="1.2"/>
  <text x="1055" y="362" font-family="Arial, sans-serif" font-size="5.5" fill="#2563eb" text-anchor="middle">HB</text>
  <!-- Fixtures L1 -->
  <ellipse cx="1010" cy="294" rx="18" ry="11" fill="#dde8f5" stroke="#2563eb" stroke-width="1.2"/>
  <text x="1010" y="298" font-family="Arial, sans-serif" font-size="5.5" fill="#2563eb" text-anchor="middle">WC</text>
  <ellipse cx="1055" cy="290" rx="14" ry="9" fill="#dde8f5" stroke="#2563eb" stroke-width="1.2"/>
  <text x="1055" y="294" font-family="Arial, sans-serif" font-size="5.5" fill="#2563eb" text-anchor="middle">HB</text>
  <!-- Floor markers -->
  <g stroke="#0A1F44" stroke-width="0.5" stroke-dasharray="4,2">
    <line x1="820" y1="408" x2="870" y2="408"/>
    <line x1="820" y1="340" x2="1000" y2="340"/>
    <line x1="820" y1="262" x2="1000" y2="262"/>
    <line x1="820" y1="182" x2="1000" y2="182"/>
  </g>
  <text x="818" y="412" font-family="Arial, sans-serif" font-size="5.5" fill="#0A1F44" text-anchor="end">GF</text>
  <text x="818" y="344" font-family="Arial, sans-serif" font-size="5.5" fill="#0A1F44" text-anchor="end">L1</text>
  <text x="818" y="266" font-family="Arial, sans-serif" font-size="5.5" fill="#0A1F44" text-anchor="end">L2</text>
  <text x="818" y="186" font-family="Arial, sans-serif" font-size="5.5" fill="#0A1F44" text-anchor="end">L3</text>
  <!-- Facility Mgt / Asset register (bottom strip) -->
  <rect x="1080" y="90" width="72" height="275" fill="#f8fafc" stroke="#0A1F44" stroke-width="0.8"/>
  <rect x="1080" y="90" width="72" height="13" fill="#0A1F44"/>
  <text x="1116" y="100" font-family="Arial, sans-serif" font-size="6" font-weight="bold" fill="#ffffff" text-anchor="middle">ASSET REG.</text>
  <text x="1090" y="113" font-family="Arial, sans-serif" font-size="5.5" fill="#0A1F44">ID     STATUS</text>
  <text x="1090" y="124" font-family="Arial, sans-serif" font-size="5.5" fill="#0A1F44">AHU-01  ✓ OK</text>
  <text x="1090" y="135" font-family="Arial, sans-serif" font-size="5.5" fill="#0A1F44">FCU-01  ✓ OK</text>
  <text x="1090" y="146" font-family="Arial, sans-serif" font-size="5.5" fill="#ef4444">DB-GF   ! SVC</text>
  <text x="1090" y="157" font-family="Arial, sans-serif" font-size="5.5" fill="#0A1F44">MSB-01  ✓ OK</text>
  <text x="1090" y="168" font-family="Arial, sans-serif" font-size="5.5" fill="#0A1F44">ZV-01   ✓ OK</text>
  <text x="1090" y="179" font-family="Arial, sans-serif" font-size="5.5" fill="#0A1F44">P-CWS   ✓ OK</text>
  <text x="1090" y="190" font-family="Arial, sans-serif" font-size="5.5" fill="#d97706">GENSET  ~ PM</text>
  <text x="1090" y="201" font-family="Arial, sans-serif" font-size="5.5" fill="#0A1F44">SP MAIN ✓ OK</text>
  <!-- Service schedule info -->
  <text x="1090" y="220" font-family="Arial, sans-serif" font-size="5.5" fill="#6b7280">Total Assets: 42</text>
  <text x="1090" y="231" font-family="Arial, sans-serif" font-size="5.5" fill="#22a366">OK: 38</text>
  <text x="1090" y="242" font-family="Arial, sans-serif" font-size="5.5" fill="#ef4444">SVC: 2</text>
  <text x="1090" y="253" font-family="Arial, sans-serif" font-size="5.5" fill="#d97706">PM Due: 2</text>
  <!-- Discipline legend strip at bottom -->
  <rect x="802" y="390" width="358" height="35" fill="#f8fafc" stroke="#0A1F44" stroke-width="0.8"/>
  <rect x="802" y="390" width="358" height="10" fill="#0A1F44"/>
  <text x="981" y="398" font-family="Arial, sans-serif" font-size="5.5" font-weight="bold" fill="#ffffff" text-anchor="middle">BUILDING SERVICES DISCIPLINE KEY</text>
  <rect x="812" y="406" width="10" height="8" fill="#c8e0f8" stroke="#4a7fc1" stroke-width="1"/>
  <text x="827" y="413" font-family="Arial, sans-serif" font-size="5.5" fill="#0A1F44">HVAC</text>
  <line x1="860" y1="410" x2="875" y2="410" stroke="#2563eb" stroke-width="3"/>
  <text x="880" y="413" font-family="Arial, sans-serif" font-size="5.5" fill="#0A1F44">Plumbing</text>
  <line x1="920" y1="410" x2="935" y2="410" stroke="#d97706" stroke-width="3"/>
  <text x="940" y="413" font-family="Arial, sans-serif" font-size="5.5" fill="#0A1F44">Electrical</text>
  <line x1="980" y1="410" x2="995" y2="410" stroke="#ef4444" stroke-width="3"/>
  <text x="1000" y="413" font-family="Arial, sans-serif" font-size="5.5" fill="#0A1F44">Fire Protect.</text>
  <line x1="1060" y1="410" x2="1075" y2="410" stroke="#22a366" stroke-width="2.5"/>
  <text x="1080" y="413" font-family="Arial, sans-serif" font-size="5.5" fill="#0A1F44">Return Air</text>
  <line x1="1130" y1="410" x2="1145" y2="410" stroke="#7c3a00" stroke-width="3"/>
  <text x="1148" y="413" font-family="Arial, sans-serif" font-size="5.5" fill="#0A1F44">Sanitary</text>
</svg>
