<svg xmlns="http://www.w3.org/2000/svg" width="800" height="500" viewBox="0 0 800 500">
  <rect width="800" height="500" fill="#f0f4f8"/>
  <rect x="20" y="20" width="760" height="460" fill="#ffffff" stroke="#0A1F44" stroke-width="2"/>
  <rect x="28" y="28" width="744" height="452" fill="none" stroke="#0A1F44" stroke-width="0.5"/>
  <rect x="28" y="432" width="744" height="48" fill="#0A1F44"/>
  <line x1="368" y1="432" x2="368" y2="480" stroke="#4a7fc1" stroke-width="0.5"/>
  <line x1="560" y1="432" x2="560" y2="480" stroke="#4a7fc1" stroke-width="0.5"/>
  <text x="44" y="451" font-family="Arial, sans-serif" font-size="7" fill="#9ab3d4" letter-spacing="1.5">INDUSTRY</text>
  <text x="44" y="463" font-family="Arial, sans-serif" font-size="9" font-weight="bold" fill="#ffffff">REAL ESTATE DEVELOPMENT</text>
  <text x="44" y="474" font-family="Arial, sans-serif" font-size="7.5" fill="#c8d8ea">Geo-Nectar Technologies Pvt. Ltd.</text>
  <text x="374" y="451" font-family="Arial, sans-serif" font-size="7" fill="#9ab3d4" letter-spacing="1.5">DRAWING</text>
  <text x="374" y="464" font-family="Arial, sans-serif" font-size="9" font-weight="bold" fill="#ffffff">RESIDENTIAL ESTATE PLAN</text>
  <text x="566" y="451" font-family="Arial, sans-serif" font-size="7" fill="#9ab3d4" letter-spacing="1.5">SCALE</text>
  <text x="566" y="464" font-family="Arial, sans-serif" font-size="9" font-weight="bold" fill="#ffffff">1:2000</text>
  <text x="700" y="451" font-family="Arial, sans-serif" font-size="7" fill="#9ab3d4" letter-spacing="1.5">DATE</text>
  <text x="700" y="464" font-family="Arial, sans-serif" font-size="9" font-weight="bold" fill="#ffffff">2024</text>
  <text x="55" y="56" font-family="Arial, sans-serif" font-size="6.5" fill="#6b7280">GREENFIELD ESTATE — STAGE 1 &amp; 2  |  TOTAL LOTS: 32  |  AREA: 8.4 ha  |  PLAN OF SUBDIVISION</text>
  <!-- Estate boundary -->
  <rect x="42" y="63" width="600" height="360" fill="#f5f5f0" stroke="#0A1F44" stroke-width="2"/>
  <!-- Stage 2 boundary -->
  <rect x="302" y="63" width="340" height="360" fill="none" stroke="#d97706" stroke-width="1.5" stroke-dasharray="8,4"/>
  <text x="440" y="78" font-family="Arial, sans-serif" font-size="7" fill="#d97706" text-anchor="middle">STAGE 2</text>
  <text x="155" y="78" font-family="Arial, sans-serif" font-size="7" fill="#0A1F44" text-anchor="middle">STAGE 1</text>
  <!-- Internal road network -->
  <!-- Main spine road (horizontal) -->
  <rect x="42" y="215" width="600" height="28" fill="#c8c8c8" stroke="#6b7280" stroke-width="0.8"/>
  <text x="300" y="232" font-family="Arial, sans-serif" font-size="6" fill="#0A1F44" text-anchor="middle">ACACIA BOULEVARD — 16m ROAD RESERVE</text>
  <!-- North-south road (left) -->
  <rect x="175" y="63" width="22" height="152" fill="#c8c8c8" stroke="#6b7280" stroke-width="0.8"/>
  <!-- North-south road (centre) -->
  <rect x="340" y="63" width="22" height="152" fill="#c8c8c8" stroke="#6b7280" stroke-width="0.8"/>
  <!-- North-south road (right) -->
  <rect x="505" y="63" width="22" height="152" fill="#c8c8c8" stroke="#6b7280" stroke-width="0.8"/>
  <!-- Roads (south half) -->
  <rect x="175" y="243" width="22" height="180" fill="#c8c8c8" stroke="#6b7280" stroke-width="0.8"/>
  <rect x="340" y="243" width="22" height="180" fill="#c8c8c8" stroke="#6b7280" stroke-width="0.8"/>
  <rect x="505" y="243" width="22" height="180" fill="#c8c8c8" stroke="#6b7280" stroke-width="0.8"/>
  <!-- Park / open space -->
  <rect x="200" y="265" width="132" height="110" fill="#c8e8b8" stroke="#22a366" stroke-width="1.5"/>
  <text x="266" y="318" font-family="Arial, sans-serif" font-size="7" fill="#22a366" text-anchor="middle">OPEN SPACE</text>
  <text x="266" y="328" font-family="Arial, sans-serif" font-size="6" fill="#22a366" text-anchor="middle">Reserve — 0.85ha</text>
  <!-- Trees in park -->
  <circle cx="230" cy="295" r="8" fill="#4a8c4a" opacity="0.5"/>
  <circle cx="255" cy="310" r="6" fill="#4a8c4a" opacity="0.5"/>
  <circle cx="285" cy="290" r="7" fill="#4a8c4a" opacity="0.5"/>
  <circle cx="305" cy="315" r="9" fill="#4a8c4a" opacity="0.5"/>
  <!-- Stage 1 lots (north, 3 rows × 3 cols left of centre) -->
  <!-- Row 1 north lots 1-4 -->
  <rect x="44" y="65" width="129" height="80" fill="#eef3f8" stroke="#0A1F44" stroke-width="0.8"/>
  <text x="108" y="108" font-family="Arial, sans-serif" font-size="7" fill="#0A1F44" text-anchor="middle">1</text>
  <text x="108" y="118" font-family="Arial, sans-serif" font-size="5.5" fill="#6b7280" text-anchor="middle">450m²</text>
  <rect x="44" y="147" width="129" height="66" fill="#eef3f8" stroke="#0A1F44" stroke-width="0.8"/>
  <text x="108" y="182" font-family="Arial, sans-serif" font-size="7" fill="#0A1F44" text-anchor="middle">2</text>
  <text x="108" y="192" font-family="Arial, sans-serif" font-size="5.5" fill="#6b7280" text-anchor="middle">420m²</text>
  <!-- Column 2 (between road 1 and 2) north -->
  <rect x="199" y="65" width="139" height="80" fill="#eef3f8" stroke="#0A1F44" stroke-width="0.8"/>
  <text x="268" y="108" font-family="Arial, sans-serif" font-size="7" fill="#0A1F44" text-anchor="middle">3</text>
  <text x="268" y="118" font-family="Arial, sans-serif" font-size="5.5" fill="#6b7280" text-anchor="middle">480m²</text>
  <rect x="199" y="147" width="139" height="66" fill="#eef3f8" stroke="#0A1F44" stroke-width="0.8"/>
  <text x="268" y="182" font-family="Arial, sans-serif" font-size="7" fill="#0A1F44" text-anchor="middle">4</text>
  <text x="268" y="192" font-family="Arial, sans-serif" font-size="5.5" fill="#6b7280" text-anchor="middle">455m²</text>
  <!-- Stage 2 lots (north) -->
  <rect x="364" y="65" width="139" height="80" fill="#fff8ec" stroke="#0A1F44" stroke-width="0.8"/>
  <text x="433" y="108" font-family="Arial, sans-serif" font-size="7" fill="#0A1F44" text-anchor="middle">5</text>
  <text x="433" y="118" font-family="Arial, sans-serif" font-size="5.5" fill="#6b7280" text-anchor="middle">500m²</text>
  <rect x="364" y="147" width="139" height="66" fill="#fff8ec" stroke="#0A1F44" stroke-width="0.8"/>
  <text x="433" y="182" font-family="Arial, sans-serif" font-size="7" fill="#0A1F44" text-anchor="middle">6</text>
  <text x="433" y="192" font-family="Arial, sans-serif" font-size="5.5" fill="#6b7280" text-anchor="middle">470m²</text>
  <rect x="529" y="65" width="111" height="80" fill="#fff8ec" stroke="#0A1F44" stroke-width="0.8"/>
  <text x="584" y="108" font-family="Arial, sans-serif" font-size="7" fill="#0A1F44" text-anchor="middle">7</text>
  <text x="584" y="118" font-family="Arial, sans-serif" font-size="5.5" fill="#6b7280" text-anchor="middle">430m²</text>
  <rect x="529" y="147" width="111" height="66" fill="#fff8ec" stroke="#0A1F44" stroke-width="0.8"/>
  <text x="584" y="182" font-family="Arial, sans-serif" font-size="7" fill="#0A1F44" text-anchor="middle">8</text>
  <text x="584" y="192" font-family="Arial, sans-serif" font-size="5.5" fill="#6b7280" text-anchor="middle">410m²</text>
  <!-- South lots Stage 1 (left col) -->
  <rect x="44" y="245" width="129" height="88" fill="#eef3f8" stroke="#0A1F44" stroke-width="0.8"/>
  <text x="108" y="292" font-family="Arial, sans-serif" font-size="7" fill="#0A1F44" text-anchor="middle">9</text>
  <text x="108" y="302" font-family="Arial, sans-serif" font-size="5.5" fill="#6b7280" text-anchor="middle">490m²</text>
  <rect x="44" y="335" width="129" height="88" fill="#eef3f8" stroke="#0A1F44" stroke-width="0.8"/>
  <text x="108" y="382" font-family="Arial, sans-serif" font-size="7" fill="#0A1F44" text-anchor="middle">10</text>
  <text x="108" y="392" font-family="Arial, sans-serif" font-size="5.5" fill="#6b7280" text-anchor="middle">460m²</text>
  <!-- South lots Stage 2 (right cols) -->
  <rect x="364" y="245" width="139" height="88" fill="#fff8ec" stroke="#0A1F44" stroke-width="0.8"/>
  <text x="433" y="292" font-family="Arial, sans-serif" font-size="7" fill="#0A1F44" text-anchor="middle">11</text>
  <text x="433" y="302" font-family="Arial, sans-serif" font-size="5.5" fill="#6b7280" text-anchor="middle">520m²</text>
  <rect x="364" y="335" width="139" height="88" fill="#fff8ec" stroke="#0A1F44" stroke-width="0.8"/>
  <text x="433" y="382" font-family="Arial, sans-serif" font-size="7" fill="#0A1F44" text-anchor="middle">12</text>
  <text x="433" y="392" font-family="Arial, sans-serif" font-size="5.5" fill="#6b7280" text-anchor="middle">505m²</text>
  <rect x="529" y="245" width="111" height="88" fill="#fff8ec" stroke="#0A1F44" stroke-width="0.8"/>
  <text x="584" y="292" font-family="Arial, sans-serif" font-size="7" fill="#0A1F44" text-anchor="middle">13</text>
  <text x="584" y="302" font-family="Arial, sans-serif" font-size="5.5" fill="#6b7280" text-anchor="middle">440m²</text>
  <rect x="529" y="335" width="111" height="88" fill="#fff8ec" stroke="#0A1F44" stroke-width="0.8"/>
  <text x="584" y="382" font-family="Arial, sans-serif" font-size="7" fill="#0A1F44" text-anchor="middle">14</text>
  <text x="584" y="392" font-family="Arial, sans-serif" font-size="5.5" fill="#6b7280" text-anchor="middle">425m²</text>
  <!-- North arrow -->
  <g transform="translate(630,95)">
    <circle cx="0" cy="0" r="18" fill="none" stroke="#0A1F44" stroke-width="1.5"/>
    <polygon points="0,-14 -5,7 0,2 5,7" fill="#0A1F44"/>
    <line x1="0" y1="-14" x2="0" y2="14" stroke="#0A1F44" stroke-width="1"/>
    <text x="0" y="-18" font-family="Arial, sans-serif" font-size="9" font-weight="bold" fill="#0A1F44" text-anchor="middle">N</text>
  </g>
  <!-- Legend panel (right) -->
  <rect x="650" y="145" width="108" height="160" fill="#f8fafc" stroke="#0A1F44" stroke-width="1"/>
  <rect x="650" y="145" width="108" height="14" fill="#0A1F44"/>
  <text x="704" y="156" font-family="Arial, sans-serif" font-size="7" font-weight="bold" fill="#ffffff" text-anchor="middle">LEGEND</text>
  <rect x="658" y="166" width="14" height="10" fill="#eef3f8" stroke="#0A1F44" stroke-width="0.8"/>
  <text x="678" y="175" font-family="Arial, sans-serif" font-size="6.5" fill="#0A1F44">Stage 1 Lot</text>
  <rect x="658" y="183" width="14" height="10" fill="#fff8ec" stroke="#0A1F44" stroke-width="0.8"/>
  <text x="678" y="192" font-family="Arial, sans-serif" font-size="6.5" fill="#0A1F44">Stage 2 Lot</text>
  <rect x="658" y="200" width="14" height="10" fill="#c8e8b8" stroke="#22a366" stroke-width="1"/>
  <text x="678" y="209" font-family="Arial, sans-serif" font-size="6.5" fill="#0A1F44">Open Space</text>
  <rect x="658" y="217" width="14" height="10" fill="#c8c8c8" stroke="#6b7280" stroke-width="0.8"/>
  <text x="678" y="226" font-family="Arial, sans-serif" font-size="6.5" fill="#0A1F44">Road Reserve</text>
  <line x1="658" y1="238" x2="672" y2="238" stroke="#d97706" stroke-width="1.5" stroke-dasharray="5,3"/>
  <text x="678" y="242" font-family="Arial, sans-serif" font-size="6.5" fill="#0A1F44">Stage Boundary</text>
  <text x="658" y="260" font-family="Arial, sans-serif" font-size="6" fill="#6b7280">Total Lots: 14 (shown)</text>
  <text x="658" y="270" font-family="Arial, sans-serif" font-size="6" fill="#6b7280">Min. Lot: 400m²</text>
  <text x="658" y="280" font-family="Arial, sans-serif" font-size="6" fill="#6b7280">Avg. Lot: 462m²</text>
  <text x="658" y="290" font-family="Arial, sans-serif" font-size="6" fill="#6b7280">Estate Area: 8.4 ha</text>
  <!-- Scale bar -->
  <g transform="translate(650,325)">
    <rect x="0" y="0" width="50" height="6" fill="#0A1F44"/>
    <rect x="50" y="0" width="50" height="6" fill="white" stroke="#0A1F44" stroke-width="0.5"/>
    <text x="0" y="16" font-family="Arial, sans-serif" font-size="6" fill="#0A1F44">0</text>
    <text x="50" y="16" font-family="Arial, sans-serif" font-size="6" fill="#0A1F44" text-anchor="middle">50m</text>
    <text x="100" y="16" font-family="Arial, sans-serif" font-size="6" fill="#0A1F44" text-anchor="end">100m</text>
  </g>
</svg>
