<svg xmlns="http://www.w3.org/2000/svg" width="800" height="500" viewBox="0 0 800 500">
  <rect width="800" height="500" fill="#f0f4f8"/>
  <rect x="20" y="20" width="760" height="460" fill="#ffffff" stroke="#0A1F44" stroke-width="2"/>
  <rect x="28" y="28" width="744" height="452" fill="none" stroke="#0A1F44" stroke-width="0.5"/>
  <rect x="28" y="432" width="744" height="48" fill="#0A1F44"/>
  <line x1="368" y1="432" x2="368" y2="480" stroke="#4a7fc1" stroke-width="0.5"/>
  <line x1="560" y1="432" x2="560" y2="480" stroke="#4a7fc1" stroke-width="0.5"/>
  <text x="44" y="451" font-family="Arial, sans-serif" font-size="7" fill="#9ab3d4" letter-spacing="1.5">INDUSTRY</text>
  <text x="44" y="463" font-family="Arial, sans-serif" font-size="9" font-weight="bold" fill="#ffffff">LAND SURVEYING</text>
  <text x="44" y="474" font-family="Arial, sans-serif" font-size="7.5" fill="#c8d8ea">Geo-Nectar Technologies Pvt. Ltd.</text>
  <text x="374" y="451" font-family="Arial, sans-serif" font-size="7" fill="#9ab3d4" letter-spacing="1.5">DRAWING</text>
  <text x="374" y="464" font-family="Arial, sans-serif" font-size="9" font-weight="bold" fill="#ffffff">CONTROL TRAVERSE NETWORK</text>
  <text x="566" y="451" font-family="Arial, sans-serif" font-size="7" fill="#9ab3d4" letter-spacing="1.5">DATUM</text>
  <text x="566" y="464" font-family="Arial, sans-serif" font-size="9" font-weight="bold" fill="#ffffff">GDA2020 / AHD71</text>
  <text x="700" y="451" font-family="Arial, sans-serif" font-size="7" fill="#9ab3d4" letter-spacing="1.5">DATE</text>
  <text x="700" y="464" font-family="Arial, sans-serif" font-size="9" font-weight="bold" fill="#ffffff">2024</text>
  <text x="55" y="56" font-family="Arial, sans-serif" font-size="6.5" fill="#6b7280">CLOSED TRAVERSE — ACCURACY CLASS 'C'  |  MGA2020 ZONE 55  |  INSTRUMENT: TOTAL STATION 1"</text>
  <!-- Survey grid -->
  <g stroke="#c8d8ea" stroke-width="0.5" opacity="0.5">
    <line x1="42" y1="120" x2="632" y2="120"/>
    <line x1="42" y1="210" x2="632" y2="210"/>
    <line x1="42" y1="300" x2="632" y2="300"/>
    <line x1="42" y1="390" x2="632" y2="390"/>
    <line x1="140" y1="63" x2="140" y2="424"/>
    <line x1="240" y1="63" x2="240" y2="424"/>
    <line x1="340" y1="63" x2="340" y2="424"/>
    <line x1="440" y1="63" x2="440" y2="424"/>
    <line x1="540" y1="63" x2="540" y2="424"/>
  </g>
  <!-- Drawing boundary -->
  <rect x="42" y="63" width="590" height="360" fill="#f8fafc" stroke="#9ab3d4" stroke-width="0.5"/>
  <!-- Terrain outline (light) -->
  <polygon points="85,390 175,100 390,80 560,130 610,380 85,390" fill="none" stroke="#9ab3d4" stroke-width="1" stroke-dasharray="6,3" opacity="0.6"/>
  <!-- Traverse stations and lines -->
  <!-- Station A (bottom left) -->
  <polygon points="110,355 103,370 117,370" fill="#f8fafc" stroke="#0A1F44" stroke-width="1.5"/>
  <circle cx="110" cy="370" r="3.5" fill="#0A1F44"/>
  <text x="120" y="366" font-family="Arial, sans-serif" font-size="7.5" font-weight="bold" fill="#0A1F44">A</text>
  <text x="120" y="375" font-family="Arial, sans-serif" font-size="5.5" fill="#6b7280">CP-001</text>
  <!-- Station B (upper left) -->
  <polygon points="180,110 173,125 187,125" fill="#f8fafc" stroke="#0A1F44" stroke-width="1.5"/>
  <circle cx="180" cy="125" r="3.5" fill="#0A1F44"/>
  <text x="190" y="117" font-family="Arial, sans-serif" font-size="7.5" font-weight="bold" fill="#0A1F44">B</text>
  <text x="190" y="126" font-family="Arial, sans-serif" font-size="5.5" fill="#6b7280">CP-002</text>
  <!-- Station C (top centre) -->
  <polygon points="335,88 328,103 342,103" fill="#f8fafc" stroke="#0A1F44" stroke-width="1.5"/>
  <circle cx="335" cy="103" r="3.5" fill="#0A1F44"/>
  <text x="345" y="95" font-family="Arial, sans-serif" font-size="7.5" font-weight="bold" fill="#0A1F44">C</text>
  <text x="345" y="104" font-family="Arial, sans-serif" font-size="5.5" fill="#6b7280">CP-003</text>
  <!-- Station D (upper right) -->
  <polygon points="500,140 493,155 507,155" fill="#f8fafc" stroke="#0A1F44" stroke-width="1.5"/>
  <circle cx="500" cy="155" r="3.5" fill="#0A1F44"/>
  <text x="510" y="147" font-family="Arial, sans-serif" font-size="7.5" font-weight="bold" fill="#0A1F44">D</text>
  <text x="510" y="156" font-family="Arial, sans-serif" font-size="5.5" fill="#6b7280">CP-004</text>
  <!-- Station E (right) -->
  <polygon points="575,330 568,345 582,345" fill="#f8fafc" stroke="#0A1F44" stroke-width="1.5"/>
  <circle cx="575" cy="345" r="3.5" fill="#0A1F44"/>
  <text x="585" y="337" font-family="Arial, sans-serif" font-size="7.5" font-weight="bold" fill="#0A1F44">E</text>
  <text x="585" y="346" font-family="Arial, sans-serif" font-size="5.5" fill="#6b7280">CP-005</text>
  <!-- Station F (bottom centre) -->
  <polygon points="360,395 353,410 367,410" fill="#f8fafc" stroke="#0A1F44" stroke-width="1.5"/>
  <circle cx="360" cy="410" r="3.5" fill="#0A1F44"/>
  <text x="370" y="402" font-family="Arial, sans-serif" font-size="7.5" font-weight="bold" fill="#0A1F44">F</text>
  <text x="370" y="411" font-family="Arial, sans-serif" font-size="5.5" fill="#6b7280">CP-006</text>
  <!-- Traverse lines -->
  <g stroke="#4a7fc1" stroke-width="2">
    <line x1="110" y1="355" x2="180" y2="125"/>
    <line x1="180" y1="125" x2="335" y2="103"/>
    <line x1="335" y1="103" x2="500" y2="155"/>
    <line x1="500" y1="155" x2="575" y2="345"/>
    <line x1="575" y1="345" x2="360" y2="410"/>
    <line x1="360" y1="410" x2="110" y2="370"/>
  </g>
  <!-- Check legs -->
  <line x1="180" y1="125" x2="500" y2="155" stroke="#d97706" stroke-width="1" stroke-dasharray="6,3"/>
  <line x1="335" y1="103" x2="575" y2="345" stroke="#d97706" stroke-width="1" stroke-dasharray="6,3"/>
  <!-- Bearing labels -->
  <text x="130" y="235" font-family="Arial, sans-serif" font-size="5.5" fill="#4a7fc1" transform="rotate(-75,130,235)">B 14°22'18"  d=239.680m</text>
  <text x="250" y="107" font-family="Arial, sans-serif" font-size="5.5" fill="#4a7fc1">B 81°08'45"  d=158.320m</text>
  <text x="415" y="127" font-family="Arial, sans-serif" font-size="5.5" fill="#4a7fc1">B 101°44'20"  d=172.540m</text>
  <text x="548" y="255" font-family="Arial, sans-serif" font-size="5.5" fill="#4a7fc1" transform="rotate(80,548,255)">B 169°30'10"  d=196.220m</text>
  <text x="445" y="387" font-family="Arial, sans-serif" font-size="5.5" fill="#4a7fc1">B 228°12'35"  d=228.100m</text>
  <text x="215" y="399" font-family="Arial, sans-serif" font-size="5.5" fill="#4a7fc1">B 267°55'50"  d=252.440m</text>
  <!-- GNSS base -->
  <g transform="translate(380,250)">
    <circle cx="0" cy="0" r="8" fill="none" stroke="#ef4444" stroke-width="1.5"/>
    <line x1="0" y1="-12" x2="0" y2="12" stroke="#ef4444" stroke-width="1.2"/>
    <line x1="-12" y1="0" x2="12" y2="0" stroke="#ef4444" stroke-width="1.2"/>
    <line x1="-8" y1="-8" x2="8" y2="8" stroke="#ef4444" stroke-width="0.8"/>
    <line x1="8" y1="-8" x2="-8" y2="8" stroke="#ef4444" stroke-width="0.8"/>
  </g>
  <text x="394" y="247" font-family="Arial, sans-serif" font-size="6" fill="#ef4444">GNSS BASE</text>
  <text x="394" y="255" font-family="Arial, sans-serif" font-size="5.5" fill="#6b7280">REF: NGS CORS</text>
  <!-- North arrow -->
  <g transform="translate(590,105)">
    <circle cx="0" cy="0" r="18" fill="none" stroke="#0A1F44" stroke-width="1.5"/>
    <polygon points="0,-14 -5,7 0,2 5,7" fill="#0A1F44"/>
    <line x1="0" y1="-14" x2="0" y2="14" stroke="#0A1F44" stroke-width="1"/>
    <text x="0" y="-18" font-family="Arial, sans-serif" font-size="9" font-weight="bold" fill="#0A1F44" text-anchor="middle">N</text>
  </g>
  <!-- Coordinate table (right panel) -->
  <rect x="638" y="63" width="118" height="210" fill="#f8fafc" stroke="#0A1F44" stroke-width="1"/>
  <rect x="638" y="63" width="118" height="14" fill="#0A1F44"/>
  <text x="697" y="74" font-family="Arial, sans-serif" font-size="7" font-weight="bold" fill="#ffffff" text-anchor="middle">COORDINATES (GDA)</text>
  <rect x="638" y="77" width="118" height="12" fill="#c8d8ea"/>
  <text x="648" y="87" font-family="Arial, sans-serif" font-size="6" font-weight="bold" fill="#0A1F44">STN  EASTING      NORTHING</text>
  <text x="648" y="100" font-family="Arial, sans-serif" font-size="5.5" fill="#0A1F44">A    321,450.25  6,842,110.40</text>
  <text x="648" y="112" font-family="Arial, sans-serif" font-size="5.5" fill="#0A1F44">B    321,314.85  6,842,348.10</text>
  <text x="648" y="124" font-family="Arial, sans-serif" font-size="5.5" fill="#0A1F44">C    321,458.70  6,842,371.65</text>
  <text x="648" y="136" font-family="Arial, sans-serif" font-size="5.5" fill="#0A1F44">D    321,621.90  6,842,326.80</text>
  <text x="648" y="148" font-family="Arial, sans-serif" font-size="5.5" fill="#0A1F44">E    321,692.15  6,842,135.25</text>
  <text x="648" y="160" font-family="Arial, sans-serif" font-size="5.5" fill="#0A1F44">F    321,508.40  6,842,095.50</text>
  <!-- Closure summary -->
  <rect x="638" y="173" width="118" height="14" fill="#0A1F44"/>
  <text x="697" y="184" font-family="Arial, sans-serif" font-size="6.5" font-weight="bold" fill="#ffffff" text-anchor="middle">CLOSURE SUMMARY</text>
  <text x="648" y="199" font-family="Arial, sans-serif" font-size="6" fill="#0A1F44">Misc. ΔE: +0.005m</text>
  <text x="648" y="210" font-family="Arial, sans-serif" font-size="6" fill="#0A1F44">Misc. ΔN: -0.008m</text>
  <text x="648" y="221" font-family="Arial, sans-serif" font-size="6" fill="#0A1F44">Lin. Error: 1:110,500</text>
  <text x="648" y="232" font-family="Arial, sans-serif" font-size="6" fill="#0A1F44">Ang. Error: 00°00'03"</text>
  <text x="648" y="246" font-family="Arial, sans-serif" font-size="6.5" fill="#22a366" font-weight="bold">PASS — Class C</text>
  <text x="648" y="258" font-family="Arial, sans-serif" font-size="5.5" fill="#6b7280">Perimeter: 1,247.30m</text>
  <text x="648" y="268" font-family="Arial, sans-serif" font-size="5.5" fill="#6b7280">Area: 98,450 m²</text>
  <!-- Legend -->
  <rect x="638" y="290" width="118" height="135" fill="#f8fafc" stroke="#0A1F44" stroke-width="1"/>
  <rect x="638" y="290" width="118" height="14" fill="#0A1F44"/>
  <text x="697" y="301" font-family="Arial, sans-serif" font-size="6.5" font-weight="bold" fill="#ffffff" text-anchor="middle">LEGEND</text>
  <polygon points="648,315 643,326 653,326" fill="#f8fafc" stroke="#0A1F44" stroke-width="1.2"/>
  <circle cx="648" cy="326" r="2.5" fill="#0A1F44"/>
  <text x="660" y="324" font-family="Arial, sans-serif" font-size="6.5" fill="#0A1F44">Control Station</text>
  <line x1="642" y1="339" x2="658" y2="339" stroke="#4a7fc1" stroke-width="2"/>
  <text x="664" y="343" font-family="Arial, sans-serif" font-size="6.5" fill="#0A1F44">Traverse Leg</text>
  <line x1="642" y1="355" x2="658" y2="355" stroke="#d97706" stroke-width="1" stroke-dasharray="5,3"/>
  <text x="664" y="359" font-family="Arial, sans-serif" font-size="6.5" fill="#0A1F44">Check Leg</text>
  <circle cx="648" cy="372" r="5" fill="none" stroke="#ef4444" stroke-width="1.2"/>
  <text x="660" y="376" font-family="Arial, sans-serif" font-size="6.5" fill="#0A1F44">GNSS Base</text>
  <line x1="642" y1="390" x2="658" y2="390" stroke="#9ab3d4" stroke-width="1" stroke-dasharray="5,3"/>
  <text x="664" y="394" font-family="Arial, sans-serif" font-size="6.5" fill="#0A1F44">Prop. Boundary</text>
  <text x="648" y="410" font-family="Arial, sans-serif" font-size="5.5" fill="#6b7280">Instruments: TS &amp; GNSS</text>
  <text x="648" y="420" font-family="Arial, sans-serif" font-size="5.5" fill="#6b7280">Method: Bowditch Adj.</text>
</svg>
