<svg xmlns="http://www.w3.org/2000/svg" width="800" height="500" viewBox="0 0 800 500">
  <rect width="800" height="500" fill="#f0f4f8"/>
  <rect x="20" y="20" width="760" height="460" fill="#ffffff" stroke="#0A1F44" stroke-width="2"/>
  <rect x="28" y="28" width="744" height="452" fill="none" stroke="#0A1F44" stroke-width="0.5"/>
  <rect x="28" y="432" width="744" height="48" fill="#0A1F44"/>
  <line x1="368" y1="432" x2="368" y2="480" stroke="#4a7fc1" stroke-width="0.5"/>
  <line x1="560" y1="432" x2="560" y2="480" stroke="#4a7fc1" stroke-width="0.5"/>
  <text x="44" y="451" font-family="Arial, sans-serif" font-size="7" fill="#9ab3d4" letter-spacing="1.5">PROJECT</text>
  <text x="44" y="463" font-family="Arial, sans-serif" font-size="9" font-weight="bold" fill="#ffffff">BIM MODELLING SERVICES</text>
  <text x="44" y="474" font-family="Arial, sans-serif" font-size="7.5" fill="#c8d8ea">Geo-Nectar Technologies Pvt. Ltd.</text>
  <text x="374" y="451" font-family="Arial, sans-serif" font-size="7" fill="#9ab3d4" letter-spacing="1.5">SOFTWARE</text>
  <text x="374" y="464" font-family="Arial, sans-serif" font-size="9" font-weight="bold" fill="#ffffff">Revit 2024 / IFC</text>
  <text x="566" y="451" font-family="Arial, sans-serif" font-size="7" fill="#9ab3d4" letter-spacing="1.5">LOD</text>
  <text x="566" y="464" font-family="Arial, sans-serif" font-size="9" font-weight="bold" fill="#ffffff">100 — 500</text>
  <text x="650" y="451" font-family="Arial, sans-serif" font-size="7" fill="#9ab3d4" letter-spacing="1.5">DATE</text>
  <text x="650" y="464" font-family="Arial, sans-serif" font-size="9" font-weight="bold" fill="#ffffff">2024</text>
  <!-- Grid -->
  <g stroke="#c8d8ea" stroke-width="0.3" stroke-dasharray="4,4" opacity="0.4">
    <line x1="40" y1="150" x2="760" y2="150"/>
    <line x1="40" y1="280" x2="760" y2="280"/>
    <line x1="250" y1="40" x2="250" y2="424"/>
    <line x1="500" y1="40" x2="500" y2="424"/>
  </g>
  <!-- LOD scale (left panel) -->
  <rect x="38" y="42" width="200" height="380" fill="#f8fafc" stroke="#0A1F44" stroke-width="1"/>
  <rect x="38" y="42" width="200" height="18" fill="#0A1F44"/>
  <text x="138" y="55" font-family="Arial, sans-serif" font-size="8" font-weight="bold" fill="#ffffff" text-anchor="middle" letter-spacing="1">LOD SPECIFICATION</text>
  <!-- LOD 100 -->
  <rect x="45" y="68" width="186" height="46" fill="#e8eef5" stroke="#9ab3d4" stroke-width="0.8"/>
  <rect x="45" y="68" width="50" height="46" fill="#9ab3d4"/>
  <text x="70" y="89" font-family="Arial, sans-serif" font-size="12" font-weight="bold" fill="#ffffff" text-anchor="middle">100</text>
  <text x="70" y="104" font-family="Arial, sans-serif" font-size="6" fill="#ffffff" text-anchor="middle">Conceptual</text>
  <text x="165" y="84" font-family="Arial, sans-serif" font-size="6.5" fill="#4b5563">Massing, volume</text>
  <text x="165" y="96" font-family="Arial, sans-serif" font-size="6.5" fill="#4b5563">overall form only</text>
  <text x="165" y="108" font-family="Arial, sans-serif" font-size="6.5" fill="#9ab3d4">Area estimates</text>
  <!-- LOD 200 -->
  <rect x="45" y="118" width="186" height="46" fill="#e8eef5" stroke="#9ab3d4" stroke-width="0.8"/>
  <rect x="45" y="118" width="50" height="46" fill="#c8d8ea"/>
  <text x="70" y="139" font-family="Arial, sans-serif" font-size="12" font-weight="bold" fill="#0A1F44" text-anchor="middle">200</text>
  <text x="70" y="154" font-family="Arial, sans-serif" font-size="6" fill="#0A1F44" text-anchor="middle">Design Dev.</text>
  <text x="165" y="134" font-family="Arial, sans-serif" font-size="6.5" fill="#4b5563">Generic systems,</text>
  <text x="165" y="146" font-family="Arial, sans-serif" font-size="6.5" fill="#4b5563">approximate size</text>
  <text x="165" y="158" font-family="Arial, sans-serif" font-size="6.5" fill="#9ab3d4">Preliminary cost</text>
  <!-- LOD 300 -->
  <rect x="45" y="168" width="186" height="46" fill="#dde8f5" stroke="#4a7fc1" stroke-width="1.2"/>
  <rect x="45" y="168" width="50" height="46" fill="#4a7fc1"/>
  <text x="70" y="189" font-family="Arial, sans-serif" font-size="12" font-weight="bold" fill="#ffffff" text-anchor="middle">300</text>
  <text x="70" y="204" font-family="Arial, sans-serif" font-size="6" fill="#ffffff" text-anchor="middle">Construction</text>
  <text x="165" y="184" font-family="Arial, sans-serif" font-size="6.5" fill="#0A1F44">Specific assemblies,</text>
  <text x="165" y="196" font-family="Arial, sans-serif" font-size="6.5" fill="#0A1F44">exact dimensions</text>
  <text x="165" y="208" font-family="Arial, sans-serif" font-size="6.5" fill="#4a7fc1">Qty takeoffs</text>
  <!-- LOD 400 -->
  <rect x="45" y="218" width="186" height="46" fill="#dde8f5" stroke="#4a7fc1" stroke-width="1.2"/>
  <rect x="45" y="218" width="50" height="46" fill="#0A1F44"/>
  <text x="70" y="239" font-family="Arial, sans-serif" font-size="12" font-weight="bold" fill="#ffffff" text-anchor="middle">400</text>
  <text x="70" y="254" font-family="Arial, sans-serif" font-size="6" fill="#ffffff" text-anchor="middle">Fabrication</text>
  <text x="165" y="234" font-family="Arial, sans-serif" font-size="6.5" fill="#0A1F44">Fabrication details,</text>
  <text x="165" y="246" font-family="Arial, sans-serif" font-size="6.5" fill="#0A1F44">installation data</text>
  <text x="165" y="258" font-family="Arial, sans-serif" font-size="6.5" fill="#4a7fc1">Shop drawings</text>
  <!-- LOD 500 -->
  <rect x="45" y="268" width="186" height="46" fill="#e8f0d8" stroke="#22a366" stroke-width="1.5"/>
  <rect x="45" y="268" width="50" height="46" fill="#22a366"/>
  <text x="70" y="289" font-family="Arial, sans-serif" font-size="12" font-weight="bold" fill="#ffffff" text-anchor="middle">500</text>
  <text x="70" y="304" font-family="Arial, sans-serif" font-size="6" fill="#ffffff" text-anchor="middle">As-Built</text>
  <text x="165" y="284" font-family="Arial, sans-serif" font-size="6.5" fill="#0A1F44">Verified in-field,</text>
  <text x="165" y="296" font-family="Arial, sans-serif" font-size="6.5" fill="#0A1F44">as-constructed</text>
  <text x="165" y="308" font-family="Arial, sans-serif" font-size="6.5" fill="#22a366">FM delivery</text>
  <!-- Discipline breakdown -->
  <rect x="45" y="325" width="186" height="88" fill="#f0f4f8" stroke="#9ab3d4" stroke-width="0.8"/>
  <text x="55" y="340" font-family="Arial, sans-serif" font-size="6.5" font-weight="bold" fill="#0A1F44">DISCIPLINES MODELLED</text>
  <text x="55" y="354" font-family="Arial, sans-serif" font-size="6.5" fill="#4a7fc1">● Architecture (ARCH)</text>
  <text x="55" y="367" font-family="Arial, sans-serif" font-size="6.5" fill="#22a366">● Structure (STR)</text>
  <text x="55" y="380" font-family="Arial, sans-serif" font-size="6.5" fill="#d97706">● HVAC / Mechanical (MECH)</text>
  <text x="55" y="393" font-family="Arial, sans-serif" font-size="6.5" fill="#7c3aed">● Electrical (ELEC)</text>
  <text x="55" y="406" font-family="Arial, sans-serif" font-size="6.5" fill="#6b7280">● Plumbing / Fire (PLMB)</text>
  <!-- Main 3D model area (center + right) -->
  <!-- Isometric multi-storey building with color-coded systems -->
  <!-- Ground/Base -->
  <polygon points="280,410 480,410 580,355 380,355" fill="#dde6f0" stroke="#0A1F44" stroke-width="1.2"/>
  <!-- Ground floor walls — front (ARCH blue) -->
  <polygon points="280,410 380,355 380,295 280,350" fill="#c8dff0" stroke="#4a7fc1" stroke-width="1.5" opacity="0.9"/>
  <!-- Ground floor walls — right (ARCH) -->
  <polygon points="380,355 580,355 580,295 380,295" fill="#dde8f5" stroke="#4a7fc1" stroke-width="1.5" opacity="0.9"/>
  <!-- Level 1 floor slab (STRUCT green outline) -->
  <polygon points="280,350 380,295 580,295 480,350" fill="#e0f0e8" stroke="#22a366" stroke-width="2"/>
  <!-- Level 1 walls front -->
  <polygon points="280,350 380,295 380,235 280,290" fill="#c8dff0" stroke="#4a7fc1" stroke-width="1.5" opacity="0.85"/>
  <!-- Level 1 walls right -->
  <polygon points="380,295 580,295 580,235 380,235" fill="#dde8f5" stroke="#4a7fc1" stroke-width="1.5" opacity="0.85"/>
  <!-- Level 2 floor slab (STRUCT) -->
  <polygon points="280,290 380,235 580,235 480,290" fill="#e0f0e8" stroke="#22a366" stroke-width="2"/>
  <!-- Roof (ARCH blue dark) -->
  <polygon points="280,290 380,235 580,235 480,290" fill="#4a7fc1" stroke="#0A1F44" stroke-width="1.5" opacity="0.7"/>
  <!-- MEP systems on ground level (right face, orange for ducts) -->
  <rect x="400" y="305" width="60" height="12" fill="#fbbf24" stroke="#d97706" stroke-width="1" opacity="0.9"/>
  <rect x="470" y="310" width="60" height="12" fill="#fbbf24" stroke="#d97706" stroke-width="1" opacity="0.9"/>
  <text x="430" y="316" font-family="Arial, sans-serif" font-size="6" fill="#0A1F44" text-anchor="middle">SA DUCT</text>
  <!-- Structural columns (green) -->
  <rect x="376" y="235" width="8" height="175" fill="#22a366" stroke="#22a366" stroke-width="0.5" opacity="0.8"/>
  <rect x="576" y="235" width="8" height="120" fill="#22a366" stroke="#22a366" stroke-width="0.5" opacity="0.8"/>
  <rect x="278" y="290" width="8" height="120" fill="#22a366" stroke="#22a366" stroke-width="0.5" opacity="0.8"/>
  <!-- Electrical conduit (purple) -->
  <line x1="295" y1="300" x2="370" y2="265" stroke="#7c3aed" stroke-width="3" opacity="0.8"/>
  <line x1="393" y1="302" x2="575" y2="255" stroke="#7c3aed" stroke-width="3" opacity="0.8"/>
  <!-- Discipline labels -->
  <text x="350" y="380" font-family="Arial, sans-serif" font-size="6.5" fill="#4a7fc1" font-style="italic">ARCH</text>
  <text x="420" y="340" font-family="Arial, sans-serif" font-size="6.5" fill="#22a366" font-style="italic">STR</text>
  <text x="430" y="320" font-family="Arial, sans-serif" font-size="6.5" fill="#d97706" font-style="italic">MEP</text>
  <text x="490" y="270" font-family="Arial, sans-serif" font-size="6.5" fill="#7c3aed" font-style="italic">ELEC</text>
  <!-- Info box right -->
  <rect x="600" y="55" width="150" height="200" fill="#f8fafc" stroke="#0A1F44" stroke-width="1"/>
  <rect x="600" y="55" width="150" height="16" fill="#0A1F44"/>
  <text x="675" y="67" font-family="Arial, sans-serif" font-size="7" font-weight="bold" fill="#ffffff" text-anchor="middle">MODEL STATS</text>
  <text x="610" y="83" font-family="Arial, sans-serif" font-size="6.5" fill="#0A1F44">Project: Mixed-Use</text>
  <text x="610" y="96" font-family="Arial, sans-serif" font-size="6.5" fill="#0A1F44">Storeys: G+5</text>
  <text x="610" y="109" font-family="Arial, sans-serif" font-size="6.5" fill="#0A1F44">GFA: 12,500 m²</text>
  <text x="610" y="122" font-family="Arial, sans-serif" font-size="6.5" fill="#0A1F44">Elements: 24,800+</text>
  <text x="610" y="135" font-family="Arial, sans-serif" font-size="6.5" fill="#4a7fc1">ARCH: 8,200</text>
  <text x="610" y="148" font-family="Arial, sans-serif" font-size="6.5" fill="#22a366">STR: 4,100</text>
  <text x="610" y="161" font-family="Arial, sans-serif" font-size="6.5" fill="#d97706">HVAC: 7,400</text>
  <text x="610" y="174" font-family="Arial, sans-serif" font-size="6.5" fill="#7c3aed">ELEC: 3,200</text>
  <text x="610" y="187" font-family="Arial, sans-serif" font-size="6.5" fill="#6b7280">PLMB: 1,900</text>
  <text x="610" y="200" font-family="Arial, sans-serif" font-size="6.5" fill="#0A1F44">Formats: .rvt .ifc</text>
  <text x="610" y="213" font-family="Arial, sans-serif" font-size="6.5" fill="#0A1F44">BIM Std: ISO 19650</text>
  <text x="610" y="226" font-family="Arial, sans-serif" font-size="6.5" fill="#0A1F44">CDE: BIM 360</text>
  <text x="610" y="239" font-family="Arial, sans-serif" font-size="6.5" fill="#0A1F44">Clash-free: Yes ✓</text>
</svg>
