<svg xmlns="http://www.w3.org/2000/svg" width="800" height="500" viewBox="0 0 800 500">
  <rect width="800" height="500" fill="#f0f4f8"/>
  <rect x="20" y="20" width="760" height="460" fill="#ffffff" stroke="#0A1F44" stroke-width="2"/>
  <rect x="28" y="28" width="744" height="452" fill="none" stroke="#0A1F44" stroke-width="0.5"/>
  <rect x="28" y="432" width="744" height="48" fill="#0A1F44"/>
  <line x1="368" y1="432" x2="368" y2="480" stroke="#4a7fc1" stroke-width="0.5"/>
  <line x1="560" y1="432" x2="560" y2="480" stroke="#4a7fc1" stroke-width="0.5"/>
  <text x="44" y="451" font-family="Arial, sans-serif" font-size="7" fill="#9ab3d4" letter-spacing="1.5">PROJECT</text>
  <text x="44" y="463" font-family="Arial, sans-serif" font-size="9" font-weight="bold" fill="#ffffff">FIRE PROTECTION DRAFTING</text>
  <text x="44" y="474" font-family="Arial, sans-serif" font-size="7.5" fill="#c8d8ea">Geo-Nectar Technologies Pvt. Ltd.</text>
  <text x="374" y="451" font-family="Arial, sans-serif" font-size="7" fill="#9ab3d4" letter-spacing="1.5">DRAWING</text>
  <text x="374" y="464" font-family="Arial, sans-serif" font-size="9" font-weight="bold" fill="#ffffff">SPRINKLER LAYOUT PLAN</text>
  <text x="566" y="451" font-family="Arial, sans-serif" font-size="7" fill="#9ab3d4" letter-spacing="1.5">STANDARD</text>
  <text x="566" y="464" font-family="Arial, sans-serif" font-size="9" font-weight="bold" fill="#ffffff">NFPA 13 / AS 2118</text>
  <text x="700" y="451" font-family="Arial, sans-serif" font-size="7" fill="#9ab3d4" letter-spacing="1.5">DATE</text>
  <text x="700" y="464" font-family="Arial, sans-serif" font-size="9" font-weight="bold" fill="#ffffff">2024</text>
  <!-- Grid -->
  <g stroke="#c8d8ea" stroke-width="0.3" stroke-dasharray="4,4" opacity="0.4">
    <line x1="175" y1="40" x2="175" y2="424"/>
    <line x1="340" y1="40" x2="340" y2="424"/>
    <line x1="505" y1="40" x2="505" y2="424"/>
    <line x1="670" y1="40" x2="670" y2="424"/>
    <line x1="40" y1="155" x2="760" y2="155"/>
    <line x1="40" y1="275" x2="760" y2="275"/>
    <line x1="40" y1="395" x2="760" y2="395"/>
  </g>
  <!-- Room boundary -->
  <rect x="42" y="42" width="720" height="380" fill="#fff8f8" stroke="#0A1F44" stroke-width="1.5"/>
  <text x="55" y="56" font-family="Arial, sans-serif" font-size="6.5" fill="#6b7280">FIRE PROTECTION SPRINKLER LAYOUT — LEVEL 1  |  NRC = 0.10  |  HAZARD: ORDINARY GRP II</text>
  <!-- Internal walls (light) -->
  <line x1="340" y1="42" x2="340" y2="280" stroke="#9ab3d4" stroke-width="2" opacity="0.5"/>
  <line x1="505" y1="42" x2="505" y2="280" stroke="#9ab3d4" stroke-width="2" opacity="0.5"/>
  <line x1="42" y1="155" x2="762" y2="155" stroke="#9ab3d4" stroke-width="2" opacity="0.5"/>
  <line x1="42" y1="275" x2="762" y2="275" stroke="#9ab3d4" stroke-width="2" opacity="0.5"/>
  <!-- Room labels (light) -->
  <text x="190" y="100" font-family="Arial, sans-serif" font-size="7" fill="#9ab3d4" text-anchor="middle">OFFICE 01</text>
  <text x="422" y="100" font-family="Arial, sans-serif" font-size="7" fill="#9ab3d4" text-anchor="middle">OFFICE 02</text>
  <text x="633" y="100" font-family="Arial, sans-serif" font-size="7" fill="#9ab3d4" text-anchor="middle">BOARD RM</text>
  <text x="300" y="220" font-family="Arial, sans-serif" font-size="7" fill="#9ab3d4" text-anchor="middle">CORRIDOR</text>
  <text x="600" y="215" font-family="Arial, sans-serif" font-size="7" fill="#9ab3d4" text-anchor="middle">AMENITIES</text>
  <text x="400" y="345" font-family="Arial, sans-serif" font-size="7" fill="#9ab3d4" text-anchor="middle">OPEN PLAN OFFICE</text>
  <!-- MAIN SPRINKLER MAINS (thick red) -->
  <!-- Main feeding from riser room -->
  <line x1="55" y1="215" x2="762" y2="215" stroke="#ef4444" stroke-width="5"/>
  <text x="400" y="210" font-family="Arial, sans-serif" font-size="7.5" fill="#ef4444" text-anchor="middle" font-weight="bold">SP MAIN — DN100</text>
  <!-- Zone branch mains (medium) -->
  <line x1="175" y1="70" x2="175" y2="155" stroke="#ef4444" stroke-width="3.5"/>
  <line x1="175" y1="70" x2="762" y2="70" stroke="#ef4444" stroke-width="3.5"/>
  <text x="400" y="66" font-family="Arial, sans-serif" font-size="6.5" fill="#ef4444" text-anchor="middle">DN65 BRANCH MAIN — ZONE 1 (UPPER)</text>
  <line x1="175" y1="345" x2="175" y2="275" stroke="#ef4444" stroke-width="3.5"/>
  <line x1="175" y1="345" x2="762" y2="345" stroke="#ef4444" stroke-width="3.5"/>
  <text x="400" y="341" font-family="Arial, sans-serif" font-size="6.5" fill="#ef4444" text-anchor="middle">DN65 BRANCH MAIN — ZONE 2 (LOWER)</text>
  <!-- Cross mains -->
  <line x1="175" y1="70" x2="175" y2="345" stroke="#ef4444" stroke-width="3"/>
  <line x1="340" y1="70" x2="340" y2="155" stroke="#ef4444" stroke-width="2.5"/>
  <line x1="505" y1="70" x2="505" y2="155" stroke="#ef4444" stroke-width="2.5"/>
  <line x1="670" y1="70" x2="670" y2="155" stroke="#ef4444" stroke-width="2.5"/>
  <line x1="340" y1="275" x2="340" y2="345" stroke="#ef4444" stroke-width="2.5"/>
  <line x1="505" y1="275" x2="505" y2="345" stroke="#ef4444" stroke-width="2.5"/>
  <line x1="670" y1="275" x2="670" y2="345" stroke="#ef4444" stroke-width="2.5"/>
  <!-- SPRINKLER HEADS (circles with cross) — Zone 1 upper -->
  <!-- Row 1 (y=100) -->
  <g stroke="#ef4444" fill="none" stroke-width="1.5">
    <circle cx="110" cy="100" r="7"/>
    <line x1="103" y1="93" x2="117" y2="107"/><line x1="117" y1="93" x2="103" y2="107"/>
    <circle cx="258" cy="100" r="7"/>
    <line x1="251" y1="93" x2="265" y2="107"/><line x1="265" y1="93" x2="251" y2="107"/>
    <circle cx="422" cy="100" r="7"/>
    <line x1="415" y1="93" x2="429" y2="107"/><line x1="429" y1="93" x2="415" y2="107"/>
    <circle cx="587" cy="100" r="7"/>
    <line x1="580" y1="93" x2="594" y2="107"/><line x1="594" y1="93" x2="580" y2="107"/>
    <circle cx="718" cy="100" r="7"/>
    <line x1="711" y1="93" x2="725" y2="107"/><line x1="725" y1="93" x2="711" y2="107"/>
    <!-- Row 2 (y=125) -->
    <circle cx="110" cy="128" r="7"/>
    <line x1="103" y1="121" x2="117" y2="135"/><line x1="117" y1="121" x2="103" y2="135"/>
    <circle cx="258" cy="128" r="7"/>
    <line x1="251" y1="121" x2="265" y2="135"/><line x1="265" y1="121" x2="251" y2="135"/>
    <circle cx="422" cy="128" r="7"/>
    <line x1="415" y1="121" x2="429" y2="135"/><line x1="429" y1="121" x2="415" y2="135"/>
    <circle cx="587" cy="128" r="7"/>
    <line x1="580" y1="121" x2="594" y2="135"/><line x1="594" y1="121" x2="580" y2="135"/>
    <circle cx="718" cy="128" r="7"/>
    <line x1="711" y1="121" x2="725" y2="135"/><line x1="725" y1="121" x2="711" y2="135"/>
  </g>
  <!-- Sprinkler pipe branches to heads -->
  <g stroke="#ef4444" stroke-width="1.5">
    <line x1="110" y1="70" x2="110" y2="93"/>
    <line x1="258" y1="70" x2="258" y2="93"/>
    <line x1="422" y1="70" x2="422" y2="93"/>
    <line x1="587" y1="70" x2="587" y2="93"/>
    <line x1="718" y1="70" x2="718" y2="93"/>
    <line x1="110" y1="70" x2="110" y2="121"/>
    <line x1="258" y1="70" x2="258" y2="121"/>
  </g>
  <!-- Zone 2 sprinklers -->
  <g stroke="#ef4444" fill="none" stroke-width="1.5">
    <circle cx="258" cy="365" r="7"/>
    <line x1="251" y1="358" x2="265" y2="372"/><line x1="265" y1="358" x2="251" y2="372"/>
    <circle cx="422" cy="365" r="7"/>
    <line x1="415" y1="358" x2="429" y2="372"/><line x1="429" y1="358" x2="415" y2="372"/>
    <circle cx="587" cy="365" r="7"/>
    <line x1="580" y1="358" x2="594" y2="372"/><line x1="594" y1="358" x2="580" y2="372"/>
    <circle cx="718" cy="365" r="7"/>
    <line x1="711" y1="358" x2="725" y2="372"/><line x1="725" y1="358" x2="711" y2="372"/>
  </g>
  <!-- Zone valve assembly (left) -->
  <rect x="55" y="200" width="40" height="30" fill="#f8fafc" stroke="#ef4444" stroke-width="2"/>
  <text x="75" y="213" font-family="Arial, sans-serif" font-size="6" fill="#ef4444" text-anchor="middle">ZV-01</text>
  <text x="75" y="224" font-family="Arial, sans-serif" font-size="5.5" fill="#6b7280" text-anchor="middle">Zone Valve</text>
  <!-- Riser room -->
  <rect x="42" y="42" width="110" height="110" fill="#fff0f0" stroke="#ef4444" stroke-width="2" stroke-dasharray="4,2"/>
  <text x="97" y="95" font-family="Arial, sans-serif" font-size="7" font-weight="bold" fill="#ef4444" text-anchor="middle">FP RISER</text>
  <text x="97" y="108" font-family="Arial, sans-serif" font-size="6.5" fill="#ef4444" text-anchor="middle">ROOM</text>
  <!-- Legend -->
  <rect x="42" y="395" width="720" height="25" fill="#f8fafc" stroke="#0A1F44" stroke-width="1"/>
  <circle cx="60" cy="408" r="7" fill="none" stroke="#ef4444" stroke-width="1.5"/>
  <line x1="53" y1="401" x2="67" y2="415" stroke="#ef4444" stroke-width="1.5"/>
  <line x1="67" y1="401" x2="53" y2="415" stroke="#ef4444" stroke-width="1.5"/>
  <text x="73" y="411" font-family="Arial, sans-serif" font-size="7" fill="#0A1F44">Sprinkler Head (Std Response)</text>
  <line x1="220" y1="408" x2="240" y2="408" stroke="#ef4444" stroke-width="5"/>
  <text x="246" y="411" font-family="Arial, sans-serif" font-size="7" fill="#0A1F44">Main DN100</text>
  <line x1="340" y1="408" x2="360" y2="408" stroke="#ef4444" stroke-width="3.5"/>
  <text x="366" y="411" font-family="Arial, sans-serif" font-size="7" fill="#0A1F44">Branch Main DN65</text>
  <line x1="490" y1="408" x2="510" y2="408" stroke="#ef4444" stroke-width="1.5"/>
  <text x="516" y="411" font-family="Arial, sans-serif" font-size="7" fill="#0A1F44">Pipe DN25</text>
  <rect x="600" y="402" width="20" height="12" fill="#f8fafc" stroke="#ef4444" stroke-width="2"/>
  <text x="625" y="411" font-family="Arial, sans-serif" font-size="7" fill="#0A1F44">Zone Valve Assy</text>
</svg>
