<svg xmlns="http://www.w3.org/2000/svg" width="1200" height="500" viewBox="0 0 1200 500">
  <rect width="1200" height="500" fill="#f0f4f8"/>
  <rect x="20" y="20" width="1160" height="460" fill="#ffffff" stroke="#0A1F44" stroke-width="2"/>
  <rect x="28" y="28" width="1144" height="452" fill="none" stroke="#0A1F44" stroke-width="0.5"/>
  <!-- Title block -->
  <rect x="28" y="432" width="1144" height="48" fill="#0A1F44"/>
  <line x1="400" y1="432" x2="400" y2="480" stroke="#4a7fc1" stroke-width="0.5"/>
  <line x1="700" y1="432" x2="700" y2="480" stroke="#4a7fc1" stroke-width="0.5"/>
  <line x1="960" y1="432" x2="960" y2="480" stroke="#4a7fc1" stroke-width="0.5"/>
  <text x="44" y="451" font-family="Arial, sans-serif" font-size="7" fill="#9ab3d4" letter-spacing="1.5">CATEGORY</text>
  <text x="44" y="463" font-family="Arial, sans-serif" font-size="11" font-weight="bold" fill="#ffffff">BIM SERVICES</text>
  <text x="44" y="476" font-family="Arial, sans-serif" font-size="7.5" fill="#c8d8ea">Geo-Nectar Technologies Pvt. Ltd.</text>
  <text x="416" y="451" font-family="Arial, sans-serif" font-size="7" fill="#9ab3d4" letter-spacing="1.5">SERVICES</text>
  <text x="416" y="463" font-family="Arial, sans-serif" font-size="7.5" fill="#ffffff">ARCH BIM · STRUCT BIM · MEP BIM · CLASH DETECT</text>
  <text x="416" y="475" font-family="Arial, sans-serif" font-size="7.5" fill="#c8d8ea">POINT CLOUD · CAD-TO-BIM · COORDINATION · MODELLING</text>
  <text x="716" y="451" font-family="Arial, sans-serif" font-size="7" fill="#9ab3d4" letter-spacing="1.5">SOFTWARE</text>
  <text x="716" y="463" font-family="Arial, sans-serif" font-size="8" font-weight="bold" fill="#ffffff">Revit · Navisworks · AutoCAD MEP</text>
  <text x="976" y="451" font-family="Arial, sans-serif" font-size="7" fill="#9ab3d4" letter-spacing="1.5">STANDARD</text>
  <text x="976" y="463" font-family="Arial, sans-serif" font-size="8" font-weight="bold" fill="#ffffff">ISO 19650 · LOD 100–500</text>
  <!-- Grid -->
  <g stroke="#c8d8ea" stroke-width="0.3" stroke-dasharray="4,4" opacity="0.4">
    <line x1="300" y1="40" x2="300" y2="424"/>
    <line x1="600" y1="40" x2="600" y2="424"/>
    <line x1="900" y1="40" x2="900" y2="424"/>
    <line x1="40" y1="200" x2="1160" y2="200"/>
    <line x1="40" y1="320" x2="1160" y2="320"/>
  </g>
  <text x="60" y="58" font-family="Arial, sans-serif" font-size="7" fill="#6b7280">BIM SERVICES — FEDERATED BUILDING INFORMATION MODEL  |  LOD 100 TO 500  |  ISO 19650 COMPLIANT</text>
  <!-- PANEL 1: Architectural BIM isometric (left) -->
  <rect x="40" y="65" width="350" height="360" fill="#f8fafc" stroke="#9ab3d4" stroke-width="0.5"/>
  <text x="215" y="82" font-family="Arial, sans-serif" font-size="8" font-weight="bold" fill="#0A1F44" text-anchor="middle">ARCHITECTURAL BIM MODEL</text>
  <!-- Grid circles (structural) -->
  <g font-family="Arial, sans-serif" font-size="7" fill="#0A1F44" text-anchor="middle">
    <circle cx="115" cy="100" r="8" fill="#f8fafc" stroke="#0A1F44" stroke-width="1"/>
    <text x="115" y="104">A</text>
    <circle cx="215" cy="100" r="8" fill="#f8fafc" stroke="#0A1F44" stroke-width="1"/>
    <text x="215" y="104">B</text>
    <circle cx="315" cy="100" r="8" fill="#f8fafc" stroke="#0A1F44" stroke-width="1"/>
    <text x="315" y="104">C</text>
    <circle cx="80" cy="150" r="7" fill="#f8fafc" stroke="#0A1F44" stroke-width="1"/>
    <text x="80" y="154">1</text>
    <circle cx="80" cy="240" r="7" fill="#f8fafc" stroke="#0A1F44" stroke-width="1"/>
    <text x="80" y="244">2</text>
    <circle cx="80" cy="330" r="7" fill="#f8fafc" stroke="#0A1F44" stroke-width="1"/>
    <text x="80" y="334">3</text>
  </g>
  <!-- Building isometric (3-storey) -->
  <!-- GF slab -->
  <polygon points="115,390 315,390 370,350 170,350" fill="#dde8f5" stroke="#0A1F44" stroke-width="1.5"/>
  <!-- L1 slab -->
  <polygon points="115,310 315,310 370,270 170,270" fill="#c8d8ea" stroke="#0A1F44" stroke-width="1.5"/>
  <!-- L2 slab -->
  <polygon points="115,235 315,235 370,195 170,195" fill="#b8c8de" stroke="#0A1F44" stroke-width="1.5"/>
  <!-- Roof -->
  <polygon points="115,190 315,190 370,150 170,150" fill="#0A1F44" stroke="#0A1F44" stroke-width="1"/>
  <!-- Front walls -->
  <polygon points="115,390 115,190 170,150 170,350" fill="#c0d4e8" stroke="#0A1F44" stroke-width="1"/>
  <!-- Right walls -->
  <polygon points="315,390 315,190 370,150 370,350" fill="#9ab3d4" stroke="#0A1F44" stroke-width="1"/>
  <!-- Column markers -->
  <rect x="113" y="148" width="5" height="242" fill="#4a7fc1" opacity="0.6"/>
  <rect x="313" y="148" width="5" height="242" fill="#4a7fc1" opacity="0.6"/>
  <!-- Level labels -->
  <text x="50" y="394" font-family="Arial, sans-serif" font-size="6" fill="#0A1F44">GFL</text>
  <text x="50" y="314" font-family="Arial, sans-serif" font-size="6" fill="#0A1F44">L1</text>
  <text x="50" y="239" font-family="Arial, sans-serif" font-size="6" fill="#0A1F44">L2</text>
  <text x="50" y="194" font-family="Arial, sans-serif" font-size="6" fill="#0A1F44">ROOF</text>
  <!-- Windows GF -->
  <rect x="140" y="360" width="36" height="25" fill="#7fb3d4" opacity="0.8"/>
  <rect x="200" y="360" width="36" height="25" fill="#7fb3d4" opacity="0.8"/>
  <rect x="260" y="360" width="36" height="25" fill="#7fb3d4" opacity="0.8"/>
  <!-- Windows L1 -->
  <rect x="140" y="278" width="36" height="22" fill="#9ab8d0" opacity="0.8"/>
  <rect x="200" y="278" width="36" height="22" fill="#9ab8d0" opacity="0.8"/>
  <rect x="260" y="278" width="36" height="22" fill="#9ab8d0" opacity="0.8"/>
  <!-- LOD indicator -->
  <text x="55" y="420" font-family="Arial, sans-serif" font-size="6" fill="#4a7fc1" font-weight="bold">LOD 350 — ARCHITECTURAL MODEL</text>
  <!-- PANEL 2: MEP BIM / Clash (middle) -->
  <rect x="405" y="65" width="385" height="360" fill="#f0f8ff" stroke="#9ab3d4" stroke-width="0.5"/>
  <text x="597" y="82" font-family="Arial, sans-serif" font-size="8" font-weight="bold" fill="#0A1F44" text-anchor="middle">MEP BIM — CLASH DETECTION</text>
  <!-- HVAC duct (blue rectangles) -->
  <rect x="420" y="100" width="360" height="32" fill="#c8e0f8" stroke="#4a7fc1" stroke-width="1.8" rx="1"/>
  <text x="600" y="120" font-family="Arial, sans-serif" font-size="7" fill="#4a7fc1" text-anchor="middle" font-weight="bold">800×400 SA DUCT</text>
  <!-- Vertical branch ducts -->
  <rect x="476" y="132" width="22" height="90" fill="#c8e0f8" stroke="#4a7fc1" stroke-width="1.5"/>
  <rect x="580" y="132" width="22" height="90" fill="#c8e0f8" stroke="#4a7fc1" stroke-width="1.5"/>
  <rect x="690" y="132" width="22" height="90" fill="#c8e0f8" stroke="#4a7fc1" stroke-width="1.5"/>
  <!-- RA duct (green) -->
  <rect x="420" y="290" width="360" height="24" fill="#e0f0e8" stroke="#22a366" stroke-width="1.5" rx="1"/>
  <text x="600" y="306" font-family="Arial, sans-serif" font-size="7" fill="#22a366" text-anchor="middle">600×250 RA DUCT</text>
  <!-- CWS pipe -->
  <line x1="420" y1="240" x2="785" y2="240" stroke="#2563eb" stroke-width="4"/>
  <text x="520" y="237" font-family="Arial, sans-serif" font-size="6" fill="#2563eb">CWS DN50</text>
  <!-- HWS pipe -->
  <line x1="420" y1="252" x2="700" y2="252" stroke="#d97706" stroke-width="3"/>
  <text x="520" y="249" font-family="Arial, sans-serif" font-size="6" fill="#d97706">HWS DN32</text>
  <!-- Sanitary -->
  <line x1="420" y1="263" x2="785" y2="263" stroke="#7c3a00" stroke-width="5"/>
  <text x="520" y="260" font-family="Arial, sans-serif" font-size="6" fill="#7c3a00">SAN DN100</text>
  <!-- Electrical tray -->
  <rect x="420" y="338" width="360" height="16" fill="none" stroke="#d97706" stroke-width="1.8" stroke-dasharray="10,4"/>
  <text x="600" y="350" font-family="Arial, sans-serif" font-size="6.5" fill="#d97706" text-anchor="middle">600W CABLE TRAY</text>
  <!-- Fire main -->
  <line x1="420" y1="375" x2="785" y2="375" stroke="#ef4444" stroke-width="3"/>
  <text x="600" y="371" font-family="Arial, sans-serif" font-size="6" fill="#ef4444" text-anchor="middle">SP MAIN DN100</text>
  <!-- Clash indicator 1 (hard clash - red) -->
  <circle cx="487" cy="245" r="14" fill="none" stroke="#ef4444" stroke-width="2.5" stroke-dasharray="4,2"/>
  <text x="487" y="249" font-family="Arial, sans-serif" font-size="7" font-weight="bold" fill="#ef4444" text-anchor="middle">!</text>
  <text x="487" y="264" font-family="Arial, sans-serif" font-size="5.5" fill="#ef4444" text-anchor="middle">HARD</text>
  <!-- Clash indicator 2 (soft - orange) -->
  <circle cx="601" cy="258" r="12" fill="none" stroke="#d97706" stroke-width="2" stroke-dasharray="4,2"/>
  <text x="601" y="262" font-family="Arial, sans-serif" font-size="7" font-weight="bold" fill="#d97706" text-anchor="middle">△</text>
  <text x="601" y="276" font-family="Arial, sans-serif" font-size="5.5" fill="#d97706" text-anchor="middle">SOFT</text>
  <!-- Clash report table -->
  <rect x="420" y="390" width="365" height="28" fill="#f8fafc" stroke="#0A1F44" stroke-width="0.8"/>
  <rect x="420" y="390" width="365" height="10" fill="#0A1F44"/>
  <text x="602" y="398" font-family="Arial, sans-serif" font-size="6" font-weight="bold" fill="#ffffff" text-anchor="middle">CLASH REPORT — NAVISWORKS MANAGE</text>
  <text x="430" y="410" font-family="Arial, sans-serif" font-size="5.5" fill="#ef4444">Hard: 3 resolved</text>
  <text x="530" y="410" font-family="Arial, sans-serif" font-size="5.5" fill="#d97706">Soft: 7 under review</text>
  <text x="650" y="410" font-family="Arial, sans-serif" font-size="5.5" fill="#22a366">Cleared: 28 items</text>
  <text x="740" y="410" font-family="Arial, sans-serif" font-size="5.5" fill="#0A1F44">Total: 38</text>
  <!-- PANEL 3: Point Cloud + LOD Scale (right) -->
  <rect x="808" y="65" width="352" height="360" fill="#0a1a2e" stroke="#9ab3d4" stroke-width="0.5"/>
  <text x="984" y="82" font-family="Arial, sans-serif" font-size="8" font-weight="bold" fill="#ffffff" text-anchor="middle">POINT CLOUD TO BIM</text>
  <!-- Point cloud dots (dense, colored) -->
  <g opacity="0.9">
    <circle cx="850" cy="120" r="1.5" fill="#ef4444"/>
    <circle cx="858" cy="115" r="1.5" fill="#f97316"/>
    <circle cx="866" cy="118" r="1.5" fill="#fbbf24"/>
    <circle cx="874" cy="112" r="1.5" fill="#22a366"/>
    <circle cx="882" cy="117" r="1.5" fill="#4a7fc1"/>
    <circle cx="890" cy="113" r="1.5" fill="#ef4444"/>
    <circle cx="898" cy="119" r="1.5" fill="#fbbf24"/>
    <circle cx="906" cy="114" r="1.5" fill="#22a366"/>
    <circle cx="914" cy="120" r="1.5" fill="#4a7fc1"/>
    <circle cx="922" cy="115" r="1.5" fill="#ef4444"/>
    <circle cx="930" cy="118" r="1.5" fill="#f97316"/>
    <circle cx="938" cy="112" r="1.5" fill="#fbbf24"/>
    <circle cx="850" cy="135" r="1.5" fill="#fbbf24"/>
    <circle cx="860" cy="130" r="1.5" fill="#22a366"/>
    <circle cx="870" cy="133" r="1.5" fill="#4a7fc1"/>
    <circle cx="880" cy="128" r="1.5" fill="#ef4444"/>
    <circle cx="890" cy="132" r="1.5" fill="#f97316"/>
    <circle cx="900" cy="127" r="1.5" fill="#fbbf24"/>
    <circle cx="910" cy="134" r="1.5" fill="#22a366"/>
    <circle cx="920" cy="129" r="1.5" fill="#4a7fc1"/>
    <circle cx="930" cy="136" r="1.5" fill="#ef4444"/>
    <circle cx="940" cy="131" r="1.5" fill="#f97316"/>
    <circle cx="852" cy="150" r="1.5" fill="#22a366"/>
    <circle cx="862" cy="145" r="1.5" fill="#4a7fc1"/>
    <circle cx="872" cy="148" r="1.5" fill="#ef4444"/>
    <circle cx="882" cy="143" r="1.5" fill="#fbbf24"/>
    <circle cx="892" cy="150" r="1.5" fill="#22a366"/>
    <circle cx="902" cy="146" r="1.5" fill="#4a7fc1"/>
    <circle cx="912" cy="151" r="1.5" fill="#ef4444"/>
    <circle cx="922" cy="147" r="1.5" fill="#f97316"/>
    <circle cx="932" cy="153" r="1.5" fill="#fbbf24"/>
    <circle cx="854" cy="165" r="1.5" fill="#4a7fc1"/>
    <circle cx="864" cy="160" r="1.5" fill="#ef4444"/>
    <circle cx="874" cy="163" r="1.5" fill="#f97316"/>
    <circle cx="884" cy="158" r="1.5" fill="#22a366"/>
    <circle cx="894" cy="164" r="1.5" fill="#4a7fc1"/>
    <circle cx="904" cy="160" r="1.5" fill="#ef4444"/>
    <circle cx="914" cy="166" r="1.5" fill="#fbbf24"/>
    <circle cx="924" cy="162" r="1.5" fill="#22a366"/>
    <circle cx="934" cy="167" r="1.5" fill="#4a7fc1"/>
    <!-- More density -->
    <circle cx="856" cy="178" r="1.5" fill="#f97316"/>
    <circle cx="868" cy="174" r="1.5" fill="#22a366"/>
    <circle cx="880" cy="177" r="1.5" fill="#4a7fc1"/>
    <circle cx="892" cy="173" r="1.5" fill="#ef4444"/>
    <circle cx="904" cy="179" r="1.5" fill="#fbbf24"/>
    <circle cx="916" cy="175" r="1.5" fill="#22a366"/>
    <circle cx="928" cy="180" r="1.5" fill="#4a7fc1"/>
    <circle cx="940" cy="176" r="1.5" fill="#ef4444"/>
    <circle cx="858" cy="192" r="1.5" fill="#fbbf24"/>
    <circle cx="870" cy="188" r="1.5" fill="#4a7fc1"/>
    <circle cx="882" cy="191" r="1.5" fill="#ef4444"/>
    <circle cx="894" cy="187" r="1.5" fill="#f97316"/>
    <circle cx="906" cy="193" r="1.5" fill="#22a366"/>
    <circle cx="918" cy="189" r="1.5" fill="#4a7fc1"/>
    <circle cx="930" cy="194" r="1.5" fill="#ef4444"/>
    <circle cx="942" cy="190" r="1.5" fill="#fbbf24"/>
  </g>
  <text x="895" y="212" font-family="Arial, sans-serif" font-size="7" fill="#9ab3d4" text-anchor="middle">SCAN DATA</text>
  <text x="895" y="222" font-family="Arial, sans-serif" font-size="6" fill="#6b7280" text-anchor="middle">Leica RTC360</text>
  <!-- Arrow -->
  <line x1="950" y1="160" x2="975" y2="160" stroke="#4a7fc1" stroke-width="2.5"/>
  <polygon points="975,155 985,160 975,165" fill="#4a7fc1"/>
  <!-- BIM linework (right side of point cloud panel) -->
  <rect x="990" y="112" width="150" height="120" fill="none" stroke="#9ab3d4" stroke-width="0.5"/>
  <!-- Simple BIM floor plan -->
  <g stroke="#c8d8ea" stroke-width="2" fill="none">
    <rect x="1000" y="120" width="130" height="100"/>
    <line x1="1060" y1="120" x2="1060" y2="220"/>
    <line x1="1000" y1="172" x2="1130" y2="172"/>
    <rect x="1070" y="130" width="50" height="35"/>
    <rect x="1070" y="175" width="50" height="38"/>
    <rect x="1008" y="130" width="44" height="35"/>
  </g>
  <text x="1065" y="249" font-family="Arial, sans-serif" font-size="7" fill="#c8d8ea" text-anchor="middle">BIM MODEL</text>
  <text x="1065" y="259" font-family="Arial, sans-serif" font-size="6" fill="#6b7280" text-anchor="middle">Revit Architecture</text>
  <!-- LOD Scale -->
  <g font-family="Arial, sans-serif" font-size="6" fill="#9ab3d4">
    <text x="820" y="285">LOD 100</text>
    <text x="820" y="300">LOD 200</text>
    <text x="820" y="315">LOD 300</text>
    <text x="820" y="330">LOD 350</text>
    <text x="820" y="345">LOD 400</text>
    <text x="820" y="360">LOD 500</text>
  </g>
  <g font-family="Arial, sans-serif" font-size="6" fill="#6b7280">
    <text x="875" y="285">Conceptual</text>
    <text x="875" y="300">Approximate</text>
    <text x="875" y="315">Precise Geometry</text>
    <text x="875" y="330">Fabrication Ready</text>
    <text x="875" y="345">Shop Drawing</text>
    <text x="875" y="360">As-Built</text>
  </g>
  <!-- Progress bars for LOD -->
  <g>
    <rect x="960" y="278" width="100" height="6" fill="#4a7fc1" opacity="0.15" rx="2"/>
    <rect x="960" y="278" width="20" height="6" fill="#4a7fc1" rx="2"/>
    <rect x="960" y="293" width="100" height="6" fill="#4a7fc1" opacity="0.15" rx="2"/>
    <rect x="960" y="293" width="40" height="6" fill="#4a7fc1" rx="2"/>
    <rect x="960" y="308" width="100" height="6" fill="#4a7fc1" opacity="0.15" rx="2"/>
    <rect x="960" y="308" width="65" height="6" fill="#4a7fc1" rx="2"/>
    <rect x="960" y="323" width="100" height="6" fill="#4a7fc1" opacity="0.15" rx="2"/>
    <rect x="960" y="323" width="80" height="6" fill="#22a366" rx="2"/>
    <rect x="960" y="338" width="100" height="6" fill="#4a7fc1" opacity="0.15" rx="2"/>
    <rect x="960" y="338" width="90" height="6" fill="#22a366" rx="2"/>
    <rect x="960" y="353" width="100" height="6" fill="#4a7fc1" opacity="0.15" rx="2"/>
    <rect x="960" y="353" width="100" height="6" fill="#22a366" rx="2"/>
  </g>
  <!-- Accuracy panel -->
  <rect x="810" y="375" width="340" height="40" fill="none" stroke="#4a7fc1" stroke-width="1"/>
  <text x="980" y="392" font-family="Arial, sans-serif" font-size="7" fill="#9ab3d4" text-anchor="middle">SCAN ACCURACY: ±2mm  |  COVERAGE: 3D POINT CLOUD 360°</text>
  <text x="980" y="407" font-family="Arial, sans-serif" font-size="7" fill="#4a7fc1" text-anchor="middle">DELIVERABLE: .RVT / .IFC / .NWD / DWG</text>
</svg>
