<svg xmlns="http://www.w3.org/2000/svg" width="1200" height="500" viewBox="0 0 1200 500">
  <rect width="1200" height="500" fill="#f0f4f8"/>
  <rect x="20" y="20" width="1160" height="460" fill="#ffffff" stroke="#0A1F44" stroke-width="2"/>
  <rect x="28" y="28" width="1144" height="452" fill="none" stroke="#0A1F44" stroke-width="0.5"/>
  <!-- Title block -->
  <rect x="28" y="432" width="1144" height="48" fill="#0A1F44"/>
  <line x1="400" y1="432" x2="400" y2="480" stroke="#4a7fc1" stroke-width="0.5"/>
  <line x1="700" y1="432" x2="700" y2="480" stroke="#4a7fc1" stroke-width="0.5"/>
  <line x1="960" y1="432" x2="960" y2="480" stroke="#4a7fc1" stroke-width="0.5"/>
  <text x="44" y="451" font-family="Arial, sans-serif" font-size="7" fill="#9ab3d4" letter-spacing="1.5">CATEGORY</text>
  <text x="44" y="463" font-family="Arial, sans-serif" font-size="11" font-weight="bold" fill="#ffffff">CIVIL ENGINEERING SERVICES</text>
  <text x="44" y="476" font-family="Arial, sans-serif" font-size="7.5" fill="#c8d8ea">Geo-Nectar Technologies Pvt. Ltd.</text>
  <text x="416" y="451" font-family="Arial, sans-serif" font-size="7" fill="#9ab3d4" letter-spacing="1.5">SERVICES</text>
  <text x="416" y="463" font-family="Arial, sans-serif" font-size="7.5" fill="#ffffff">ARCH DRAFTING · LAND DEV · ROAD NETWORK</text>
  <text x="416" y="475" font-family="Arial, sans-serif" font-size="7.5" fill="#c8d8ea">STORMWATER · UTILITY LAYOUT · 3D RENDERING</text>
  <text x="716" y="451" font-family="Arial, sans-serif" font-size="7" fill="#9ab3d4" letter-spacing="1.5">STANDARDS</text>
  <text x="716" y="463" font-family="Arial, sans-serif" font-size="8" font-weight="bold" fill="#ffffff">AusRoads · AS/NZS · AASHTO</text>
  <text x="976" y="451" font-family="Arial, sans-serif" font-size="7" fill="#9ab3d4" letter-spacing="1.5">SOFTWARE</text>
  <text x="976" y="463" font-family="Arial, sans-serif" font-size="8" font-weight="bold" fill="#ffffff">Civil 3D · AutoCAD · 3ds Max</text>
  <!-- Grid -->
  <g stroke="#c8d8ea" stroke-width="0.3" stroke-dasharray="4,4" opacity="0.4">
    <line x1="400" y1="40" x2="400" y2="424"/>
    <line x1="800" y1="40" x2="800" y2="424"/>
    <line x1="40" y1="230" x2="1160" y2="230"/>
  </g>
  <text x="60" y="58" font-family="Arial, sans-serif" font-size="7" fill="#6b7280">CIVIL ENGINEERING DRAFTING — SUBDIVISION · ROADS · DRAINAGE · UTILITIES  |  AUS · USA · NZ · INDIA</text>
  <!-- PANEL 1: Architectural Floor Plan (left) -->
  <rect x="40" y="65" width="355" height="360" fill="#fff8f8" stroke="#9ab3d4" stroke-width="0.5"/>
  <text x="217" y="82" font-family="Arial, sans-serif" font-size="8" font-weight="bold" fill="#0A1F44" text-anchor="middle">ARCHITECTURAL FLOOR PLAN</text>
  <!-- Outer boundary -->
  <rect x="65" y="92" width="310" height="320" fill="#fff8f8" stroke="#0A1F44" stroke-width="2"/>
  <!-- Internal walls -->
  <line x1="200" y1="92" x2="200" y2="295" stroke="#0A1F44" stroke-width="1.5"/>
  <line x1="65" y1="220" x2="375" y2="220" stroke="#0A1F44" stroke-width="1.5"/>
  <line x1="65" y1="295" x2="320" y2="295" stroke="#0A1F44" stroke-width="1.5"/>
  <line x1="310" y1="220" x2="310" y2="412" stroke="#0A1F44" stroke-width="1.5"/>
  <!-- Door arcs -->
  <path d="M200,145 A20,20 0 0,0 180,125" fill="none" stroke="#0A1F44" stroke-width="1"/>
  <line x1="200" y1="145" x2="200" y2="125" stroke="#0A1F44" stroke-width="1"/>
  <path d="M200,255 A18,18 0 0,1 218,237" fill="none" stroke="#0A1F44" stroke-width="1"/>
  <line x1="200" y1="255" x2="218" y2="255" stroke="#0A1F44" stroke-width="1"/>
  <!-- Windows -->
  <rect x="90" y="92" width="40" height="5" fill="#7fb3d4"/>
  <rect x="200" y="92" width="60" height="5" fill="#7fb3d4"/>
  <rect x="330" y="92" width="40" height="5" fill="#7fb3d4"/>
  <rect x="65" y="140" width="5" height="40" fill="#7fb3d4"/>
  <rect x="65" y="300" width="5" height="40" fill="#7fb3d4"/>
  <rect x="370" y="140" width="5" height="40" fill="#7fb3d4"/>
  <!-- Room labels -->
  <text x="132" y="160" font-family="Arial, sans-serif" font-size="8" fill="#9ab3d4" text-anchor="middle">LIVING</text>
  <text x="290" y="155" font-family="Arial, sans-serif" font-size="8" fill="#9ab3d4" text-anchor="middle">DINING</text>
  <text x="132" y="260" font-family="Arial, sans-serif" font-size="7.5" fill="#9ab3d4" text-anchor="middle">BEDROOM 1</text>
  <text x="290" y="260" font-family="Arial, sans-serif" font-size="7.5" fill="#9ab3d4" text-anchor="middle">BEDROOM 2</text>
  <text x="185" y="355" font-family="Arial, sans-serif" font-size="7.5" fill="#9ab3d4" text-anchor="middle">BATHROOM</text>
  <text x="352" y="355" font-family="Arial, sans-serif" font-size="7.5" fill="#9ab3d4" text-anchor="middle">STORE</text>
  <!-- Dimension lines -->
  <line x1="65" y1="85" x2="375" y2="85" stroke="#0A1F44" stroke-width="0.8"/>
  <line x1="65" y1="80" x2="65" y2="90" stroke="#0A1F44" stroke-width="0.8"/>
  <line x1="375" y1="80" x2="375" y2="90" stroke="#0A1F44" stroke-width="0.8"/>
  <text x="220" y="82" font-family="Arial, sans-serif" font-size="6" fill="#0A1F44" text-anchor="middle">15,600</text>
  <line x1="380" y1="92" x2="380" y2="412" stroke="#0A1F44" stroke-width="0.8"/>
  <line x1="375" y1="92" x2="385" y2="92" stroke="#0A1F44" stroke-width="0.8"/>
  <line x1="375" y1="412" x2="385" y2="412" stroke="#0A1F44" stroke-width="0.8"/>
  <text x="390" y="255" font-family="Arial, sans-serif" font-size="6" fill="#0A1F44" transform="rotate(-90,390,255)">16,000</text>
  <!-- North arrow -->
  <g transform="translate(360,105)">
    <circle cx="0" cy="0" r="12" fill="none" stroke="#0A1F44" stroke-width="1.2"/>
    <polygon points="0,-9 -3,5 0,1 3,5" fill="#0A1F44"/>
    <text x="0" y="-13" font-family="Arial, sans-serif" font-size="7" font-weight="bold" fill="#0A1F44" text-anchor="middle">N</text>
  </g>
  <!-- PANEL 2: Road + Stormwater Network (middle) -->
  <rect x="408" y="65" width="380" height="360" fill="#f5f8f0" stroke="#9ab3d4" stroke-width="0.5"/>
  <text x="598" y="82" font-family="Arial, sans-serif" font-size="8" font-weight="bold" fill="#0A1F44" text-anchor="middle">ROAD NETWORK &amp; STORMWATER</text>
  <!-- Road grid (simple) -->
  <!-- Horizontal roads -->
  <rect x="420" y="130" width="360" height="24" fill="#c8c8c8" stroke="#6b7280" stroke-width="0.8"/>
  <text x="600" y="145" font-family="Arial, sans-serif" font-size="6" fill="#0A1F44" text-anchor="middle">MAIN ROAD — 16m RESERVE</text>
  <rect x="420" y="280" width="360" height="20" fill="#c8c8c8" stroke="#6b7280" stroke-width="0.8"/>
  <text x="600" y="293" font-family="Arial, sans-serif" font-size="6" fill="#0A1F44" text-anchor="middle">LOCAL ROAD — 12m RESERVE</text>
  <!-- Vertical roads -->
  <rect x="420" y="90" width="20" height="330" fill="#c8c8c8" stroke="#6b7280" stroke-width="0.8"/>
  <rect x="600" y="90" width="20" height="330" fill="#c8c8c8" stroke="#6b7280" stroke-width="0.8"/>
  <rect x="760" y="90" width="20" height="330" fill="#c8c8c8" stroke="#6b7280" stroke-width="0.8"/>
  <!-- Property blocks -->
  <rect x="440" y="154" width="152" height="126" fill="#eef3f8" stroke="#9ab3d4" stroke-width="0.5"/>
  <rect x="620" y="154" width="132" height="126" fill="#eef3f8" stroke="#9ab3d4" stroke-width="0.5"/>
  <rect x="440" y="300" width="152" height="110" fill="#eef3f8" stroke="#9ab3d4" stroke-width="0.5"/>
  <rect x="620" y="300" width="132" height="110" fill="#eef3f8" stroke="#9ab3d4" stroke-width="0.5"/>
  <rect x="780" y="154" width="0" height="126" fill="#eef3f8" stroke="#9ab3d4" stroke-width="0.5"/>
  <!-- Park -->
  <rect x="440" y="90" width="152" height="38" fill="#c8e8b8" stroke="#22a366" stroke-width="0.8"/>
  <text x="516" y="112" font-family="Arial, sans-serif" font-size="7" fill="#22a366" text-anchor="middle">OPEN SPACE</text>
  <!-- Stormwater trunk drain -->
  <line x1="430" y1="150" x2="775" y2="150" stroke="#2563eb" stroke-width="4"/>
  <text x="598" y="147" font-family="Arial, sans-serif" font-size="6" fill="#2563eb" text-anchor="middle">SW DRAIN DN900</text>
  <!-- Manholes -->
  <circle cx="440" cy="150" r="5" fill="#f8fafc" stroke="#2563eb" stroke-width="1.5"/>
  <circle cx="545" cy="150" r="5" fill="#f8fafc" stroke="#2563eb" stroke-width="1.5"/>
  <circle cx="640" cy="150" r="5" fill="#f8fafc" stroke="#2563eb" stroke-width="1.5"/>
  <circle cx="740" cy="150" r="5" fill="#f8fafc" stroke="#2563eb" stroke-width="1.5"/>
  <!-- Stormwater branches -->
  <line x1="440" y1="150" x2="440" y2="300" stroke="#2563eb" stroke-width="2.5"/>
  <line x1="620" y1="150" x2="620" y2="300" stroke="#2563eb" stroke-width="2.5"/>
  <!-- Utility line -->
  <line x1="420" y1="168" x2="780" y2="168" stroke="#ef4444" stroke-width="2"/>
  <text x="590" y="165" font-family="Arial, sans-serif" font-size="5.5" fill="#ef4444" text-anchor="middle">HV ELECTRICAL DN160 CONDUIT</text>
  <line x1="420" y1="175" x2="780" y2="175" stroke="#f59e0b" stroke-width="2"/>
  <text x="590" y="172" font-family="Arial, sans-serif" font-size="5.5" fill="#f59e0b" text-anchor="middle">GAS DN80</text>
  <!-- Chainage marks -->
  <text x="420" y="420" font-family="Arial, sans-serif" font-size="6" fill="#6b7280">CH 0+000</text>
  <text x="590" y="420" font-family="Arial, sans-serif" font-size="6" fill="#6b7280" text-anchor="middle">CH 0+500</text>
  <text x="760" y="420" font-family="Arial, sans-serif" font-size="6" fill="#6b7280" text-anchor="end">CH 1+000</text>
  <!-- PANEL 3: 3D Rendering / Land Dev (right) -->
  <rect x="801" y="65" width="359" height="360" fill="#e8eef5" stroke="#9ab3d4" stroke-width="0.5"/>
  <text x="980" y="82" font-family="Arial, sans-serif" font-size="8" font-weight="bold" fill="#0A1F44" text-anchor="middle">3D RENDERING &amp; LAND DEVELOPMENT</text>
  <!-- Sky gradient simulation -->
  <rect x="808" y="90" width="344" height="200" fill="#c8dff0"/>
  <g opacity="0.3">
    <rect x="808" y="200" width="344" height="90" fill="#d4e8c8"/>
  </g>
  <!-- Ground -->
  <rect x="808" y="280" width="344" height="60" fill="#d4e8c8"/>
  <!-- Building (3D perspective) -->
  <rect x="860" y="165" width="240" height="115" fill="#dde8f5" stroke="#0A1F44" stroke-width="1.5"/>
  <rect x="870" y="150" width="220" height="17" fill="#0A1F44"/>
  <!-- Building side panel -->
  <polygon points="1100,165 1140,145 1140,270 1100,280" fill="#9ab3d4" stroke="#0A1F44" stroke-width="1"/>
  <!-- Windows -->
  <rect x="880" y="180" width="40" height="40" fill="#7fb3d4" opacity="0.8"/>
  <rect x="935" y="180" width="40" height="40" fill="#7fb3d4" opacity="0.8"/>
  <rect x="990" y="180" width="40" height="40" fill="#7fb3d4" opacity="0.8"/>
  <rect x="1045" y="180" width="40" height="40" fill="#7fb3d4" opacity="0.8"/>
  <rect x="880" y="232" width="40" height="36" fill="#7fb3d4" opacity="0.8"/>
  <rect x="935" y="232" width="40" height="36" fill="#7fb3d4" opacity="0.8"/>
  <rect x="990" y="232" width="40" height="36" fill="#7fb3d4" opacity="0.8"/>
  <rect x="1045" y="232" width="40" height="36" fill="#7fb3d4" opacity="0.8"/>
  <!-- Entry -->
  <rect x="960" y="258" width="50" height="22" fill="#a8d4ea" stroke="#0A1F44" stroke-width="1"/>
  <!-- Trees -->
  <circle cx="838" cy="265" r="28" fill="#4a8c4a" opacity="0.7"/>
  <rect x="834" y="283" width="8" height="17" fill="#6b4c2a"/>
  <!-- Sun -->
  <circle cx="1120" cy="105" r="16" fill="#fbbf24" opacity="0.85"/>
  <g stroke="#fbbf24" stroke-width="1.2" opacity="0.6">
    <line x1="1120" y1="84" x2="1120" y2="78"/>
    <line x1="1120" y1="126" x2="1120" y2="132"/>
    <line x1="1099" y1="105" x2="1093" y2="105"/>
    <line x1="1141" y1="105" x2="1147" y2="105"/>
    <line x1="1105" y1="90" x2="1101" y2="86"/>
    <line x1="1135" y1="90" x2="1139" y2="86"/>
    <line x1="1105" y1="120" x2="1101" y2="124"/>
    <line x1="1135" y1="120" x2="1139" y2="124"/>
  </g>
  <!-- Subdivision lots below (land dev) -->
  <rect x="808" y="340" width="359" height="85" fill="#f5f8f0" stroke="#9ab3d4" stroke-width="0.5"/>
  <text x="987" y="356" font-family="Arial, sans-serif" font-size="7" font-weight="bold" fill="#0A1F44" text-anchor="middle">LAND DEVELOPMENT — STAGE PLAN</text>
  <!-- Mini lots -->
  <g stroke="#0A1F44" stroke-width="0.8" font-family="Arial, sans-serif" font-size="6" fill="#0A1F44" text-anchor="middle">
    <rect x="815" y="362" width="45" height="42" fill="#eef3f8"/>
    <text x="837" y="386">L1</text>
    <rect x="862" y="362" width="45" height="42" fill="#eef3f8"/>
    <text x="884" y="386">L2</text>
    <rect x="909" y="362" width="45" height="42" fill="#eef3f8"/>
    <text x="931" y="386">L3</text>
    <rect x="956" y="362" width="45" height="42" fill="#fff8ec"/>
    <text x="978" y="386">L4</text>
    <rect x="1003" y="362" width="45" height="42" fill="#fff8ec"/>
    <text x="1025" y="386">L5</text>
    <rect x="1050" y="362" width="42" height="42" fill="#c8e8b8"/>
    <text x="1071" y="386" fill="#22a366">PARK</text>
    <rect x="1094" y="362" width="66" height="42" fill="#c8c8c8"/>
    <text x="1127" y="386">ROAD</text>
  </g>
</svg>
