<svg xmlns="http://www.w3.org/2000/svg" width="800" height="500" viewBox="0 0 800 500">
  <rect width="800" height="500" fill="#f0f4f8"/>
  <rect x="20" y="20" width="760" height="460" fill="#ffffff" stroke="#0A1F44" stroke-width="2"/>
  <rect x="28" y="28" width="744" height="452" fill="none" stroke="#0A1F44" stroke-width="0.5"/>
  <rect x="28" y="432" width="744" height="48" fill="#0A1F44"/>
  <line x1="368" y1="432" x2="368" y2="480" stroke="#4a7fc1" stroke-width="0.5"/>
  <line x1="560" y1="432" x2="560" y2="480" stroke="#4a7fc1" stroke-width="0.5"/>
  <text x="44" y="451" font-family="Arial, sans-serif" font-size="7" fill="#9ab3d4" letter-spacing="1.5">INDUSTRY</text>
  <text x="44" y="463" font-family="Arial, sans-serif" font-size="9" font-weight="bold" fill="#ffffff">ARCHITECTURE &amp; CONSTRUCTION</text>
  <text x="44" y="474" font-family="Arial, sans-serif" font-size="7.5" fill="#c8d8ea">Geo-Nectar Technologies Pvt. Ltd.</text>
  <text x="374" y="451" font-family="Arial, sans-serif" font-size="7" fill="#9ab3d4" letter-spacing="1.5">DRAWING</text>
  <text x="374" y="464" font-family="Arial, sans-serif" font-size="9" font-weight="bold" fill="#ffffff">NORTH ELEVATION</text>
  <text x="566" y="451" font-family="Arial, sans-serif" font-size="7" fill="#9ab3d4" letter-spacing="1.5">SCALE</text>
  <text x="566" y="464" font-family="Arial, sans-serif" font-size="9" font-weight="bold" fill="#ffffff">1:100</text>
  <text x="700" y="451" font-family="Arial, sans-serif" font-size="7" fill="#9ab3d4" letter-spacing="1.5">DATE</text>
  <text x="700" y="464" font-family="Arial, sans-serif" font-size="9" font-weight="bold" fill="#ffffff">2024</text>
  <text x="55" y="56" font-family="Arial, sans-serif" font-size="6.5" fill="#6b7280">NORTH ELEVATION — COMMERCIAL OFFICE BUILDING  |  NCC CLASS 5  |  FIRE RATING: 90/90/90</text>
  <!-- Grid -->
  <g stroke="#c8d8ea" stroke-width="0.3" stroke-dasharray="4,4" opacity="0.4">
    <line x1="200" y1="40" x2="200" y2="424"/>
    <line x1="400" y1="40" x2="400" y2="424"/>
    <line x1="600" y1="40" x2="600" y2="424"/>
    <line x1="40" y1="180" x2="760" y2="180"/>
    <line x1="40" y1="310" x2="760" y2="310"/>
  </g>
  <!-- Ground slab -->
  <line x1="85" y1="390" x2="625" y2="390" stroke="#0A1F44" stroke-width="2"/>
  <!-- Ground hatch -->
  <g stroke="#0A1F44" stroke-width="0.5" opacity="0.35">
    <line x1="85" y1="393" x2="95" y2="402"/><line x1="100" y1="393" x2="110" y2="402"/>
    <line x1="115" y1="393" x2="125" y2="402"/><line x1="130" y1="393" x2="140" y2="402"/>
    <line x1="145" y1="393" x2="155" y2="402"/><line x1="160" y1="393" x2="170" y2="402"/>
    <line x1="175" y1="393" x2="185" y2="402"/><line x1="190" y1="393" x2="200" y2="402"/>
    <line x1="205" y1="393" x2="215" y2="402"/><line x1="220" y1="393" x2="230" y2="402"/>
    <line x1="235" y1="393" x2="245" y2="402"/><line x1="250" y1="393" x2="260" y2="402"/>
    <line x1="265" y1="393" x2="275" y2="402"/><line x1="280" y1="393" x2="290" y2="402"/>
    <line x1="295" y1="393" x2="305" y2="402"/><line x1="310" y1="393" x2="320" y2="402"/>
    <line x1="325" y1="393" x2="335" y2="402"/><line x1="340" y1="393" x2="350" y2="402"/>
    <line x1="355" y1="393" x2="365" y2="402"/><line x1="370" y1="393" x2="380" y2="402"/>
    <line x1="385" y1="393" x2="395" y2="402"/><line x1="400" y1="393" x2="410" y2="402"/>
    <line x1="415" y1="393" x2="425" y2="402"/><line x1="430" y1="393" x2="440" y2="402"/>
    <line x1="445" y1="393" x2="455" y2="402"/><line x1="460" y1="393" x2="470" y2="402"/>
    <line x1="475" y1="393" x2="485" y2="402"/><line x1="490" y1="393" x2="500" y2="402"/>
    <line x1="505" y1="393" x2="515" y2="402"/><line x1="520" y1="393" x2="530" y2="402"/>
    <line x1="535" y1="393" x2="545" y2="402"/><line x1="550" y1="393" x2="560" y2="402"/>
    <line x1="565" y1="393" x2="575" y2="402"/><line x1="580" y1="393" x2="590" y2="402"/>
    <line x1="595" y1="393" x2="605" y2="402"/><line x1="610" y1="393" x2="620" y2="402"/>
  </g>
  <!-- Building floors -->
  <rect x="100" y="310" width="520" height="80" fill="#dde8f5" stroke="#0A1F44" stroke-width="1.5"/>
  <rect x="115" y="232" width="490" height="80" fill="#c8d8ea" stroke="#0A1F44" stroke-width="1.5"/>
  <rect x="115" y="155" width="490" height="79" fill="#b8c8de" stroke="#0A1F44" stroke-width="1.5"/>
  <!-- Parapet -->
  <rect x="108" y="141" width="504" height="16" fill="#0A1F44"/>
  <rect x="104" y="136" width="512" height="7" fill="#4a7fc1"/>
  <!-- Entry canopy -->
  <rect x="298" y="302" width="124" height="10" fill="#4a7fc1" stroke="#0A1F44" stroke-width="1"/>
  <rect x="304" y="302" width="4" height="88" fill="#0A1F44"/>
  <rect x="412" y="302" width="4" height="88" fill="#0A1F44"/>
  <!-- GF windows -->
  <rect x="120" y="322" width="58" height="52" fill="#7fb3d4" stroke="#0A1F44" stroke-width="0.8" opacity="0.85"/>
  <rect x="196" y="322" width="58" height="52" fill="#7fb3d4" stroke="#0A1F44" stroke-width="0.8" opacity="0.85"/>
  <rect x="306" y="316" width="108" height="74" fill="#a8d4ea" stroke="#0A1F44" stroke-width="1.2"/>
  <line x1="360" y1="316" x2="360" y2="390" stroke="#0A1F44" stroke-width="0.6"/>
  <rect x="446" y="322" width="58" height="52" fill="#7fb3d4" stroke="#0A1F44" stroke-width="0.8" opacity="0.85"/>
  <rect x="522" y="322" width="58" height="52" fill="#7fb3d4" stroke="#0A1F44" stroke-width="0.8" opacity="0.85"/>
  <!-- L1 windows -->
  <rect x="130" y="245" width="54" height="50" fill="#9ab8d0" stroke="#0A1F44" stroke-width="0.8" opacity="0.85"/>
  <rect x="203" y="245" width="54" height="50" fill="#9ab8d0" stroke="#0A1F44" stroke-width="0.8" opacity="0.85"/>
  <rect x="276" y="245" width="54" height="50" fill="#9ab8d0" stroke="#0A1F44" stroke-width="0.8" opacity="0.85"/>
  <rect x="355" y="245" width="54" height="50" fill="#9ab8d0" stroke="#0A1F44" stroke-width="0.8" opacity="0.85"/>
  <rect x="432" y="245" width="54" height="50" fill="#9ab8d0" stroke="#0A1F44" stroke-width="0.8" opacity="0.85"/>
  <rect x="508" y="245" width="54" height="50" fill="#9ab8d0" stroke="#0A1F44" stroke-width="0.8" opacity="0.85"/>
  <!-- L2 windows -->
  <rect x="130" y="168" width="54" height="48" fill="#8ab0cc" stroke="#0A1F44" stroke-width="0.8" opacity="0.85"/>
  <rect x="203" y="168" width="54" height="48" fill="#8ab0cc" stroke="#0A1F44" stroke-width="0.8" opacity="0.85"/>
  <rect x="276" y="168" width="54" height="48" fill="#8ab0cc" stroke="#0A1F44" stroke-width="0.8" opacity="0.85"/>
  <rect x="355" y="168" width="54" height="48" fill="#8ab0cc" stroke="#0A1F44" stroke-width="0.8" opacity="0.85"/>
  <rect x="432" y="168" width="54" height="48" fill="#8ab0cc" stroke="#0A1F44" stroke-width="0.8" opacity="0.85"/>
  <rect x="508" y="168" width="54" height="48" fill="#8ab0cc" stroke="#0A1F44" stroke-width="0.8" opacity="0.85"/>
  <!-- Level markers -->
  <g stroke="#0A1F44" stroke-width="0.8">
    <line x1="80" y1="390" x2="98" y2="390"/>
    <line x1="80" y1="310" x2="98" y2="310"/>
    <line x1="80" y1="232" x2="98" y2="232"/>
    <line x1="80" y1="155" x2="98" y2="155"/>
    <line x1="80" y1="136" x2="98" y2="136"/>
  </g>
  <text x="78" y="393" font-family="Arial, sans-serif" font-size="6" fill="#0A1F44" text-anchor="end">±0.000 GFL</text>
  <text x="78" y="313" font-family="Arial, sans-serif" font-size="6" fill="#0A1F44" text-anchor="end">+3.600 1FL</text>
  <text x="78" y="235" font-family="Arial, sans-serif" font-size="6" fill="#0A1F44" text-anchor="end">+7.200 2FL</text>
  <text x="78" y="158" font-family="Arial, sans-serif" font-size="6" fill="#0A1F44" text-anchor="end">+10.800 3FL</text>
  <text x="78" y="139" font-family="Arial, sans-serif" font-size="6" fill="#0A1F44" text-anchor="end">+12.200 TOP</text>
  <!-- Height dim -->
  <line x1="634" y1="136" x2="634" y2="390" stroke="#0A1F44" stroke-width="0.8"/>
  <line x1="628" y1="136" x2="640" y2="136" stroke="#0A1F44" stroke-width="0.8"/>
  <line x1="628" y1="390" x2="640" y2="390" stroke="#0A1F44" stroke-width="0.8"/>
  <text x="648" y="268" font-family="Arial, sans-serif" font-size="6.5" fill="#0A1F44" transform="rotate(-90,648,268)">H = 12,200</text>
  <!-- Width dim -->
  <line x1="100" y1="410" x2="620" y2="410" stroke="#0A1F44" stroke-width="0.8"/>
  <line x1="100" y1="405" x2="100" y2="415" stroke="#0A1F44" stroke-width="0.8"/>
  <line x1="620" y1="405" x2="620" y2="415" stroke="#0A1F44" stroke-width="0.8"/>
  <text x="360" y="422" font-family="Arial, sans-serif" font-size="6.5" fill="#0A1F44" text-anchor="middle">W = 26,000</text>
  <!-- Grid lines (structural) -->
  <text x="175" y="136" font-family="Arial, sans-serif" font-size="7" fill="#4a7fc1" text-anchor="middle">①</text>
  <text x="280" y="136" font-family="Arial, sans-serif" font-size="7" fill="#4a7fc1" text-anchor="middle">②</text>
  <text x="360" y="136" font-family="Arial, sans-serif" font-size="7" fill="#4a7fc1" text-anchor="middle">③</text>
  <text x="440" y="136" font-family="Arial, sans-serif" font-size="7" fill="#4a7fc1" text-anchor="middle">④</text>
  <text x="535" y="136" font-family="Arial, sans-serif" font-size="7" fill="#4a7fc1" text-anchor="middle">⑤</text>
  <!-- Materials legend -->
  <rect x="642" y="63" width="112" height="148" fill="#f8fafc" stroke="#0A1F44" stroke-width="1"/>
  <rect x="642" y="63" width="112" height="14" fill="#0A1F44"/>
  <text x="698" y="74" font-family="Arial, sans-serif" font-size="7" font-weight="bold" fill="#ffffff" text-anchor="middle">MATERIALS</text>
  <rect x="650" y="83" width="14" height="10" fill="#dde8f5" stroke="#0A1F44" stroke-width="0.8"/>
  <text x="670" y="92" font-family="Arial, sans-serif" font-size="6" fill="#0A1F44">Precast Panel</text>
  <rect x="650" y="99" width="14" height="10" fill="#7fb3d4" stroke="#0A1F44" stroke-width="0.8"/>
  <text x="670" y="108" font-family="Arial, sans-serif" font-size="6" fill="#0A1F44">Alum. Glazing</text>
  <rect x="650" y="115" width="14" height="10" fill="#0A1F44"/>
  <text x="670" y="124" font-family="Arial, sans-serif" font-size="6" fill="#0A1F44">Struct. Column</text>
  <rect x="650" y="131" width="14" height="10" fill="#4a7fc1"/>
  <text x="670" y="140" font-family="Arial, sans-serif" font-size="6" fill="#0A1F44">Entry Canopy</text>
  <text x="650" y="157" font-family="Arial, sans-serif" font-size="6" fill="#6b7280">Class 5 — Commercial</text>
  <text x="650" y="168" font-family="Arial, sans-serif" font-size="6" fill="#6b7280">Slab: 200mm PT</text>
  <text x="650" y="179" font-family="Arial, sans-serif" font-size="6" fill="#6b7280">Column: 500×500 RC</text>
  <text x="650" y="190" font-family="Arial, sans-serif" font-size="6" fill="#6b7280">Frame: RC Moment</text>
  <text x="650" y="201" font-family="Arial, sans-serif" font-size="6" fill="#6b7280">Facade: Curtain Wall</text>
</svg>
