<svg xmlns="http://www.w3.org/2000/svg" width="800" height="500" viewBox="0 0 800 500">
  <rect width="800" height="500" fill="#f0f4f8"/>
  <rect x="20" y="20" width="760" height="460" fill="#ffffff" stroke="#0A1F44" stroke-width="2"/>
  <rect x="28" y="28" width="744" height="452" fill="none" stroke="#0A1F44" stroke-width="0.5"/>
  <rect x="28" y="432" width="744" height="48" fill="#0A1F44"/>
  <line x1="368" y1="432" x2="368" y2="480" stroke="#4a7fc1" stroke-width="0.5"/>
  <line x1="560" y1="432" x2="560" y2="480" stroke="#4a7fc1" stroke-width="0.5"/>
  <text x="44" y="451" font-family="Arial, sans-serif" font-size="7" fill="#9ab3d4" letter-spacing="1.5">PROJECT</text>
  <text x="44" y="463" font-family="Arial, sans-serif" font-size="9" font-weight="bold" fill="#ffffff">PHOTOGRAMMETRY SURVEY</text>
  <text x="44" y="474" font-family="Arial, sans-serif" font-size="7.5" fill="#c8d8ea">Geo-Nectar Technologies Pvt. Ltd.</text>
  <text x="374" y="451" font-family="Arial, sans-serif" font-size="7" fill="#9ab3d4" letter-spacing="1.5">SCALE</text>
  <text x="374" y="464" font-family="Arial, sans-serif" font-size="9" font-weight="bold" fill="#ffffff">1:1000</text>
  <text x="566" y="451" font-family="Arial, sans-serif" font-size="7" fill="#9ab3d4" letter-spacing="1.5">SHEET</text>
  <text x="566" y="464" font-family="Arial, sans-serif" font-size="9" font-weight="bold" fill="#ffffff">1 OF 1</text>
  <text x="650" y="451" font-family="Arial, sans-serif" font-size="7" fill="#9ab3d4" letter-spacing="1.5">DATE</text>
  <text x="650" y="464" font-family="Arial, sans-serif" font-size="9" font-weight="bold" fill="#ffffff">2024</text>
  <!-- Grid -->
  <g stroke="#c8d8ea" stroke-width="0.4" stroke-dasharray="4,4" opacity="0.4">
    <line x1="120" y1="40" x2="120" y2="424"/>
    <line x1="240" y1="40" x2="240" y2="424"/>
    <line x1="360" y1="40" x2="360" y2="424"/>
    <line x1="480" y1="40" x2="480" y2="424"/>
    <line x1="600" y1="40" x2="600" y2="424"/>
    <line x1="720" y1="40" x2="720" y2="424"/>
    <line x1="40" y1="130" x2="760" y2="130"/>
    <line x1="40" y1="230" x2="760" y2="230"/>
    <line x1="40" y1="330" x2="760" y2="330"/>
  </g>
  <!-- Camera positions (top row — aerial) -->
  <g fill="#0A1F44">
    <!-- Camera symbols row 1 -->
    <rect x="90" y="48" width="22" height="16" rx="2" fill="#0A1F44"/>
    <rect x="95" y="44" width="12" height="6" rx="1" fill="#0A1F44"/>
    <circle cx="101" cy="56" r="5" fill="#4a7fc1"/>
    <circle cx="101" cy="56" r="2.5" fill="#ffffff"/>
    <rect x="210" y="48" width="22" height="16" rx="2" fill="#0A1F44"/>
    <rect x="215" y="44" width="12" height="6" rx="1" fill="#0A1F44"/>
    <circle cx="221" cy="56" r="5" fill="#4a7fc1"/>
    <circle cx="221" cy="56" r="2.5" fill="#ffffff"/>
    <rect x="330" y="48" width="22" height="16" rx="2" fill="#0A1F44"/>
    <rect x="335" y="44" width="12" height="6" rx="1" fill="#0A1F44"/>
    <circle cx="341" cy="56" r="5" fill="#4a7fc1"/>
    <circle cx="341" cy="56" r="2.5" fill="#ffffff"/>
    <rect x="450" y="48" width="22" height="16" rx="2" fill="#0A1F44"/>
    <rect x="455" y="44" width="12" height="6" rx="1" fill="#0A1F44"/>
    <circle cx="461" cy="56" r="5" fill="#4a7fc1"/>
    <circle cx="461" cy="56" r="2.5" fill="#ffffff"/>
    <rect x="570" y="48" width="22" height="16" rx="2" fill="#0A1F44"/>
    <rect x="575" y="44" width="12" height="6" rx="1" fill="#0A1F44"/>
    <circle cx="581" cy="56" r="5" fill="#4a7fc1"/>
    <circle cx="581" cy="56" r="2.5" fill="#ffffff"/>
    <rect x="690" y="48" width="22" height="16" rx="2" fill="#0A1F44"/>
    <rect x="695" y="44" width="12" height="6" rx="1" fill="#0A1F44"/>
    <circle cx="701" cy="56" r="5" fill="#4a7fc1"/>
    <circle cx="701" cy="56" r="2.5" fill="#ffffff"/>
  </g>
  <!-- Projection lines from cameras to ground -->
  <g stroke="#4a7fc1" stroke-width="0.6" opacity="0.4">
    <line x1="101" y1="64" x2="60" y2="280"/><line x1="101" y1="64" x2="140" y2="280"/>
    <line x1="221" y1="64" x2="170" y2="280"/><line x1="221" y1="64" x2="280" y2="280"/>
    <line x1="341" y1="64" x2="290" y2="280"/><line x1="341" y1="64" x2="400" y2="280"/>
    <line x1="461" y1="64" x2="400" y2="280"/><line x1="461" y1="64" x2="520" y2="280"/>
    <line x1="581" y1="64" x2="520" y2="280"/><line x1="581" y1="64" x2="640" y2="280"/>
    <line x1="701" y1="64" x2="640" y2="280"/><line x1="701" y1="64" x2="760" y2="280"/>
  </g>
  <!-- Dense point cloud (ground surface) -->
  <g fill="#0A1F44" opacity="0.6">
    <!-- Row of dots representing point cloud -->
    <circle cx="55" cy="285" r="1.5"/><circle cx="68" cy="282" r="1.5"/><circle cx="80" cy="288" r="1.5"/>
    <circle cx="93" cy="284" r="1.5"/><circle cx="106" cy="287" r="1.5"/><circle cx="119" cy="281" r="1.5"/>
    <circle cx="132" cy="286" r="1.5"/><circle cx="145" cy="283" r="1.5"/><circle cx="158" cy="289" r="1.5"/>
    <circle cx="171" cy="285" r="1.5"/><circle cx="184" cy="280" r="1.5"/><circle cx="197" cy="287" r="1.5"/>
    <circle cx="210" cy="284" r="1.5"/><circle cx="223" cy="290" r="1.5"/><circle cx="236" cy="283" r="1.5"/>
    <circle cx="249" cy="287" r="1.5"/><circle cx="262" cy="281" r="1.5"/><circle cx="275" cy="285" r="1.5"/>
    <circle cx="288" cy="289" r="1.5"/><circle cx="301" cy="284" r="1.5"/><circle cx="314" cy="287" r="1.5"/>
    <circle cx="327" cy="282" r="1.5"/><circle cx="340" cy="286" r="1.5"/><circle cx="353" cy="290" r="1.5"/>
    <circle cx="366" cy="284" r="1.5"/><circle cx="379" cy="287" r="1.5"/><circle cx="392" cy="281" r="1.5"/>
    <circle cx="405" cy="285" r="1.5"/><circle cx="418" cy="289" r="1.5"/><circle cx="431" cy="284" r="1.5"/>
    <circle cx="444" cy="287" r="1.5"/><circle cx="457" cy="283" r="1.5"/><circle cx="470" cy="286" r="1.5"/>
    <circle cx="483" cy="290" r="1.5"/><circle cx="496" cy="285" r="1.5"/><circle cx="509" cy="287" r="1.5"/>
    <circle cx="522" cy="282" r="1.5"/><circle cx="535" cy="285" r="1.5"/><circle cx="548" cy="289" r="1.5"/>
    <circle cx="561" cy="284" r="1.5"/><circle cx="574" cy="287" r="1.5"/><circle cx="587" cy="283" r="1.5"/>
    <circle cx="600" cy="286" r="1.5"/><circle cx="613" cy="290" r="1.5"/><circle cx="626" cy="285" r="1.5"/>
    <circle cx="639" cy="282" r="1.5"/><circle cx="652" cy="286" r="1.5"/><circle cx="665" cy="289" r="1.5"/>
    <circle cx="678" cy="284" r="1.5"/><circle cx="691" cy="287" r="1.5"/><circle cx="704" cy="283" r="1.5"/>
    <circle cx="717" cy="286" r="1.5"/><circle cx="730" cy="290" r="1.5"/><circle cx="743" cy="285" r="1.5"/>
    <!-- Second row -->
    <circle cx="61" cy="298" r="1.5"/><circle cx="74" cy="302" r="1.5"/><circle cx="87" cy="296" r="1.5"/>
    <circle cx="100" cy="300" r="1.5"/><circle cx="113" cy="295" r="1.5"/><circle cx="126" cy="302" r="1.5"/>
    <circle cx="139" cy="297" r="1.5"/><circle cx="152" cy="301" r="1.5"/><circle cx="165" cy="296" r="1.5"/>
    <circle cx="178" cy="300" r="1.5"/><circle cx="191" cy="295" r="1.5"/><circle cx="204" cy="302" r="1.5"/>
    <circle cx="217" cy="297" r="1.5"/><circle cx="230" cy="300" r="1.5"/><circle cx="243" cy="295" r="1.5"/>
    <circle cx="256" cy="302" r="1.5"/><circle cx="269" cy="297" r="1.5"/><circle cx="282" cy="300" r="1.5"/>
    <circle cx="295" cy="296" r="1.5"/><circle cx="308" cy="302" r="1.5"/><circle cx="321" cy="297" r="1.5"/>
    <circle cx="334" cy="300" r="1.5"/><circle cx="347" cy="295" r="1.5"/><circle cx="360" cy="302" r="1.5"/>
    <circle cx="373" cy="297" r="1.5"/><circle cx="386" cy="301" r="1.5"/><circle cx="399" cy="296" r="1.5"/>
    <circle cx="412" cy="300" r="1.5"/><circle cx="425" cy="295" r="1.5"/><circle cx="438" cy="302" r="1.5"/>
    <circle cx="451" cy="297" r="1.5"/><circle cx="464" cy="300" r="1.5"/><circle cx="477" cy="296" r="1.5"/>
    <circle cx="490" cy="302" r="1.5"/><circle cx="503" cy="297" r="1.5"/><circle cx="516" cy="300" r="1.5"/>
    <circle cx="529" cy="296" r="1.5"/><circle cx="542" cy="302" r="1.5"/><circle cx="555" cy="297" r="1.5"/>
    <circle cx="568" cy="300" r="1.5"/><circle cx="581" cy="296" r="1.5"/><circle cx="594" cy="302" r="1.5"/>
    <circle cx="607" cy="297" r="1.5"/><circle cx="620" cy="300" r="1.5"/><circle cx="633" cy="296" r="1.5"/>
    <circle cx="646" cy="302" r="1.5"/><circle cx="659" cy="297" r="1.5"/><circle cx="672" cy="300" r="1.5"/>
    <circle cx="685" cy="296" r="1.5"/><circle cx="698" cy="302" r="1.5"/><circle cx="711" cy="297" r="1.5"/>
    <circle cx="724" cy="300" r="1.5"/><circle cx="737" cy="296" r="1.5"/>
  </g>
  <!-- TIN / Triangulation mesh lines -->
  <g stroke="#4a7fc1" stroke-width="0.5" opacity="0.5">
    <polygon points="55,285 68,282 80,288" fill="none"/>
    <polygon points="80,288 93,284 106,287" fill="none"/>
    <polygon points="55,285 80,298 68,282" fill="none"/>
    <polygon points="80,288 106,287 100,300" fill="none"/>
    <polygon points="132,286 145,283 139,297" fill="none"/>
    <polygon points="200,280 210,284 204,302" fill="none"/>
    <polygon points="330,285 340,286 334,300" fill="none"/>
    <polygon points="450,285 470,286 464,300" fill="none"/>
    <polygon points="570,285 580,287 574,302" fill="none"/>
    <polygon points="680,284 695,287 685,296" fill="none"/>
  </g>
  <!-- DEM surface profile (bottom) -->
  <text x="400" y="325" font-family="Arial, sans-serif" font-size="7.5" fill="#0A1F44" text-anchor="middle" font-weight="bold">DENSE POINT CLOUD — TIN SURFACE MODEL</text>
  <text x="400" y="340" font-family="Arial, sans-serif" font-size="6.5" fill="#4a7fc1" text-anchor="middle">GSD = 3.8 cm | Accuracy ± 2.5 cm RMSE | 48M+ Points</text>
  <!-- DEMProfile (terrain cross-section) -->
  <rect x="40" y="355" width="720" height="68" fill="#f0f4f8" stroke="#0A1F44" stroke-width="0.8"/>
  <text x="52" y="368" font-family="Arial, sans-serif" font-size="6.5" font-weight="bold" fill="#0A1F44">TERRAIN PROFILE — SECTION A-A</text>
  <path d="M 52,415 C 80,410 120,408 160,405 C 200,402 240,398 280,390 C 320,382 360,375 400,372 C 440,369 480,370 520,375 C 560,380 600,388 640,398 C 680,408 710,412 750,415" fill="#e8eef5" stroke="#0A1F44" stroke-width="1.5"/>
  <line x1="52" y1="415" x2="750" y2="415" stroke="#0A1F44" stroke-width="0.8"/>
  <text x="52" y="425" font-family="Arial, sans-serif" font-size="5.5" fill="#6b7280">0+000</text>
  <text x="390" y="425" font-family="Arial, sans-serif" font-size="5.5" fill="#6b7280" text-anchor="middle">0+500</text>
  <text x="750" y="425" font-family="Arial, sans-serif" font-size="5.5" fill="#6b7280" text-anchor="end">1+000</text>
</svg>
