<svg xmlns="http://www.w3.org/2000/svg" width="800" height="500" viewBox="0 0 800 500">
  <rect width="800" height="500" fill="#f0f4f8"/>
  <rect x="20" y="20" width="760" height="460" fill="#ffffff" stroke="#0A1F44" stroke-width="2"/>
  <rect x="28" y="28" width="744" height="452" fill="none" stroke="#0A1F44" stroke-width="0.5"/>
  <rect x="28" y="432" width="744" height="48" fill="#0A1F44"/>
  <line x1="368" y1="432" x2="368" y2="480" stroke="#4a7fc1" stroke-width="0.5"/>
  <line x1="560" y1="432" x2="560" y2="480" stroke="#4a7fc1" stroke-width="0.5"/>
  <text x="44" y="451" font-family="Arial, sans-serif" font-size="7" fill="#9ab3d4" letter-spacing="1.5">PROJECT</text>
  <text x="44" y="463" font-family="Arial, sans-serif" font-size="9" font-weight="bold" fill="#ffffff">UTILITY LAYOUT PLAN</text>
  <text x="44" y="474" font-family="Arial, sans-serif" font-size="7.5" fill="#c8d8ea">Geo-Nectar Technologies Pvt. Ltd.</text>
  <text x="374" y="451" font-family="Arial, sans-serif" font-size="7" fill="#9ab3d4" letter-spacing="1.5">SCALE</text>
  <text x="374" y="464" font-family="Arial, sans-serif" font-size="9" font-weight="bold" fill="#ffffff">1:500</text>
  <text x="566" y="451" font-family="Arial, sans-serif" font-size="7" fill="#9ab3d4" letter-spacing="1.5">DRAWING</text>
  <text x="566" y="464" font-family="Arial, sans-serif" font-size="9" font-weight="bold" fill="#ffffff">ALL SERVICES</text>
  <text x="700" y="451" font-family="Arial, sans-serif" font-size="7" fill="#9ab3d4" letter-spacing="1.5">DATE</text>
  <text x="700" y="464" font-family="Arial, sans-serif" font-size="9" font-weight="bold" fill="#ffffff">2024</text>
  <!-- Grid -->
  <g stroke="#c8d8ea" stroke-width="0.3" stroke-dasharray="4,4" opacity="0.4">
    <line x1="150" y1="40" x2="150" y2="424"/>
    <line x1="300" y1="40" x2="300" y2="424"/>
    <line x1="450" y1="40" x2="450" y2="424"/>
    <line x1="600" y1="40" x2="600" y2="424"/>
    <line x1="40" y1="150" x2="760" y2="150"/>
    <line x1="40" y1="280" x2="760" y2="280"/>
  </g>
  <!-- Road surfaces -->
  <rect x="42" y="42" width="718" height="30" fill="#c8c8c8" stroke="#6b7280" stroke-width="1"/>
  <text x="400" y="61" font-family="Arial, sans-serif" font-size="7" fill="#0A1F44" text-anchor="middle">MAIN AVENUE — 20m RESERVE</text>
  <rect x="42" y="282" width="718" height="30" fill="#c8c8c8" stroke="#6b7280" stroke-width="1"/>
  <text x="400" y="301" font-family="Arial, sans-serif" font-size="7" fill="#0A1F44" text-anchor="middle">CROSS STREET — 15m RESERVE</text>
  <rect x="42" y="72" width="30" height="360" fill="#c8c8c8" stroke="#6b7280" stroke-width="1"/>
  <rect x="420" y="72" width="30" height="360" fill="#c8c8c8" stroke="#6b7280" stroke-width="1"/>
  <rect x="728" y="72" width="30" height="360" fill="#c8c8c8" stroke="#6b7280" stroke-width="1"/>
  <!-- Property blocks (between roads) -->
  <rect x="72" y="72" width="348" height="210" fill="#eef3f8" stroke="#9ab3d4" stroke-width="0.5"/>
  <text x="246" y="175" font-family="Arial, sans-serif" font-size="7" fill="#9ab3d4" text-anchor="middle">BLOCK A</text>
  <rect x="450" y="72" width="278" height="210" fill="#eef3f8" stroke="#9ab3d4" stroke-width="0.5"/>
  <text x="589" y="175" font-family="Arial, sans-serif" font-size="7" fill="#9ab3d4" text-anchor="middle">BLOCK B</text>
  <rect x="72" y="312" width="348" height="110" fill="#eef3f8" stroke="#9ab3d4" stroke-width="0.5"/>
  <text x="246" y="370" font-family="Arial, sans-serif" font-size="7" fill="#9ab3d4" text-anchor="middle">BLOCK C</text>
  <rect x="450" y="312" width="278" height="110" fill="#eef3f8" stroke="#9ab3d4" stroke-width="0.5"/>
  <text x="589" y="370" font-family="Arial, sans-serif" font-size="7" fill="#9ab3d4" text-anchor="middle">BLOCK D</text>
  <!-- Utility depth indicator (underground cross-section concept) -->
  <!-- WATER MAIN (blue) — top of road zone -->
  <line x1="42" y1="55" x2="760" y2="55" stroke="#2563eb" stroke-width="4"/>
  <line x1="42" y1="295" x2="760" y2="295" stroke="#2563eb" stroke-width="4"/>
  <line x1="57" y1="72" x2="57" y2="282" stroke="#2563eb" stroke-width="4"/>
  <line x1="57" y1="312" x2="57" y2="424" stroke="#2563eb" stroke-width="4"/>
  <line x1="435" y1="72" x2="435" y2="282" stroke="#2563eb" stroke-width="4"/>
  <line x1="435" y1="312" x2="435" y2="424" stroke="#2563eb" stroke-width="4"/>
  <line x1="743" y1="72" x2="743" y2="282" stroke="#2563eb" stroke-width="3"/>
  <!-- SEWER (dark brown) -->
  <line x1="42" y1="60" x2="760" y2="60" stroke="#7c3a00" stroke-width="4"/>
  <line x1="42" y1="300" x2="760" y2="300" stroke="#7c3a00" stroke-width="4"/>
  <line x1="62" y1="72" x2="62" y2="282" stroke="#7c3a00" stroke-width="4"/>
  <line x1="62" y1="312" x2="62" y2="424" stroke="#7c3a00" stroke-width="4"/>
  <line x1="440" y1="72" x2="440" y2="282" stroke="#7c3a00" stroke-width="4"/>
  <line x1="745" y1="72" x2="745" y2="282" stroke="#7c3a00" stroke-width="3"/>
  <!-- GAS (yellow-orange) -->
  <line x1="42" y1="65" x2="760" y2="65" stroke="#f59e0b" stroke-width="3"/>
  <line x1="42" y1="305" x2="760" y2="305" stroke="#f59e0b" stroke-width="3"/>
  <line x1="67" y1="72" x2="67" y2="282" stroke="#f59e0b" stroke-width="3"/>
  <line x1="445" y1="72" x2="445" y2="282" stroke="#f59e0b" stroke-width="3"/>
  <line x1="748" y1="72" x2="748" y2="282" stroke="#f59e0b" stroke-width="3"/>
  <!-- ELECTRICAL (red) -->
  <line x1="42" y1="70" x2="760" y2="70" stroke="#ef4444" stroke-width="3"/>
  <line x1="42" y1="308" x2="760" y2="308" stroke="#ef4444" stroke-width="3"/>
  <line x1="72" y1="72" x2="72" y2="282" stroke="#ef4444" stroke-width="3"/>
  <line x1="450" y1="72" x2="450" y2="282" stroke="#ef4444" stroke-width="3"/>
  <!-- TELECOM (purple) -->
  <line x1="42" y1="74" x2="760" y2="74" stroke="#7c3aed" stroke-width="2" stroke-dasharray="8,3"/>
  <line x1="42" y1="312" x2="760" y2="312" stroke="#7c3aed" stroke-width="2" stroke-dasharray="8,3"/>
  <line x1="77" y1="72" x2="77" y2="282" stroke="#7c3aed" stroke-width="2" stroke-dasharray="8,3"/>
  <line x1="455" y1="72" x2="455" y2="282" stroke="#7c3aed" stroke-width="2" stroke-dasharray="8,3"/>
  <!-- STORMWATER (light blue) -->
  <line x1="42" y1="78" x2="760" y2="78" stroke="#93c5fd" stroke-width="3"/>
  <line x1="42" y1="316" x2="760" y2="316" stroke="#93c5fd" stroke-width="3"/>
  <line x1="82" y1="72" x2="82" y2="282" stroke="#93c5fd" stroke-width="3"/>
  <!-- Valve/pit symbols -->
  <g fill="#2563eb">
    <rect x="147" y="52" width="8" height="8"/>
    <rect x="297" y="52" width="8" height="8"/>
    <rect x="447" y="52" width="8" height="8"/>
    <rect x="597" y="52" width="8" height="8"/>
  </g>
  <!-- Conflict/clash zone circles -->
  <circle cx="57" cy="282" r="10" fill="none" stroke="#ef4444" stroke-width="2"/>
  <text x="72" y="280" font-family="Arial, sans-serif" font-size="5.5" fill="#ef4444">CONFLICT</text>
  <circle cx="440" cy="282" r="10" fill="none" stroke="#d97706" stroke-width="2"/>
  <text x="455" y="280" font-family="Arial, sans-serif" font-size="5.5" fill="#d97706">CONFLICT</text>
  <!-- Legend -->
  <rect x="490" y="335" width="265" height="85" fill="#f8fafc" stroke="#0A1F44" stroke-width="1"/>
  <rect x="490" y="335" width="265" height="16" fill="#0A1F44"/>
  <text x="622" y="347" font-family="Arial, sans-serif" font-size="7.5" font-weight="bold" fill="#ffffff" text-anchor="middle" letter-spacing="1">UTILITY LEGEND</text>
  <line x1="498" y1="358" x2="520" y2="358" stroke="#2563eb" stroke-width="4"/>
  <text x="526" y="362" font-family="Arial, sans-serif" font-size="7" fill="#0A1F44">Water Main (W)</text>
  <line x1="498" y1="372" x2="520" y2="372" stroke="#7c3a00" stroke-width="4"/>
  <text x="526" y="376" font-family="Arial, sans-serif" font-size="7" fill="#0A1F44">Sewer (S)</text>
  <line x1="498" y1="386" x2="520" y2="386" stroke="#f59e0b" stroke-width="3"/>
  <text x="526" y="390" font-family="Arial, sans-serif" font-size="7" fill="#0A1F44">Gas (G)</text>
  <line x1="625" y1="358" x2="647" y2="358" stroke="#ef4444" stroke-width="3"/>
  <text x="653" y="362" font-family="Arial, sans-serif" font-size="7" fill="#0A1F44">Electrical (HV/LV)</text>
  <line x1="625" y1="372" x2="647" y2="372" stroke="#7c3aed" stroke-width="2" stroke-dasharray="8,3"/>
  <text x="653" y="376" font-family="Arial, sans-serif" font-size="7" fill="#0A1F44">Telecommunications</text>
  <line x1="625" y1="386" x2="647" y2="386" stroke="#93c5fd" stroke-width="3"/>
  <text x="653" y="390" font-family="Arial, sans-serif" font-size="7" fill="#0A1F44">Stormwater (SW)</text>
  <!-- North arrow -->
  <g transform="translate(714,380)">
    <circle cx="0" cy="0" r="18" fill="none" stroke="#0A1F44" stroke-width="1.5"/>
    <polygon points="0,-14 -5,7 0,2 5,7" fill="#0A1F44"/>
    <line x1="0" y1="-14" x2="0" y2="14" stroke="#0A1F44" stroke-width="1"/>
    <text x="0" y="-18" font-family="Arial, sans-serif" font-size="9" font-weight="bold" fill="#0A1F44" text-anchor="middle">N</text>
  </g>
</svg>
