<svg xmlns="http://www.w3.org/2000/svg" width="800" height="500" viewBox="0 0 800 500">
  <rect width="800" height="500" fill="#f0f4f8"/>
  <rect x="14" y="14" width="772" height="472" fill="#ffffff" stroke="#0A1F44" stroke-width="1.5"/>
  <rect x="20" y="20" width="760" height="465" fill="none" stroke="#0A1F44" stroke-width="0.4"/>
  <!-- Title block bottom -->
  <rect x="14" y="451" width="772" height="35" fill="#0A1F44"/>
  <line x1="260" y1="451" x2="260" y2="486" stroke="#4a7fc1" stroke-width="0.5"/>
  <line x1="520" y1="451" x2="520" y2="486" stroke="#4a7fc1" stroke-width="0.5"/>
  <text x="28" y="462" font-family="Arial, sans-serif" font-size="6" fill="#9ab3d4" letter-spacing="1.2">CATEGORY</text>
  <text x="28" y="473" font-family="Arial, sans-serif" font-size="9" font-weight="bold" fill="#ffffff">CIVIL ENGINEERING</text>
  <text x="28" y="483" font-family="Arial, sans-serif" font-size="6.5" fill="#c8d8ea">geo-nectar.com</text>
  <text x="274" y="462" font-family="Arial, sans-serif" font-size="6" fill="#9ab3d4" letter-spacing="1.2">TOPIC</text>
  <text x="274" y="473" font-family="Arial, sans-serif" font-size="8" fill="#ffffff">Advanced CAD Drafting Techniques</text>
  <text x="534" y="462" font-family="Arial, sans-serif" font-size="6" fill="#9ab3d4" letter-spacing="1.2">PUBLISHED</text>
  <text x="534" y="473" font-family="Arial, sans-serif" font-size="8" font-weight="bold" fill="#ffffff">January 15, 2020</text>
  <text x="534" y="483" font-family="Arial, sans-serif" font-size="6" fill="#F05A28">GeoNectar Technologies</text>
  <!-- Grid lines -->
  <g stroke="#c8d8ea" stroke-width="0.3" stroke-dasharray="4,4" opacity="0.5">
    <line x1="270" y1="28" x2="270" y2="444"/>
    <line x1="530" y1="28" x2="530" y2="444"/>
    <line x1="28" y1="220" x2="772" y2="220"/>
    <line x1="28" y1="340" x2="772" y2="340"/>
  </g>
  <!-- Header label -->
  <text x="40" y="42" font-family="Arial, sans-serif" font-size="6.5" fill="#6b7280">CAD DRAFTING INFOGRAPHIC  |  PARAMETRIC · LAYER MGMT · SIMULATION · 3D MODELING</text>
  <!-- PANEL 1: Parametric Design (left) -->
  <rect x="28" y="50" width="228" height="385" fill="#f8fafc" stroke="#9ab3d4" stroke-width="0.5"/>
  <text x="142" y="66" font-family="Arial, sans-serif" font-size="7.5" font-weight="bold" fill="#0A1F44" text-anchor="middle">PARAMETRIC MODELING</text>
  <!-- Master parameter box -->
  <rect x="80" y="76" width="125" height="28" fill="#0A1F44" rx="3"/>
  <text x="142" y="87" font-family="Arial, sans-serif" font-size="6.5" fill="#ffffff" text-anchor="middle">MASTER DIMENSION</text>
  <text x="142" y="97" font-family="Arial, sans-serif" font-size="8" font-weight="bold" fill="#F05A28" text-anchor="middle">W = 4500 mm</text>
  <!-- Cascade arrows -->
  <line x1="142" y1="104" x2="142" y2="115" stroke="#4a7fc1" stroke-width="1.5"/>
  <polygon points="138,114 142,122 146,114" fill="#4a7fc1"/>
  <!-- Derived param boxes -->
  <rect x="50" y="124" width="85" height="22" fill="#e8f0f8" stroke="#4a7fc1" stroke-width="0.8" rx="2"/>
  <text x="92" y="138" font-family="Arial, sans-serif" font-size="6.5" fill="#0A1F44" text-anchor="middle">Bay = W/3</text>
  <rect x="148" y="124" width="85" height="22" fill="#e8f0f8" stroke="#4a7fc1" stroke-width="0.8" rx="2"/>
  <text x="190" y="138" font-family="Arial, sans-serif" font-size="6.5" fill="#0A1F44" text-anchor="middle">Column = W/9</text>
  <!-- Lines from master to derived -->
  <line x1="105" y1="104" x2="93" y2="124" stroke="#4a7fc1" stroke-width="0.8" stroke-dasharray="3,2"/>
  <line x1="178" y1="104" x2="190" y2="124" stroke="#4a7fc1" stroke-width="0.8" stroke-dasharray="3,2"/>
  <!-- Update indicator -->
  <rect x="65" y="158" width="155" height="18" fill="#F05A28" rx="2" opacity="0.15"/>
  <rect x="65" y="158" width="155" height="18" fill="none" stroke="#F05A28" stroke-width="0.8" rx="2"/>
  <text x="142" y="170" font-family="Arial, sans-serif" font-size="6.5" fill="#F05A28" text-anchor="middle">↻ Auto-updates on change</text>
  <!-- Before/After blocks -->
  <text x="60" y="193" font-family="Arial, sans-serif" font-size="6" fill="#6b7280">BEFORE</text>
  <rect x="60" y="197" width="70" height="50" fill="#f0f0f0" stroke="#9ab3d4" stroke-width="0.8"/>
  <rect x="68" y="205" width="40" height="34" fill="#c8c8c8" stroke="#888" stroke-width="0.5"/>
  <text x="95" y="240" font-family="Arial, sans-serif" font-size="5.5" fill="#666" text-anchor="middle">W=3000</text>
  <text x="175" y="193" font-family="Arial, sans-serif" font-size="6" fill="#22a366">AFTER</text>
  <rect x="148" y="197" width="80" height="50" fill="#e8f8f0" stroke="#22a366" stroke-width="0.8"/>
  <rect x="156" y="205" width="56" height="34" fill="#b8e8d0" stroke="#22a366" stroke-width="0.5"/>
  <text x="184" y="240" font-family="Arial, sans-serif" font-size="5.5" fill="#22a366" text-anchor="middle">W=4500</text>
  <line x1="132" y1="222" x2="147" y2="222" stroke="#F05A28" stroke-width="1.5"/>
  <polygon points="146,218 152,222 146,226" fill="#F05A28"/>
  <!-- Key stats -->
  <rect x="45" y="260" width="195" height="60" fill="#0A1F44" rx="3"/>
  <text x="142" y="274" font-family="Arial, sans-serif" font-size="6" fill="#9ab3d4" text-anchor="middle" letter-spacing="1">EFFICIENCY GAINS</text>
  <text x="75" y="292" font-family="Arial, sans-serif" font-size="13" font-weight="bold" fill="#F05A28" text-anchor="middle">60%</text>
  <text x="75" y="304" font-family="Arial, sans-serif" font-size="5.5" fill="#c8d8ea" text-anchor="middle">Less redesign</text>
  <text x="142" y="292" font-family="Arial, sans-serif" font-size="13" font-weight="bold" fill="#4a7fc1" text-anchor="middle">3×</text>
  <text x="142" y="304" font-family="Arial, sans-serif" font-size="5.5" fill="#c8d8ea" text-anchor="middle">Faster iteration</text>
  <text x="210" y="292" font-family="Arial, sans-serif" font-size="13" font-weight="bold" fill="#22a366" text-anchor="middle">&lt;1%</text>
  <text x="210" y="304" font-family="Arial, sans-serif" font-size="5.5" fill="#c8d8ea" text-anchor="middle">Error rate</text>
  <!-- Software tags -->
  <text x="55" y="340" font-family="Arial, sans-serif" font-size="6" fill="#6b7280">TOOLS:</text>
  <rect x="88" y="330" width="58" height="14" fill="#4a7fc1" rx="2"/>
  <text x="117" y="340" font-family="Arial, sans-serif" font-size="6.5" fill="#ffffff" text-anchor="middle">AutoCAD</text>
  <rect x="152" y="330" width="55" height="14" fill="#4a7fc1" rx="2"/>
  <text x="179" y="340" font-family="Arial, sans-serif" font-size="6.5" fill="#ffffff" text-anchor="middle">Civil 3D</text>
  <rect x="60" y="350" width="52" height="14" fill="#0A1F44" rx="2"/>
  <text x="86" y="360" font-family="Arial, sans-serif" font-size="6.5" fill="#ffffff" text-anchor="middle">Revit</text>
  <rect x="118" y="350" width="70" height="14" fill="#0A1F44" rx="2"/>
  <text x="153" y="360" font-family="Arial, sans-serif" font-size="6.5" fill="#ffffff" text-anchor="middle">MicroStation</text>
  <!-- PANEL 2: Layer Management (middle) -->
  <rect x="278" y="50" width="238" height="185" fill="#f8fafc" stroke="#9ab3d4" stroke-width="0.5"/>
  <text x="397" y="66" font-family="Arial, sans-serif" font-size="7.5" font-weight="bold" fill="#0A1F44" text-anchor="middle">LAYER MANAGEMENT</text>
  <!-- Layer stack -->
  <g font-family="Arial, sans-serif" font-size="6.5">
    <rect x="295" y="74" width="204" height="16" fill="#ef4444" opacity="0.8" rx="1"/>
    <text x="305" y="85" fill="#ffffff">ELECTRICAL — E-POWER-HV</text>
    <text x="484" y="85" fill="#ffffff" text-anchor="end">VIS</text>
    <rect x="295" y="93" width="204" height="16" fill="#3b82f6" opacity="0.8" rx="1"/>
    <text x="305" y="104" fill="#ffffff">PLUMBING — P-PIPE-CWS</text>
    <text x="484" y="104" fill="#ffffff" text-anchor="end">VIS</text>
    <rect x="295" y="112" width="204" height="16" fill="#22a366" opacity="0.8" rx="1"/>
    <text x="305" y="123" fill="#ffffff">STRUCTURAL — S-COLUMN</text>
    <text x="484" y="123" fill="#ffffff" text-anchor="end">VIS</text>
    <rect x="295" y="131" width="204" height="16" fill="#9ab3d4" opacity="0.5" rx="1"/>
    <text x="305" y="142" fill="#6b7280">HVAC — M-DUCT-SA</text>
    <text x="484" y="142" fill="#6b7280" text-anchor="end">OFF</text>
    <rect x="295" y="150" width="204" height="16" fill="#F05A28" opacity="0.8" rx="1"/>
    <text x="305" y="161" fill="#ffffff">CIVIL — C-ROAD-EDGE</text>
    <text x="484" y="161" fill="#ffffff" text-anchor="end">VIS</text>
    <rect x="295" y="169" width="204" height="16" fill="#7c3aed" opacity="0.8" rx="1"/>
    <text x="305" y="180" fill="#ffffff">ANNOTATION — A-DIMS</text>
    <text x="484" y="180" fill="#ffffff" text-anchor="end">VIS</text>
    <rect x="295" y="188" width="204" height="16" fill="#0A1F44" opacity="0.6" rx="1"/>
    <text x="305" y="199" fill="#ffffff">BORDER — TITLE-BLOCK</text>
    <text x="484" y="199" fill="#ffffff" text-anchor="end">LOCK</text>
    <rect x="295" y="207" width="204" height="16" fill="#d97706" opacity="0.7" rx="1"/>
    <text x="305" y="218" fill="#ffffff">SURVEY — TOPO-CONTOUR</text>
    <text x="484" y="218" fill="#ffffff" text-anchor="end">VIS</text>
  </g>
  <!-- Panel 3: 2D vs 3D -->
  <rect x="278" y="248" width="238" height="187" fill="#f8fafc" stroke="#9ab3d4" stroke-width="0.5"/>
  <text x="397" y="264" font-family="Arial, sans-serif" font-size="7.5" font-weight="bold" fill="#0A1F44" text-anchor="middle">2D ↔ 3D WORKFLOW</text>
  <!-- 2D plan -->
  <rect x="288" y="272" width="100" height="80" fill="#e8f0f8" stroke="#4a7fc1" stroke-width="1"/>
  <text x="338" y="285" font-family="Arial, sans-serif" font-size="6.5" fill="#0A1F44" text-anchor="middle" font-weight="bold">PLAN VIEW</text>
  <rect x="300" y="292" width="76" height="52" fill="none" stroke="#0A1F44" stroke-width="1.2"/>
  <line x1="338" y1="292" x2="338" y2="344" stroke="#0A1F44" stroke-width="0.8"/>
  <line x1="300" y1="318" x2="376" y2="318" stroke="#0A1F44" stroke-width="0.8"/>
  <rect x="308" y="298" width="22" height="16" fill="#c8d8ea" stroke="#0A1F44" stroke-width="0.5"/>
  <rect x="348" y="298" width="22" height="16" fill="#c8d8ea" stroke="#0A1F44" stroke-width="0.5"/>
  <!-- Arrow -->
  <line x1="390" y1="312" x2="406" y2="312" stroke="#F05A28" stroke-width="2"/>
  <polygon points="404,308 412,312 404,316" fill="#F05A28"/>
  <text x="397" y="322" font-family="Arial, sans-serif" font-size="5.5" fill="#F05A28" text-anchor="middle">sync</text>
  <!-- 3D isometric box -->
  <polygon points="418,340 466,340 490,316 442,316" fill="#dde8f5" stroke="#0A1F44" stroke-width="1"/>
  <polygon points="418,300 418,340 442,316 442,276" fill="#c8d8ea" stroke="#0A1F44" stroke-width="1"/>
  <polygon points="466,300 466,340 490,316 490,276" fill="#9ab3d4" stroke="#0A1F44" stroke-width="1"/>
  <polygon points="418,300 466,300 490,276 442,276" fill="#b8c8de" stroke="#0A1F44" stroke-width="1"/>
  <text x="454" y="356" font-family="Arial, sans-serif" font-size="6.5" fill="#0A1F44" text-anchor="middle" font-weight="bold">3D MODEL</text>
  <!-- Simulation row -->
  <rect x="288" y="367" width="218" height="58" fill="#0A1F44" rx="3"/>
  <text x="397" y="380" font-family="Arial, sans-serif" font-size="6" fill="#9ab3d4" text-anchor="middle" letter-spacing="1">SIMULATION &amp; ANALYSIS</text>
  <text x="315" y="395" font-family="Arial, sans-serif" font-size="7" fill="#22a366" text-anchor="middle">FEA</text>
  <text x="315" y="406" font-family="Arial, sans-serif" font-size="5.5" fill="#c8d8ea" text-anchor="middle">Stress</text>
  <text x="360" y="395" font-family="Arial, sans-serif" font-size="7" fill="#4a7fc1" text-anchor="middle">CFD</text>
  <text x="360" y="406" font-family="Arial, sans-serif" font-size="5.5" fill="#c8d8ea" text-anchor="middle">Flow</text>
  <text x="397" y="395" font-family="Arial, sans-serif" font-size="7" fill="#F05A28" text-anchor="middle">Solar</text>
  <text x="397" y="406" font-family="Arial, sans-serif" font-size="5.5" fill="#c8d8ea" text-anchor="middle">Daylight</text>
  <text x="440" y="395" font-family="Arial, sans-serif" font-size="7" fill="#fbbf24" text-anchor="middle">Clash</text>
  <text x="440" y="406" font-family="Arial, sans-serif" font-size="5.5" fill="#c8d8ea" text-anchor="middle">Detect</text>
  <text x="480" y="395" font-family="Arial, sans-serif" font-size="7" fill="#9ab3d4" text-anchor="middle">BOM</text>
  <text x="480" y="406" font-family="Arial, sans-serif" font-size="5.5" fill="#c8d8ea" text-anchor="middle">Takeoff</text>
  <!-- PANEL 4: Deliverables (right) -->
  <rect x="536" y="50" width="236" height="385" fill="#f8fafc" stroke="#9ab3d4" stroke-width="0.5"/>
  <text x="654" y="66" font-family="Arial, sans-serif" font-size="7.5" font-weight="bold" fill="#0A1F44" text-anchor="middle">CAD DELIVERABLES</text>
  <!-- Deliverable items -->
  <g font-family="Arial, sans-serif">
    <rect x="548" y="74" width="212" height="40" fill="#e8f0f8" stroke="#4a7fc1" stroke-width="0.8" rx="2"/>
    <rect x="548" y="74" width="6" height="40" fill="#4a7fc1" rx="1"/>
    <text x="562" y="88" font-size="7.5" font-weight="bold" fill="#0A1F44">2D Fabrication Drawings</text>
    <text x="562" y="99" font-size="6" fill="#6b7280">Plan, Section, Elevation — DWG / PDF</text>
    <text x="562" y="109" font-size="6" fill="#4a7fc1">Tolerance: ±0.5mm</text>
    <rect x="548" y="120" width="212" height="40" fill="#e8f8f0" stroke="#22a366" stroke-width="0.8" rx="2"/>
    <rect x="548" y="120" width="6" height="40" fill="#22a366" rx="1"/>
    <text x="562" y="134" font-size="7.5" font-weight="bold" fill="#0A1F44">3D Solid Modelling</text>
    <text x="562" y="145" font-size="6" fill="#6b7280">Parametric solids — STEP / IGES / SAT</text>
    <text x="562" y="155" font-size="6" fill="#22a366">LOD 300–400</text>
    <rect x="548" y="166" width="212" height="40" fill="#fff8f0" stroke="#F05A28" stroke-width="0.8" rx="2"/>
    <rect x="548" y="166" width="6" height="40" fill="#F05A28" rx="1"/>
    <text x="562" y="180" font-size="7.5" font-weight="bold" fill="#0A1F44">P&amp;ID Diagrams</text>
    <text x="562" y="191" font-size="6" fill="#6b7280">Piping &amp; instrumentation — Visio / AutoCAD</text>
    <text x="562" y="201" font-size="6" fill="#F05A28">ISA / ISO 10628 Compliant</text>
    <rect x="548" y="212" width="212" height="40" fill="#fdf8ff" stroke="#7c3aed" stroke-width="0.8" rx="2"/>
    <rect x="548" y="212" width="6" height="40" fill="#7c3aed" rx="1"/>
    <text x="562" y="226" font-size="7.5" font-weight="bold" fill="#0A1F44">HVAC Duct Layouts</text>
    <text x="562" y="237" font-size="6" fill="#6b7280">Supply / Return / Exhaust routing</text>
    <text x="562" y="247" font-size="6" fill="#7c3aed">ASHRAE / SMACNA Standards</text>
    <rect x="548" y="258" width="212" height="40" fill="#f0f4ff" stroke="#3b82f6" stroke-width="0.8" rx="2"/>
    <rect x="548" y="258" width="6" height="40" fill="#3b82f6" rx="1"/>
    <text x="562" y="272" font-size="7.5" font-weight="bold" fill="#0A1F44">Assembly Drawings</text>
    <text x="562" y="283" font-size="6" fill="#6b7280">Exploded view, BOM, part callouts</text>
    <text x="562" y="293" font-size="6" fill="#3b82f6">GD&amp;T Tolerancing Applied</text>
    <rect x="548" y="304" width="212" height="40" fill="#f8f8e8" stroke="#d97706" stroke-width="0.8" rx="2"/>
    <rect x="548" y="304" width="6" height="40" fill="#d97706" rx="1"/>
    <text x="562" y="318" font-size="7.5" font-weight="bold" fill="#0A1F44">BOM Generation</text>
    <text x="562" y="329" font-size="6" fill="#6b7280">Material lists — Excel / CSV / ERP-ready</text>
    <text x="562" y="339" font-size="6" fill="#d97706">Linked to 3D model attributes</text>
  </g>
  <!-- GeoNectar stamp -->
  <rect x="548" y="354" width="212" height="72" fill="#0A1F44" rx="3"/>
  <text x="654" y="370" font-family="Arial, sans-serif" font-size="6" fill="#9ab3d4" text-anchor="middle" letter-spacing="1.5">GEO-NECTAR QUALITY ASSURANCE</text>
  <text x="588" y="390" font-family="Arial, sans-serif" font-size="11" font-weight="bold" fill="#F05A28" text-anchor="middle">ISO</text>
  <text x="588" y="402" font-family="Arial, sans-serif" font-size="6" fill="#c8d8ea" text-anchor="middle">9001:2015</text>
  <text x="654" y="390" font-family="Arial, sans-serif" font-size="11" font-weight="bold" fill="#4a7fc1" text-anchor="middle">&lt;1%</text>
  <text x="654" y="402" font-family="Arial, sans-serif" font-size="6" fill="#c8d8ea" text-anchor="middle">Error Rate</text>
  <text x="720" y="390" font-family="Arial, sans-serif" font-size="11" font-weight="bold" fill="#22a366" text-anchor="middle">24h</text>
  <text x="720" y="402" font-family="Arial, sans-serif" font-size="6" fill="#c8d8ea" text-anchor="middle">Turnaround</text>
  <text x="654" y="418" font-family="Arial, sans-serif" font-size="7" fill="#9ab3d4" text-anchor="middle">services@geo-nectar.com</text>
</svg>
